<svg width="18" height="18" viewBox="0 0 18 18" fill="none" xmlns="http://www.w3.org/2000/svg">
<path d="M5.26381 16.2041C2.7339 16.2041 1.92603 15.4187 1.92603 13.7889C1.92603 12.1591 1.92603 10.1726 1.92603 9.52465C1.92603 8.87666 2.546 7.64411 3.91936 7.64411C4.52974 7.64411 4.85673 7.64411 4.85673 7.64411C2.56105 7.64411 2.18924 8.65415 2.18924 9.52465C2.18924 10.3951 2.18924 11.3025 2.18924 13.7889C2.18924 15.778 4.23895 16.2279 5.26381 16.2041ZM5.26381 16.2041C7.79372 16.2041 11.9694 16.1065 13.2548 16.1065M13.2548 16.1065C15.9245 16.1065 16.0399 15.0854 16.1249 13.5341C16.2099 11.9829 16.3162 10.2737 16.3375 9.33117M13.2548 16.1065C15.9245 16.1065 16.006 15.6202 16.091 14.069M16.3375 9.33117C16.3587 8.38864 15.4446 7.78445 14.7643 7.78445C14.084 7.78445 13.2548 7.78445 13.2548 7.78445C13.994 7.63515 15.4024 7.48458 15.9245 7.98119C16.5771 8.60195 16.519 9.21135 16.4673 9.66499C16.4156 10.1186 16.11 13.7153 16.091 14.069M16.3375 9.33117C16.3162 10.2737 16.1761 12.5177 16.091 14.069" stroke="black" stroke-width="3" stroke-linecap="round" stroke-linejoin="round"/>
<path d="M9.04676 1.77594C9.31848 1.73406 12.6001 3.86871 12.6001 3.86871L9.42395 3.93481C9.42395 4.37113 9.67148 10.8419 9.42395 11.4195C9.22593 11.8816 9.05904 11.612 9.00034 11.4195V3.94362L5.40063 4.01853C5.40063 4.01853 6.15895 3.24543 7.18584 2.6041C8.21272 1.96278 8.77504 1.81781 9.04676 1.77594Z" fill="black"/>
<path d="M9.00034 3.94362L5.40063 4.01853C5.40063 4.01853 6.15895 3.24543 7.18584 2.6041C8.21272 1.96278 8.77504 1.81781 9.04676 1.77594C9.31848 1.73406 12.6001 3.86871 12.6001 3.86871L9.42395 3.93481M9.00034 3.94362V11.4195C9.05904 11.612 9.22593 11.8816 9.42395 11.4195C9.67148 10.8419 9.42395 4.37113 9.42395 3.93481M9.00034 3.94362L9.42395 3.93481" stroke="black" stroke-width="3" stroke-linecap="round" stroke-linejoin="round"/>
</svg>
