<svg width="16" height="17" viewBox="0 0 16 17" fill="none" xmlns="http://www.w3.org/2000/svg">
<path d="M1.76788 2.71227C1.39629 2.06265 1.91322 1.72744 2.4692 2.16885C2.57446 2.25243 4.92956 4.13695 5.96302 4.96395C6.40544 5.31798 6.4412 5.35344 6.9806 5.22023C8.73289 4.78749 11.7532 3.88999 13.3877 3.41751C14.4771 3.10256 14.6244 3.01843 13.5446 3.7962C12.3298 4.67117 10.2064 6.20246 8.92355 7.16317C8.31898 7.61592 8.49659 7.64936 8.99202 8.18316C8.99202 8.18316 10.8721 10.2534 11.0257 10.407C11.1794 10.5607 11.4602 10.8415 12.131 10.7197C12.8019 10.5979 13.8357 10.4655 14.0837 10.4087C14.3318 10.3518 14.2987 10.6237 14.1966 10.7258C14.0944 10.828 12.8167 11.8176 12.6157 11.997C12.4146 12.1763 12.2814 12.3206 12.4321 12.4903C12.5828 12.66 13.9533 14.2503 13.9533 14.2503C13.9533 14.2503 12.4242 12.7981 12.2701 12.6522C12.1161 12.5063 11.9248 12.7312 11.6901 12.9442C11.4555 13.1572 10.6784 14.244 10.4876 14.4348C10.2968 14.6256 10.1204 14.6297 10.1646 14.2338C10.2087 13.8379 10.4237 12.573 10.4559 12.1576C10.4881 11.7421 10.3782 11.6323 10.0518 11.3809C9.72542 11.1296 7.77328 9.47496 7.77328 9.47496C7.77328 9.47496 7.12401 8.82568 6.70565 9.40152C6.28729 9.97735 3.69776 13.5505 3.45091 13.8899C3.20407 14.2293 2.87956 14.3653 3.06904 13.607C3.25852 12.8486 4.84213 7.31536 4.84213 7.31536C4.99091 6.78743 4.95569 6.76364 4.60513 6.32184C3.7662 5.26455 1.83044 2.82163 1.76788 2.71227Z" fill="black" stroke="black" stroke-width="3" stroke-linecap="round" stroke-linejoin="round"/>
</svg>
