<svg width="18" height="16" viewBox="0 0 18 16" fill="none" xmlns="http://www.w3.org/2000/svg">
<path d="M5.4496 2.27048C2.91969 2.27048 2.11182 3.1209 2.11182 4.88546C2.11182 6.65002 2.11182 8.18073 2.11182 8.8823C2.11182 9.58388 2.7318 10.9184 4.10515 10.9184C4.71554 10.9184 5.04253 10.9184 5.04253 10.9184C2.74684 10.9184 2.37503 9.82478 2.37503 8.8823C2.37503 7.93982 2.37503 7.57752 2.37503 4.88546C2.37503 2.73182 4.42474 2.24479 5.4496 2.27048ZM5.4496 2.27048C7.97952 2.27048 11.7327 2.27048 13.0181 2.27048M13.0181 2.27048C15.6877 2.27048 15.8031 3.37602 15.8882 5.05554C15.9732 6.73506 16.0795 8.22325 16.1007 9.24373M13.0181 2.27048C15.6877 2.27048 15.7693 2.79695 15.8543 4.47647M16.1007 9.24373C16.122 10.2642 15.2079 10.9184 14.5275 10.9184C13.8472 10.9184 13.0181 10.9184 13.0181 10.9184C13.7572 11.08 15.1656 11.243 15.6877 10.7054C16.3403 10.0333 16.2823 9.37345 16.2306 8.8823C16.1789 8.39116 15.8733 4.85942 15.8543 4.47647M16.1007 9.24373C16.0795 8.22325 15.9393 6.15599 15.8543 4.47647" stroke="black" stroke-width="3" stroke-linecap="round" stroke-linejoin="round"/>
<path d="M5.25488 14.4875L8.90101 12.2449L12.4543 14.3376L5.25488 14.4875Z" fill="black" stroke="black" stroke-width="3" stroke-linecap="round" stroke-linejoin="round"/>
</svg>
