<svg width="20" height="20" viewBox="0 0 20 20" fill="none" xmlns="http://www.w3.org/2000/svg">
<path d="M2.66195 17.7737C2.8041 15.5997 2.61326 12.2393 2.66195 11.3057C2.69737 10.6266 2.40283 7.17677 2.40283 4.80504C2.40283 1.53854 4.28053 2.69045 6.85905 2.69045H13.9629C16.0443 2.69045 17.1908 2.13789 17.2049 5.68175M17.2049 5.68175C17.2052 5.77786 17.2053 5.87471 17.2051 5.97224M17.2049 5.68175C17.2049 5.77935 17.2049 5.87618 17.2051 5.97224M17.2051 5.97224C17.1947 10.2459 16.6151 15.8263 17.5795 18.005C17.7256 17.9198 17.9959 17.6909 17.9082 17.457C17.7998 17.1679 17.2176 14.829 17.2051 5.97224ZM12.5013 6.12073H8.30244C7.2385 6.12073 5.95107 6.12076 6.06318 7.54529C6.17529 8.96983 6.18484 8.49705 6.18484 9.02174M12.5013 6.12073C12.6465 6.12073 12.7814 6.12994 12.9015 6.15401M12.5013 6.12073C12.6544 6.12073 12.7869 6.13268 12.9015 6.15401M12.9015 6.15401C13.2446 6.22272 13.4676 6.41253 13.4676 6.8548V8.44107C13.4676 9.48614 12.3333 9.89735 11.643 9.89735H6.82805C6.32397 9.89735 6.18484 9.54643 6.18484 9.02174M12.9015 6.15401C13.7513 6.31204 13.6212 6.98452 13.6212 7.11607V9.61678C13.6212 9.78473 13.2853 10.2326 12.5013 10.2326C11.7173 10.2326 7.05219 10.2699 6.67895 10.2326C6.30571 10.1953 6.18484 9.89735 6.18484 9.02174M6.40569 17.3096C6.40569 17.3096 13.3326 17.486 13.4674 17.3096C13.6023 17.1332 13.5938 13.533 13.5938 13.533M6.40569 17.3096C7.91402 17.4399 10.015 17.5251 11.34 17.5251C12.665 17.5251 13.8593 17.5336 13.878 17.1332C13.8967 16.7329 13.8142 14.2281 13.5938 13.533M6.40569 17.3096V14.9498C6.40569 12.9902 7.38362 13.533 7.75686 13.533H9.11919M6.40569 17.3096C6.60103 16.4608 6.5289 16.2673 6.61847 15.6402C6.71179 14.0166 7.34256 13.533 9.11919 13.533M13.5938 13.533H9.11919" stroke="black" stroke-width="3" stroke-linecap="round" stroke-linejoin="round"/>
</svg>
