<svg width="18" height="17" viewBox="0 0 18 17" fill="none" xmlns="http://www.w3.org/2000/svg">
<path d="M9.45444 2.22223C8.86778 2.50001 5.53613 5.51816 4.46778 6.49764C2.47232 8.3271 2.41444 8.15243 2.41444 8.33334C2.41444 8.45346 4.04088 9.47753 5.53521 10.8724C7.49658 12.7031 9.45444 15 9.45444 15C10.3277 15 7.04163 11.1691 6.72831 10.8724C5.08648 9.31759 4.11843 9.59848 3.8251 9.04293C3.59043 8.59848 7.59667 4.07409 9.74778 2.22223L9.45444 2.22223ZM3.30895 8.33334C6.39776 8.21194 13.7107 8.62737 15.5854 7.96913C16.4718 8.73079 7.24302 10.0709 3.30895 8.33334Z" stroke="black" stroke-width="3" stroke-miterlimit="10" stroke-linecap="round" stroke-linejoin="round"/>
</svg>
