<svg width="16" height="18" viewBox="0 0 16 18" fill="none" xmlns="http://www.w3.org/2000/svg">
<path fill-rule="evenodd" clip-rule="evenodd" d="M6.09342 14.5299C5.61815 14.939 5.44758 15.6007 5.66579 16.1886C5.884 16.7765 6.44493 17.1667 7.07206 17.1667H7.36539C7.5874 17.1667 7.80664 17.1174 8.0073 17.0224C8.79774 16.6481 10.6536 15.4032 12.257 14.1381C13.0751 13.4926 13.8909 12.7926 14.5162 12.14C14.8267 11.8159 15.1245 11.4682 15.3543 11.1167C15.5521 10.814 15.8471 10.2922 15.8471 9.66668C15.8471 9.33004 15.7506 9.05141 15.6851 8.89051C15.6117 8.70994 15.5202 8.54185 15.4326 8.39693C15.2573 8.10688 15.0295 7.79846 14.7892 7.49783C14.3041 6.89094 13.6656 6.18906 13.0188 5.51172C11.721 4.15285 10.2929 2.79241 9.74536 2.29464C9.19137 1.79101 8.79882 1.48022 8.52089 1.28496C8.38101 1.18669 8.26372 1.11312 8.16371 1.05728C8.11334 1.02916 8.06575 1.00464 8.02038 0.983275C7.99761 0.972556 7.97512 0.962499 7.95285 0.953093C7.9417 0.948385 7.93057 0.943823 7.91944 0.939408L7.90273 0.93289L7.89436 0.929708L7.89017 0.928138L7.88808 0.927357C7.88743 0.927115 7.88678 0.926871 7.762 1.26282L7.76161 1.26265L7.88598 0.926579C7.71934 0.864913 7.54307 0.833344 7.36539 0.833344C7.01781 0.833344 6.75821 0.94961 6.63633 1.01257C6.49948 1.08325 6.39609 1.16089 6.33299 1.21211C6.207 1.31438 6.1101 1.4198 6.05599 1.48129C5.99498 1.55062 5.94459 1.61461 5.91143 1.65808C5.8941 1.68081 5.8796 1.70039 5.86862 1.71545L5.85451 1.73498L5.84936 1.74221L5.84727 1.74515L5.84635 1.74646L5.84592 1.74706L5.84572 1.74736C5.84562 1.7475 5.84552 1.74764 7.07206 2.61112L5.84552 1.74764C5.52313 2.20558 5.4827 2.80497 5.74066 3.30206C5.90233 3.61358 6.16433 3.85241 6.47525 3.9873C6.51663 4.02305 6.57359 4.07459 6.64732 4.14528C6.89452 4.38228 7.21465 4.72213 7.56514 5.10708C7.77223 5.33453 8.00024 5.59005 8.22544 5.84242C8.68932 6.36228 9.1413 6.86879 9.374 7.08916C9.57087 7.27559 9.76387 7.46181 9.9514 7.64592C8.64931 7.63172 7.27741 7.6295 6.02944 7.64344C4.80486 7.65711 3.67778 7.68654 2.84629 7.7375C2.4379 7.76253 2.06051 7.79501 1.76737 7.8407C1.63248 7.86173 1.44224 7.89618 1.25695 7.95959C1.17333 7.98821 0.994312 8.05416 0.807366 8.18691C0.657898 8.29305 0.167357 8.68419 0.152918 9.41354C0.137037 10.2157 0.698891 10.6322 0.873856 10.7428C1.08123 10.8739 1.27721 10.9295 1.36055 10.9515C1.55165 11.0019 1.74672 11.0225 1.882 11.0337C2.17868 11.0582 2.56315 11.0646 2.97882 11.0625C3.82461 11.0582 4.97428 11.0172 6.20793 10.9659C6.74227 10.9437 7.29278 10.9196 7.84509 10.8954H7.84512C8.77454 10.8548 9.70903 10.8138 10.58 10.7814C10.4979 10.8518 10.414 10.9234 10.3286 10.996C9.68469 11.5433 8.91412 12.1802 8.17326 12.7925L8.17319 12.7926C7.38282 13.4459 6.62628 14.0712 6.09342 14.5299ZM6.40446 3.92964C6.40405 3.92934 6.40384 3.92921 6.40385 3.92922L6.40714 3.93157C6.40589 3.93065 6.405 3.93001 6.40446 3.92964Z" fill="black"/>
</svg>
