<svg width="16" height="18" viewBox="0 0 16 18" fill="none" xmlns="http://www.w3.org/2000/svg">
<path d="M11.2589 6.03145C12.3243 5.94749 13.0673 5.88771 13.0342 5.98711C12.8753 6.46363 13.9767 14.3924 13.4208 15.3455C12.8648 16.2986 3.17688 16.2191 2.46217 15.3455C1.8904 14.6465 2.7779 6.22802 3.16589 5.98711C3.2539 5.93246 3.72549 5.98113 4.44279 6.04793M11.2589 6.03145C10.2574 6.11039 8.97089 6.2107 7.77676 6.22019C6.47465 6.23054 5.28811 6.12664 4.44279 6.04793M11.2589 6.03145C11.2589 6.03145 10.9143 2.45506 9.96636 2.19648C9.01839 1.9379 6.08829 1.8518 5.57121 2.19647C5.05413 2.54115 4.44279 6.04793 4.44279 6.04793" stroke="black" stroke-width="3" stroke-linecap="round" stroke-linejoin="round"/>
</svg>
