<svg width="18" height="19" viewBox="0 0 18 19" fill="none" xmlns="http://www.w3.org/2000/svg">
<path d="M3.87865 16.1626C4.01706 16.2733 5.49456 16.3839 7.30234 16.4439M3.87865 16.1626C3.39876 15.7789 2.94717 14.316 2.62159 12.7938M3.87865 16.1626C4.35855 16.5463 6.72446 16.9383 9.24414 16.983C11.7638 17.0276 13.6177 17.2061 14.7781 16.4814C15.7063 15.9016 15.9006 11.3717 15.8817 9.17922M15.8817 9.17922C15.8817 9.3856 15.7521 10.907 15.5051 12.4815M15.8817 9.17922C15.8817 9.04473 14.5014 8.95284 12.615 8.90354M7.30234 16.4439L6.42261 8.8815M7.30234 16.4439C8.50139 16.4836 9.84575 16.5011 11.041 16.4814M6.42261 8.8815C6.06453 8.88753 5.71734 8.89488 5.38577 8.90354M6.42261 8.8815C7.98111 8.85523 10.1843 8.86118 11.7638 8.88476M11.7638 8.88476L11.041 16.4814M11.7638 8.88476C12.0564 8.89012 12.341 8.89638 12.615 8.90354M11.7638 8.88476C11.6195 8.88211 11.9117 8.88697 11.7638 8.88476ZM11.7638 8.88476C12.3276 6.71487 11.8891 3.81756 11.3253 3.15413C10.4079 2.07456 7.39134 2.68755 6.23499 3.15413M11.041 16.4814C12.6539 16.4549 13.9954 16.3607 14.342 16.1626C14.8514 15.8716 15.2439 14.1468 15.5051 12.4815M2.62159 12.7938C2.31382 11.3548 2.11865 9.86271 2.11865 9.17922C2.11865 9.04474 3.49918 8.95284 5.38577 8.90354M2.62159 12.7938L15.5051 12.4815M5.38577 8.90354C5.60656 6.73615 5.16765 4.31666 6.23499 3.15413M6.23499 3.15413C7.30234 1.99159 10.4455 2.30579 11.3253 2.71427C12.2051 3.12275 12.5935 6.78806 12.615 8.90354" stroke="black" stroke-width="3" stroke-linecap="round" stroke-linejoin="round"/>
</svg>
