<svg width="16" height="16" viewBox="0 0 16 16" fill="none" xmlns="http://www.w3.org/2000/svg">
<path d="M8.0001 1.62201C6.98411 1.62201 6.00973 2.02561 5.29132 2.74402C4.5596 3.47574 4.45268 5.97603 4.18916 7.00653C3.70222 8.9107 3.34981 9.54772 2.25391 11.199H3.23284H13.7463M8.0001 1.62201C9.01609 1.62201 10.946 3.34862 11.1986 6.44665C11.5143 10.3192 11.3824 10.8657 13.7463 11.199M8.0001 1.62201C10.5704 1.62201 11.2225 3.87816 11.4855 5.94471C11.969 10.5537 13.7463 11.199 13.7463 11.199" stroke="black" stroke-width="3" stroke-miterlimit="10" stroke-linecap="round" stroke-linejoin="round"/>
<path d="M9.1046 13.7528C8.87152 14.1546 8.5235 14.4285 8.03172 14.3702C7.53993 14.3119 7.14018 14.1746 6.89551 13.7528" stroke="black" stroke-width="3" stroke-miterlimit="10" stroke-linecap="round" stroke-linejoin="round"/>
</svg>
