<svg width="21" height="18" viewBox="0 0 21 18" fill="none" xmlns="http://www.w3.org/2000/svg">
<path d="M4.33159 10.0148C3.3362 9.95033 2.19888 11.7799 2.28351 13.1702C2.36813 14.5604 3.20421 16.1255 4.33159 16.1297M4.33159 10.0148C5.32698 10.0794 6.74155 11.63 6.66042 13.1702C6.57929 14.7103 5.45897 16.1339 4.33159 16.1297M4.33159 10.0148C5.33861 10.0801 7.28342 10.8025 7.00653 13.1702C6.66042 16.1297 5.45897 16.1339 4.33159 16.1297" stroke="black" stroke-width="3" stroke-linecap="round" stroke-linejoin="round"/>
<path d="M16.3091 10.5438C14.7559 10.4543 14.0637 12.0727 13.9464 13.1497C13.8291 14.2267 14.6668 16.195 16.3091 16.4504M16.3091 10.5438C17.8623 10.6334 19.0818 11.4042 18.9957 13.1497C18.9096 14.8952 17.9515 16.7058 16.3091 16.4504M16.3091 10.5438C17.6407 10.5438 19.4319 10.9888 19.3466 13.4315C19.2613 15.8742 17.6196 16.6542 16.3091 16.4504" stroke="black" stroke-width="3" stroke-linecap="round" stroke-linejoin="round"/>
<path d="M6.82101 6.1867C6.82101 6.1867 10.2145 11.2427 11.3814 11.5571M6.82101 6.1867C6.82101 6.1867 10.4298 6.70392 15.091 6.1867M6.82101 6.1867V2.73058C6.82101 2.73058 3.94988 2.06894 4.6298 2.25279C5.30971 2.43665 7.18518 2.65722 9.39156 2.25279M6.82101 6.1867C6.82101 9.10539 5.87646 9.71103 5.40944 10.3058M11.3814 11.5571L15.091 6.1867M11.3814 11.5571L14.0876 12.522M15.091 6.1867C15.091 6.1867 15.3733 8.70229 16.1191 10.3058C15.8705 9.2692 15.3733 6.99408 15.3733 6.1867C15.3733 5.37931 15.3733 3.83424 15.3733 3.16264M15.091 6.1867L15.3733 3.16264M15.3733 3.16264L17.2415 2.65313C16.2067 2.05869 15.3733 2.65315 13.5352 2.73058C13.7574 2.97975 14.6232 3.16264 15.3733 3.16264Z" stroke="black" stroke-width="3" stroke-linecap="round" stroke-linejoin="round"/>
</svg>
