<svg width="16" height="16" viewBox="0 0 16 16" fill="none" xmlns="http://www.w3.org/2000/svg">
<path d="M13.7371 8.99365C13.0786 11.9192 7.64705 14.3884 7.64705 14.3884M13.7371 8.99365C12.1668 8.5118 2.26244 6.34571 2.26244 6.34571M13.7371 8.99365C13.7371 10.5761 12.3314 12.251 10.7729 13.251C9.00007 14.3884 8.60209 14.2005 7.64705 14.3884M7.64705 14.3884V1.61151M7.64705 14.3884C7.89536 13.0805 8.37677 9.96889 8.31599 7.98639C8.24001 5.50827 7.64705 1.81054 7.64705 1.61151M7.64705 1.61151C7.64705 1.61151 11.3897 2.13816 12.9347 2.89536C12.2255 5.54558 2.94481 11.8823 2.94481 11.8823" stroke="black" stroke-width="3" stroke-miterlimit="10" stroke-linecap="round" stroke-linejoin="round"/>
</svg>
