<svg width="16" height="16" viewBox="0 0 16 16" fill="none" xmlns="http://www.w3.org/2000/svg">
<path d="M5.6245 3.87507C6.32154 2.57382 10.2132 1.79013 10.6835 3.89903C11.1538 6.00794 9.68957 7.57757 8.22231 7.86139C8.22231 7.86139 9.2461 7.4535 10.1428 7.61568C11.0396 7.77787 11.9716 8.09496 12.1073 9.03224C12.3337 10.5969 11.6712 12.6922 9.67746 13.1357C7.68369 13.5792 5.35583 13.7858 4.73408 13.1357" stroke="black" stroke-width="3" stroke-miterlimit="10" stroke-linecap="round" stroke-linejoin="round"/>
<path d="M6.78636 10.5326C6.78636 9.43121 6.58069 5.89358 6.27184 5.00056C5.98271 5.36147 6.26264 9.11016 6.27209 10.579C6.37679 10.923 6.78636 10.579 6.78636 10.5326Z" stroke="black" stroke-width="3" stroke-miterlimit="10" stroke-linecap="round" stroke-linejoin="round"/>
</svg>
