<svg width="16" height="18" viewBox="0 0 16 18" fill="none" xmlns="http://www.w3.org/2000/svg">
<path d="M8.15247 13.5804C8.39454 13.7783 8.67491 14.015 8.97403 14.2674L8.98394 14.2758L9.00595 14.2944C9.48073 14.6952 10.0334 15.1617 10.4081 15.4195L10.4116 15.4219C10.4647 15.4585 10.5847 15.541 10.7213 15.6107C10.8258 15.664 11.2031 15.854 11.7 15.7893C12.3411 15.7059 12.7178 15.283 12.8901 14.9725C13.032 14.7165 13.082 14.4662 13.1031 14.349C13.189 13.8724 13.2274 13.0704 13.2476 12.2324C13.2688 11.3507 13.2715 10.299 13.2614 9.24754C13.2415 7.16938 13.1708 4.99246 13.0832 4.10655C13.0831 4.10534 13.0828 4.10236 13.0824 4.0979C13.0795 4.06601 13.0698 3.95845 13.0593 3.88297C13.0451 3.78198 13.0096 3.55972 12.8911 3.31596C12.7543 3.0349 12.5451 2.79904 12.2803 2.62847C12.0466 2.47795 11.8179 2.40966 11.6676 2.3742C11.2866 2.28434 10.7575 2.23688 10.2537 2.20641C9.7162 2.17389 9.09084 2.15495 8.45863 2.14654C7.20068 2.12981 5.85159 2.15402 5.03006 2.20637C4.82397 2.2195 4.52758 2.2431 4.24372 2.32803C3.90341 2.42985 3.46574 2.65447 3.1749 3.14145C2.941 3.53309 2.91072 3.93344 2.89949 4.08189L2.89943 4.08265C2.89293 4.16857 2.88675 4.32703 2.8819 4.45136C2.87946 4.5138 2.87736 4.56764 2.87572 4.59936C2.81889 5.7011 2.75981 7.62732 2.74006 9.47835C2.72077 11.2853 2.73625 13.1624 2.85215 14.0836C2.86419 14.1793 2.8864 14.3495 2.93307 14.524C2.97414 14.6776 3.08165 15.0297 3.38597 15.3407C3.76475 15.7277 4.25961 15.8679 4.70675 15.8353C5.07119 15.8087 5.36375 15.6729 5.53281 15.5835C6.06677 15.301 6.76198 14.7355 7.28751 14.3007C7.45827 14.1594 7.61906 14.025 7.76865 13.9C7.90639 13.7849 8.03465 13.6778 8.15247 13.5804ZM8.69975 13.1484C8.69972 13.1485 8.6979 13.1497 8.69438 13.152C8.69802 13.1494 8.69978 13.1483 8.69975 13.1484Z" stroke="black" stroke-width="3" stroke-linecap="round" stroke-linejoin="round"/>
</svg>
