<svg width="18" height="16" viewBox="0 0 18 16" fill="none" xmlns="http://www.w3.org/2000/svg">
<path d="M8.87152 11.9045C7.79477 10.3631 3.25505 12.0912 2.8347 11.9045C2.41434 11.7178 2.83499 3.38716 2.83499 3.38716C2.83499 2.94661 8.67574 1.69391 9.03466 3.72576M8.87152 11.9045C10.4051 10.3631 14.9974 12.0903 15.2014 11.9045C15.4054 11.7186 15.4868 3.46873 15.2014 3.15006C14.916 2.83139 9.75249 1.72781 9.03466 3.72576M8.87152 11.9045L9.03466 3.72576M8.87152 11.9045L9.226 11.3256C9.226 11.3256 9.226 10.2867 9.226 7.94244C9.226 5.59819 9.03466 3.72576 9.03466 3.72576" stroke="black" stroke-width="3" stroke-linecap="round" stroke-linejoin="round"/>
<path d="M15.4986 3.69189C15.9316 3.69189 16.0644 3.76135 16.0979 4.0043C16.1315 4.24726 16.0979 12.6472 16.0979 13.029C16.0979 13.3345 10.9595 12.5689 10.7663 12.6863C10.573 12.8038 9.60663 13.4415 8.86575 13.4415C7.97992 13.4415 7.30499 12.7702 6.96524 12.7702C6.61997 12.7702 2.2173 13.2205 2.17335 12.7702C1.87242 9.68682 1.88725 7.5641 1.88731 4.31299C1.88732 4.13308 2.34194 4.00428 2.82161 4.00428" stroke="black" stroke-width="3" stroke-linecap="round" stroke-linejoin="round"/>
</svg>
