<svg width="16" height="16" viewBox="0 0 16 16" fill="none" xmlns="http://www.w3.org/2000/svg">
<path d="M8.88688 9.39203C10.0093 8.43382 9.91744 7.79925 9.03033 6.76008C8.62414 6.28425 7.14101 6.65442 6.82206 6.97327C6.50311 7.29212 5.99534 8.02289 6.28896 8.88663C6.47994 9.44846 7.76441 10.3502 8.88688 9.39203Z" fill="black"/>
<path d="M12.0895 5.33608C12.287 5.14278 12.247 4.88486 12.664 4.92124M4.03662 9.48048C3.64424 9.63526 3.75497 9.62946 3.11523 9.83962M11.1936 10.3143C11.1936 10.3143 11.7704 10.7056 12.0654 10.9031M7.45423 12.5534C7.36183 13.1313 7.34683 13.1051 7.30201 13.318M8.78708 2.81653C8.60402 3.19316 8.63024 3.49813 8.60451 3.76318M4.08987 4.89911C4.24496 5.07635 4.38514 5.19252 4.63916 5.37738" stroke="black" stroke-width="3" stroke-miterlimit="10" stroke-linecap="round" stroke-linejoin="round"/>
</svg>
