<svg width="18" height="18" viewBox="0 0 18 18" fill="none" xmlns="http://www.w3.org/2000/svg">
<path d="M11.5819 10.4517C12.3495 8.96651 11.3615 7.09083 10.4093 6.47516C9.45721 5.85949 7.40521 5.84575 6.27858 6.90429C5.15194 7.96282 5.49706 10.7685 6.2789 11.4087C7.2562 12.209 10.1395 13.2425 11.5819 10.4517Z" fill="black"/>
<path fill-rule="evenodd" clip-rule="evenodd" d="M8.31157 0.102478C9.13087 -0.0201326 9.89445 0.544649 10.0171 1.36395C10.0922 1.86602 10.0939 2.52062 10.0893 2.98801C10.0877 3.14722 10.0849 3.30969 10.0825 3.44916C10.0813 3.52177 10.0801 3.58814 10.0793 3.64459C10.0778 3.7495 10.0779 3.81266 10.0779 3.84587V3.8459V3.84592C10.0779 3.86692 10.0779 3.87594 10.0775 3.87595C10.0772 3.87597 10.0767 3.87096 10.0758 3.86219L10.0758 3.86209L10.0758 3.86181C10.1596 4.68598 9.55947 5.42208 8.7353 5.50593C7.91113 5.58978 7.17503 4.98963 7.09118 4.16546C7.07396 3.99618 7.07733 3.76241 7.07943 3.61668V3.61666L7.07965 3.60182C7.0807 3.52762 7.082 3.45319 7.08332 3.37678L7.08333 3.37662L7.08333 3.37635V3.37635C7.0856 3.24583 7.08797 3.10952 7.08944 2.95873C7.09427 2.46345 7.08477 2.03968 7.0501 1.80796C6.92748 0.98866 7.49227 0.225088 8.31157 0.102478ZM15.9032 4.59414C16.4707 3.99062 16.4415 3.04132 15.8379 2.47382C15.2344 1.90633 14.2851 1.93553 13.7176 2.53905C13.5162 2.75329 13.3117 2.902 12.9996 3.12895C12.9176 3.18857 12.8282 3.25359 12.7294 3.32662C12.3039 3.64132 11.7251 4.09804 11.3084 4.83258C10.8996 5.55314 11.1524 6.46864 11.8729 6.8774C12.5935 7.28617 13.509 7.03341 13.9178 6.31285C14.0088 6.15246 14.1543 6.00418 14.5134 5.73859C14.5626 5.70213 14.6189 5.66163 14.6806 5.61717C15.0073 5.38199 15.4875 5.03619 15.9032 4.59414ZM1.29699 11.398C0.568179 11.7918 0.296654 12.7019 0.690519 13.4307C1.08438 14.1596 1.99449 14.4311 2.7233 14.0372C2.98531 13.8956 3.37675 13.7431 3.85986 13.5604L3.9589 13.5231L3.95891 13.523C4.3357 13.3813 4.87149 13.1797 5.21924 12.9647C5.92385 12.529 6.14187 11.6046 5.7062 10.9C5.27053 10.1954 4.34615 9.97737 3.64153 10.413L3.64143 10.4131L3.64142 10.4131C3.63838 10.4148 3.57348 10.4501 3.39696 10.5228C3.23769 10.5883 3.05036 10.6591 2.82627 10.7439L2.79842 10.7544L2.77695 10.7626L2.77693 10.7626L2.77692 10.7626L2.77688 10.7626L2.77687 10.7626L2.77683 10.7626C2.3472 10.9251 1.76329 11.146 1.29699 11.398ZM11.9665 10.5966C12.263 9.82306 13.1304 9.4363 13.904 9.73277C15.0566 10.1745 16.1685 10.6447 16.5894 10.8286C17.3486 11.1601 17.6953 12.0443 17.3637 12.8035C17.0322 13.5627 16.1479 13.9094 15.3888 13.5778C15.001 13.4085 13.9322 12.9563 12.8304 12.5341C12.0568 12.2376 11.6701 11.3702 11.9665 10.5966ZM10.4857 13.849C10.3724 13.0284 9.61528 12.455 8.79464 12.5683C7.974 12.6816 7.4006 13.4387 7.51392 14.2594C7.59956 14.8796 7.76816 16.3439 7.7866 16.5488C7.86086 17.3739 8.58993 17.9826 9.41502 17.9083C10.2401 17.8341 10.8488 17.105 10.7745 16.2799C10.7507 16.0147 10.5758 14.5012 10.4857 13.849ZM2.7008 4.18511C1.96543 3.80363 1.06005 4.09051 0.678574 4.82588C0.297097 5.56125 0.583983 6.46663 1.31935 6.84811C2.00453 7.20355 2.90349 7.71765 3.16258 7.86798C3.87914 8.28372 4.79705 8.03986 5.21279 7.32331C5.62853 6.60675 5.38467 5.68884 4.66812 5.2731C4.40003 5.11756 3.45118 4.57437 2.7008 4.18511Z" fill="black"/>
</svg>
