<svg width="19" height="17" viewBox="0 0 19 17" fill="none" xmlns="http://www.w3.org/2000/svg">
<path d="M3.95756 8.84722C3.83656 11.7967 4.17767 12.2426 4.45156 12.947C4.50246 13.0779 5.1181 13.2562 5.47524 13.3427M3.95756 8.84722C6.29273 8.67377 12.196 8.43093 15.498 8.84722M3.95756 8.84722C3.99032 8.04873 4.16701 5.3173 4.30656 3.64326M15.498 8.84722C15.5091 11.9506 15.0902 12.504 15.0902 12.947C15.0902 13.0123 14.9007 13.1002 14.6386 13.1808M15.498 8.84722C15.4946 7.90375 15.405 5.35575 15.2906 3.64326M5.47524 13.3427C5.47524 14.0129 5.47524 15.016 5.73652 15.0555C6.2688 15.1358 6.34339 15.1996 6.34339 14.7576C6.34339 14.3156 6.34339 13.6426 6.34339 13.4572M5.47524 13.3427C5.79955 13.4212 5.84276 13.4116 6.34339 13.4572M6.34339 13.4572C8.16887 13.6235 12.3475 13.4197 12.8547 13.4197M12.8547 13.4197C12.8547 13.4197 12.825 15.0381 12.945 15.1895C13.065 15.3409 13.8464 15.4467 13.9428 15.1895C14.0393 14.9323 13.983 13.9375 13.9428 13.3427M12.8547 13.4197C13.362 13.4197 13.5745 13.4039 13.9428 13.3427M13.9428 13.3427C14.1816 13.303 14.4325 13.2442 14.6386 13.1808M15.2906 3.64326C15.2279 2.70613 15.1578 2.01921 15.0902 1.98236C15.0279 1.94835 14.8708 1.91789 14.6386 1.89135M15.2906 3.64326C15.6155 3.56519 16.3866 3.62879 16.7807 3.64326M4.30656 3.64326C4.36656 2.92346 4.41969 2.39914 4.45156 2.30804C5.13194 1.7247 12.6475 1.66378 14.6386 1.89135M4.30656 3.64326C3.92682 3.51749 3.20454 3.53376 2.69617 3.64326M2.69617 3.64326C2.38468 3.71035 2.1535 3.81244 2.13062 3.93831C2.07038 4.2696 2.13055 5.21018 2.26186 6.23476C2.39641 6.37898 2.69047 6.58089 2.79041 6.23476C2.91532 5.8021 2.60193 3.66205 2.69617 3.64326ZM16.7807 3.64326C17.1997 3.65864 17.2331 3.63316 17.2642 3.83241C17.3244 4.21904 17.3775 5.72684 17.2642 6.49227C16.9783 6.5781 16.7307 6.69828 16.7807 6.49227C16.8431 6.23476 16.7807 3.99532 16.7807 3.64326ZM14.6386 1.89135C14.8802 2.30804 15.2882 12.1561 14.6386 13.1808" stroke="black" stroke-width="3" stroke-linecap="round" stroke-linejoin="round"/>
</svg>
