<svg width="21" height="21" viewBox="0 0 21 21" fill="none" xmlns="http://www.w3.org/2000/svg">
<path d="M17.2245 5.21361C16.9704 5.10016 16.6977 5.0506 16.5421 5.02504C16.3479 4.99311 16.1267 4.96798 15.8953 4.9473C15.4301 4.90574 14.847 4.87563 14.201 4.85413C12.9046 4.81099 11.2839 4.80035 9.69642 4.81232C8.10788 4.8243 6.53612 4.85904 5.33505 4.90803C4.73703 4.93242 4.21616 4.96092 3.82615 4.99328C3.63453 5.00918 3.45057 5.02792 3.29602 5.05128C3.22155 5.06253 3.1236 5.07929 3.0224 5.10508C2.97225 5.11787 2.8957 5.13926 2.8086 5.17318C2.74471 5.19806 2.55969 5.27239 2.36946 5.43086C2.03154 5.71237 1.90958 6.06806 1.88837 6.12992C1.88751 6.13242 1.88681 6.13444 1.88628 6.13596C1.84339 6.25731 1.81798 6.36994 1.80277 6.4456C1.77106 6.60338 1.74905 6.77934 1.7323 6.94473C1.69784 7.28495 1.67142 7.72811 1.65103 8.22145C1.60993 9.21566 1.58983 10.5039 1.58984 11.781C1.58986 13.058 1.60999 14.344 1.65112 15.3337C1.67152 15.8246 1.69798 16.2655 1.73259 16.603C1.74936 16.7666 1.77165 16.9429 1.8043 17.1015C1.81981 17.1768 1.8467 17.2938 1.8934 17.4203C1.91683 17.4838 1.95742 17.5834 2.02302 17.6946C2.07976 17.7908 2.21257 17.9956 2.45809 18.1709C2.73372 18.3676 3.02843 18.4346 3.09499 18.4497C3.09798 18.4504 3.10051 18.451 3.10256 18.4515C3.22401 18.4798 3.34842 18.4994 3.45599 18.5138C3.67561 18.5432 3.94142 18.566 4.21961 18.5846C4.7822 18.6223 5.49332 18.6491 6.19928 18.6683C7.61532 18.7067 9.07844 18.7164 9.44649 18.7164C10.2239 18.7164 12.1146 18.6777 13.84 18.6253C14.7052 18.5991 15.5398 18.569 16.1819 18.5381C16.5014 18.5227 16.7835 18.5066 17.0014 18.4899C17.109 18.4817 17.2144 18.4723 17.3067 18.4612C17.3083 18.4611 17.3105 18.4608 17.3133 18.4605C17.3598 18.4552 17.5619 18.4323 17.7568 18.3627C18.1387 18.2263 18.3581 17.978 18.4493 17.8612C18.5521 17.7296 18.6135 17.6073 18.6458 17.5368C18.711 17.3945 18.7471 17.2634 18.7659 17.1893C18.8067 17.0281 18.8349 16.8509 18.8559 16.6931C18.8997 16.3638 18.936 15.9327 18.9644 15.4505C19.0216 14.4784 19.0522 13.2022 19.0317 11.914C19.0113 10.6346 18.9398 9.29358 18.7814 8.21066C18.7032 7.67624 18.5951 7.14099 18.4349 6.68797C18.3549 6.46162 18.2443 6.20452 18.0847 5.96379C17.9323 5.73383 17.6629 5.40927 17.2245 5.21361Z" stroke="black" stroke-width="3" stroke-linecap="round" stroke-linejoin="round"/>
<path d="M5.65139 6.77528C5.4402 6.26867 5.1871 3.24812 5.65139 2.48822M13.8415 6.77528C14.0385 5.4384 14.0779 3.16369 13.8415 2.48822M2.13257 10.3458C3.93383 10.3458 8.46365 10.1295 9.6795 10.1295C11.1993 10.1295 15.9944 10.4673 18.6118 10.1295" stroke="black" stroke-width="3" stroke-linecap="round" stroke-linejoin="round"/>
<path d="M14.3398 13.7C14.3398 13.7 13.1234 13.6145 12.44 13.7C12.44 13.7 12.2791 14.9802 12.3594 15.061C12.4397 15.1418 14.1106 15.1284 14.2589 14.9667C14.4072 14.805 14.3398 13.7 14.3398 13.7Z" stroke="black" stroke-width="3" stroke-linecap="round" stroke-linejoin="round"/>
</svg>
