<svg width="18" height="18" viewBox="0 0 18 18" fill="none" xmlns="http://www.w3.org/2000/svg">
<path d="M13.9965 2.74491C14.3136 2.82821 14.5649 2.9209 14.7249 3.01935C15.9211 3.75543 16.1498 10.4153 15.7894 11.2999C15.6822 11.5629 15.507 11.7701 15.2882 11.9313M13.9965 2.74491C11.9424 2.20543 7.12767 2.05997 6.49005 3.29537C5.75397 4.72153 5.66196 6.3468 5.20191 7.45092C4.74186 8.55503 1.81578 8.94091 1.79776 9.84317C1.77973 10.7454 1.8898 11.3613 2.25772 12.0514C2.33375 12.194 3.93029 12.299 3.93029 12.299M13.9965 2.74491C15.8878 3.29537 16.1322 10.7721 15.2882 11.9313M15.2882 11.9313C14.9949 12.1476 14.7652 12.2326 14.4237 12.299M3.93029 12.299C3.29872 12.9306 3.24827 14.4822 3.4209 14.7124C3.59354 14.9426 4.46071 15.6661 5.47538 15.6661C6.49005 15.6661 6.88543 14.8897 7.1564 14.3162C7.42737 13.7427 6.70361 12.299 6.70361 12.299M3.93029 12.299C4.4397 11.8791 6.10367 11.8342 6.70361 12.299M6.70361 12.299C8.25481 12.299 10.8286 12.6215 11.5969 12.5267M11.5969 12.5267C11.9354 12.0003 12.7269 11.8342 12.9629 11.8342C13.2567 11.8342 14.0742 11.9939 14.4237 12.299M11.5969 12.5267C11.1684 13.193 11.202 14.4813 11.4926 14.9266C11.7832 15.3719 12.4599 15.8512 13.3321 15.8512C14.2044 15.8512 15.0024 15.0594 15.1731 14.0254C15.3438 12.9915 14.4237 12.299 14.4237 12.299" stroke="black" stroke-width="3" stroke-linecap="round" stroke-linejoin="round"/>
</svg>
