<svg width="18" height="18" viewBox="0 0 18 18" fill="none" xmlns="http://www.w3.org/2000/svg">
<path d="M2.48804 1.85669C3.29759 1.85671 4.03953 2.05911 4.30933 2.16028L4.88901 5.02672M4.88901 5.02672L5.86636 8.62973M4.88901 5.02672C7.91236 5.13606 13.3516 4.75496 15.3318 4.87415M5.86636 8.62973L5.32315 10.5291M5.86636 8.62973C6.0883 9.03671 6.39154 9.97511 7.42036 10.0147C8.33729 10.0499 12.3642 10.3789 14.1297 9.80742M9.8737 14.7393C10.5313 14.6888 10.8172 14.7393 11.0701 14.7393M15.3318 4.87415C15.7513 4.8994 16.0156 4.94712 16.0687 5.02672C16.3722 5.482 16.2982 7.97165 15.8092 9.53984C15.7152 9.63382 14.4589 9.72922 14.1632 9.79837M15.3318 4.87415C15.6329 6.42557 14.8869 9.55804 14.1632 9.79837M14.1632 9.79837C14.1501 9.80144 14.1388 9.80446 14.1297 9.80742M14.1632 9.79837C14.152 9.80208 14.1408 9.8051 14.1297 9.80742M5.00915 14.0899C4.71216 14.824 4.97376 15.3657 5.6556 15.4706C6.33745 15.5755 6.96661 14.6667 6.77419 14.0899C6.58177 13.5132 5.30615 13.3559 5.00915 14.0899ZM14.5712 15.2869C15.2426 15.7067 15.8215 15.5431 16.0431 14.8898C16.2647 14.2365 15.4789 13.4592 14.8775 13.5486C14.2761 13.638 13.8998 14.867 14.5712 15.2869ZM14.9026 15.4452C15.5739 15.8651 15.9293 15.4583 16.1509 14.805C16.3725 14.1517 15.8103 13.6176 15.2089 13.707C14.6075 13.7964 14.2312 15.0254 14.9026 15.4452Z" stroke="black" stroke-width="3" stroke-linecap="round" stroke-linejoin="round"/>
</svg>
