<svg width="18" height="17" viewBox="0 0 18 17" fill="none" xmlns="http://www.w3.org/2000/svg">
<path d="M5.47171 1.92798C3.79985 1.92798 2.17023 2.17399 2.17974 2.68578C2.1904 3.2601 2.18463 3.99799 2.1848 5.69758C2.3363 5.80768 2.39765 5.8985 2.39765 5.69758C2.39765 4.36162 1.47396 1.92798 5.47171 1.92798ZM5.47171 1.92798C5.57396 1.92322 5.65192 1.92096 5.69812 1.92096M5.47171 1.92798C5.5452 1.92334 5.62065 1.92096 5.69812 1.92096M5.69812 1.92096L12.0546 1.92097C13.0762 1.92097 15.5158 2.35764 15.5158 4.6278M15.5158 4.6278V10.8707C15.5158 12.9517 14.6274 13.7903 13.341 13.7903H10.8144C11.2684 14.2445 12.9204 14.2032 14.0765 14.2032C15.2326 14.2032 15.8107 13.1297 16.0171 11.891C16.1823 10.9001 15.8738 7.35292 15.5158 4.6278ZM2.53646 9.31955C2.33656 9.31078 2.13627 9.31444 1.93701 9.33102C2.14457 9.31984 2.34429 9.3162 2.53646 9.31955ZM2.53646 9.31955C5.05722 9.43009 7.5164 11.5174 7.05733 14.6161M2.53646 9.31955C7.31371 9.40274 7.42894 13.8063 7.42894 14.2032C7.42894 14.6161 7.34636 14.9464 7.09862 15.0703M2.06767 12.9892C2.19241 12.8661 3.59726 13.2988 3.47405 13.9532C3.44649 14.0995 3.41217 14.1825 3.32827 14.3056C3.47405 13.6508 2.95117 13.0453 2.12305 12.9892" stroke="black" stroke-width="3" stroke-linecap="round" stroke-linejoin="round"/>
</svg>
