<svg width="18" height="18" viewBox="0 0 18 18" fill="none" xmlns="http://www.w3.org/2000/svg">
<path d="M9.21771 15.9081C11.0978 15.7106 12.7723 15.0783 13.9876 13.8873C15.2261 12.6735 15.8331 11.0305 15.8331 9.1384C15.8331 5.19646 12.8247 2.26721 9.00102 2.4203C7.00765 2.50011 5.22786 3.63021 4.00743 4.93263C2.81236 6.20799 1.8534 7.97447 1.92949 9.66544C1.99904 11.2111 2.76886 12.8495 3.98974 14.051C5.24171 15.2832 7.0528 16.1354 9.21771 15.9081Z" stroke="black" stroke-width="3" stroke-miterlimit="10" stroke-linecap="round" stroke-linejoin="round"/>
<path d="M5.76172 9.90935C6.21102 11.0276 7.36748 12.5266 8.06677 12.1834C8.76606 11.8401 11.6082 7.34399 11.6082 7.34399C11.3893 7.61891 8.96376 11.5993 8.67233 11.6305C8.30804 11.6695 5.76172 9.36326 5.76172 9.90935Z" stroke="black" stroke-width="3" stroke-linecap="round" stroke-linejoin="round"/>
</svg>
