<svg width="20" height="19" viewBox="0 0 20 19" fill="none" xmlns="http://www.w3.org/2000/svg">
<path d="M9.66438 16.9282C11.6474 16.9282 13.657 16.4077 15.1915 15.0683C16.7611 13.6982 17.6355 11.6446 17.6355 9C17.6355 4.42404 13.4734 1.7646 10.1122 2.0517C9.9274 2.06748 9.70218 2.08263 9.45525 2.09924C8.97306 2.13166 8.40807 2.16966 7.89993 2.22882C7.08245 2.324 6.15466 2.49388 5.28066 2.87511C4.38524 3.26567 3.52837 3.88662 2.91119 4.87105C2.29985 5.84618 2.00007 7.05604 2 8.49992C1.99986 11.241 2.74657 13.4038 4.21302 14.8792C5.67744 16.3526 7.64872 16.9282 9.66438 16.9282Z" stroke="black" stroke-width="3" stroke-miterlimit="10" stroke-linecap="round" stroke-linejoin="round"/>
<path d="M5.86185 6.91445C6.77039 7.81761 9.16637 9.1716 9.99974 10L12.1567 8.17349" stroke="black" stroke-width="3" stroke-miterlimit="10" stroke-linecap="round" stroke-linejoin="round"/>
</svg>
