<svg width="18" height="16" viewBox="0 0 18 16" fill="none" xmlns="http://www.w3.org/2000/svg">
<path d="M4.3696 11.8333C2.1404 11.8333 1.57225 6.98139 3.88891 5.18924M4.3696 11.8333C6.5988 11.8333 12.4125 11.8333 13.9424 11.8333C15.4722 11.8333 16.0843 10.1723 15.1664 8.77355C14.1672 7.25097 12.0191 7.66292 11.9318 8.07418C12.1099 7.23508 12.442 6.04762 11.3635 5.49522C10.285 4.94282 9.07519 5.84578 8.5223 6.45687C8.5223 4.88327 6.80057 2.9368 3.88891 5.18924M4.3696 11.8333C2.94436 10.0587 3.11278 8.78454 3.11278 8C3.11278 7.18983 3.58659 5.86831 3.88891 5.18924" stroke="black" stroke-width="3" stroke-miterlimit="10" stroke-linecap="round" stroke-linejoin="round"/>
</svg>
