<svg width="20" height="20" viewBox="0 0 20 20" fill="none" xmlns="http://www.w3.org/2000/svg">
<path d="M18 10.0052C18 14.4206 15.0778 18 10.0052 18C5.58986 18 2.0105 15.4496 2.0105 10.0052C2.0105 5.58986 5.58986 2.0105 10.0052 2.0105C14.8067 2.0105 18 4.94802 18 10.0052Z" stroke="black" stroke-width="3" stroke-linecap="round" stroke-linejoin="round"/>
<path fill-rule="evenodd" clip-rule="evenodd" d="M12.1575 12.3342C12.3537 12.1119 12.9972 10.6996 13.4702 9.09579C13.6653 8.43401 13.8314 7.73951 13.959 7.15232C14.0867 6.56515 13.3751 5.93512 12.9109 6.06618C11.0189 6.60035 7.73626 7.59293 7.31311 8.16058C6.86928 8.75599 6.42865 10.9231 6.04822 12.7943C5.93071 13.3741 6.47764 14.5594 7.80243 13.9571C9.89695 13.3309 11.8651 12.6652 12.1575 12.3342ZM10.1146 9.21741C10.5486 9.26563 10.8378 9.74784 10.7656 10.1095C10.6933 10.4712 10.0555 11.0903 9.59231 10.9297C9.23212 10.8049 8.98537 10.1743 9.2466 9.69962C9.43404 9.359 9.7296 9.3071 9.9295 9.272C10.0126 9.25741 10.0792 9.24573 10.1146 9.21741Z" fill="black"/>
</svg>
