<svg width="18" height="16" viewBox="0 0 18 16" fill="none" xmlns="http://www.w3.org/2000/svg">
<path d="M2.04199 6.36321C2.042 5.7865 2.0423 4.84905 2.0423 4.56018C2.04231 3.58255 2.33709 2.8212 3.41855 2.82118C4.50001 2.82117 14.5269 2.82117 15.1636 2.82117C15.8004 2.82116 16.0054 3.30621 16.0054 3.90077C16.0054 4.13871 15.9933 5.41782 16.0054 6.53515M2.04199 6.36321L16.0054 6.53515M2.04199 6.36321C2.04199 6.4762 2.04199 6.58949 2.04199 6.70269M16.0054 6.53515C16.0066 6.64933 16.0079 6.764 16.0093 6.87895M16.0054 6.53515L16.0093 6.87895M16.0093 6.87895C16.0282 8.45001 16.0579 10.0712 16.0054 11.141C15.992 11.4136 15.9492 12.0525 15.1636 12.0994C14.3781 12.1464 6.88399 12.3269 4.72107 12.3269C2.55814 12.3269 2.04168 11.0797 2.04199 9.95175C2.04219 9.22234 2.04201 7.96724 2.04199 6.70269M16.0093 6.87895L2.04199 6.70269" stroke="black" stroke-width="3" stroke-linecap="round" stroke-linejoin="round"/>
</svg>
