<svg width="16" height="16" viewBox="0 0 16 16" fill="none" xmlns="http://www.w3.org/2000/svg">
<path fill-rule="evenodd" clip-rule="evenodd" d="M12.2341 12.9006L11.4043 14.1502C11.9611 14.5199 12.6954 14.4767 13.2049 14.0441C13.7144 13.6115 13.8763 12.894 13.6018 12.2846C13.0364 11.0292 12.2071 10.1734 11.3983 9.40751C11.0376 9.06595 10.7218 8.77228 10.4369 8.50736C10.394 8.46752 10.3518 8.42833 10.3103 8.38972C11.0023 7.62501 11.7074 6.7919 12.2648 6.11858C12.6001 5.71354 12.8857 5.36184 13.0877 5.11105C13.1887 4.98559 13.269 4.88522 13.3243 4.81586L13.388 4.73576L13.4048 4.71452L13.4093 4.70884L13.4105 4.70726L13.4109 4.70679L13.411 4.70664C13.4111 4.70659 13.4111 4.70654 12.2342 3.77659L13.4111 4.70654C13.6204 4.44173 13.7342 4.11409 13.7342 3.77659C13.7342 3.46916 13.626 2.91779 13.0969 2.54347C12.6495 2.22693 12.1963 2.25873 12.0449 2.27652C11.7451 2.31173 11.5213 2.43268 11.4779 2.45616L11.4734 2.45858C11.3305 2.5347 11.2017 2.6285 11.1281 2.68348C10.9532 2.81412 10.7393 2.99251 10.5251 3.17951C10.0921 3.55753 9.55627 4.05991 9.14691 4.4922C8.71395 4.94941 8.28259 5.38183 7.88573 5.76158C7.65273 5.51785 7.38812 5.25053 7.10458 4.97464C6.25303 4.14611 5.15474 3.166 4.18274 2.518C3.59895 2.1288 2.82335 2.19629 2.31556 2.68048C1.80777 3.16467 1.70346 3.93617 2.06445 4.53782C2.48077 5.23168 2.98519 6.00115 3.42202 6.66751L3.42204 6.66754L3.51746 6.81312C4.0088 7.563 4.34203 8.08114 4.45791 8.31291C4.5056 8.40829 4.55965 8.50182 4.61749 8.59248C4.51617 8.69385 4.4128 8.79863 4.3082 8.90613C3.47966 9.75768 2.49955 10.856 1.85155 11.828C1.46236 12.4118 1.52985 13.1874 2.01404 13.6951C2.49822 14.2029 3.26973 14.3072 3.87137 13.9463C4.75511 13.416 5.53974 12.6391 6.12977 12.0549L6.12977 12.0549L6.15454 12.0304L6.17806 12.0071C6.48726 11.701 6.74413 11.4467 6.98431 11.2346C7.03093 11.1934 7.07432 11.1562 7.11463 11.1226C7.22396 11.2137 7.32861 11.2994 7.42648 11.3784C7.91198 11.7703 8.93492 12.4799 9.77748 13.0545C10.2113 13.3503 10.6176 13.6239 10.9152 13.8235C11.0641 13.9233 11.186 14.0048 11.2709 14.0614L11.3692 14.1268L11.3951 14.1441L11.4019 14.1486L11.4037 14.1498L11.4041 14.1501L11.4043 14.1502L12.2341 12.9006ZM12.9535 5.06527C12.9529 5.06564 12.952 5.06627 12.9507 5.06719L12.9541 5.06487C12.9541 5.06486 12.9539 5.06499 12.9535 5.06527Z" fill="black"/>
</svg>
