<svg width="16" height="16" viewBox="0 0 16 16" fill="none" xmlns="http://www.w3.org/2000/svg">
<path d="M6.01323 1.10079L6.04589 1.10626C6.07579 1.11119 6.12152 1.11851 6.18109 1.12744C6.30036 1.14532 6.47435 1.16955 6.68722 1.19387C7.11554 1.24281 7.68898 1.29071 8.28473 1.29071H9.89581C10.4487 1.29071 10.897 1.73895 10.897 2.29188V5.68017H14.0839C14.6087 5.68017 15.0444 6.08543 15.0824 6.60887L15.083 6.61716L15.0845 6.63835L15.0897 6.71685C15.0942 6.78434 15.1002 6.88113 15.1069 7.00013C15.1203 7.23773 15.1364 7.56591 15.1472 7.92753C15.1678 8.61832 15.1732 9.5389 15.0716 10.1525C14.9947 10.6164 14.6053 10.9642 14.1358 10.9886C13.5706 11.0179 12.4619 10.9647 11.5573 10.911C11.3258 10.8972 11.1023 10.8831 10.897 10.8696V13.9147C10.897 14.4676 10.4487 14.9159 9.89581 14.9159H6.02974C5.70819 14.9159 5.40621 14.7614 5.218 14.5007C5.032 14.2431 4.97948 13.9126 5.07596 13.6103L5.07633 13.609C5.07793 13.6035 5.08193 13.5894 5.08762 13.5665C5.09899 13.5208 5.11714 13.4402 5.13628 13.3247C5.17454 13.094 5.21702 12.7226 5.21702 12.21C5.21702 11.7197 5.17831 11.1885 5.13571 10.7555C4.87856 10.7428 4.58157 10.7277 4.27204 10.7111C3.38049 10.6633 2.32921 10.6002 1.86187 10.5436C1.39993 10.4876 1.03746 10.1207 0.987062 9.65814C0.912052 8.96969 0.8761 8.10928 0.858338 7.43892C0.849357 7.09993 0.844861 6.8023 0.842607 6.58922C0.84148 6.4826 0.840911 6.39693 0.840624 6.3376L0.84037 6.26896L0.840332 6.24438C0.840314 5.97028 0.952676 5.70752 1.15121 5.51853C1.34973 5.32954 1.61707 5.23021 1.89083 5.24372L5.01523 5.39786C5.01139 5.19849 5.00646 4.98107 5.00014 4.75477C4.97365 3.8055 4.92435 2.77734 4.84125 2.23758C4.7921 1.91832 4.90002 1.59495 5.13106 1.36919C5.36196 1.14356 5.68806 1.04324 6.00592 1.09953L6.01323 1.10079Z" fill="black"/>
</svg>
