<svg width="20" height="19" viewBox="0 0 20 19" fill="none" xmlns="http://www.w3.org/2000/svg">
<path d="M6.21459 15.8763C9.53443 17.793 14.8901 16.2137 16.8068 12.8938C18.7235 9.57399 17.1102 4.67142 13.7903 2.75471M6.21459 15.8763C2.89475 13.9596 1.26742 8.62227 3.18413 5.30243C3.85233 4.14506 4.94021 3.25206 6.21459 2.66098M6.21459 15.8763C1.26704 14.0509 0.263929 5.42097 6.21459 2.66098M6.21459 15.8763C8.62086 17.3337 13.9591 16.7064 16.553 12.8938C18.6281 9.84375 16.553 4.34971 13.7903 2.75471M13.7903 2.75471C11.6279 1.50621 8.59568 1.5566 6.21459 2.66098" stroke="black" stroke-width="3" stroke-linecap="round" stroke-linejoin="round"/>
<path d="M10 2.08875C10 2.08875 10.1096 4.55517 9.99996 6.37397C9.69196 6.19595 9.87167 3.44298 10 2.08875Z" stroke="black" stroke-width="3" stroke-linecap="round" stroke-linejoin="round"/>
<path d="M10 11.6767C10 11.6767 9.99215 14.4088 9.76658 16.2453C9.23919 16.0234 9.70246 13.1071 10 11.6767Z" stroke="black" stroke-width="3" stroke-linecap="round" stroke-linejoin="round"/>
<path d="M6.76448 8.93745C5.31057 8.93745 2.28076 8.76258 2.28076 8.76258V9.04741C2.28076 9.13537 5.26991 9.01075 6.76448 8.93745Z" stroke="black" stroke-width="3" stroke-linecap="round" stroke-linejoin="round"/>
<path d="M13.0605 9.04741C14.2466 9.04741 17.3036 9.16702 17.3036 9.16702V9.47631C17.3036 9.59069 14.4757 9.27468 13.0605 9.04741Z" stroke="black" stroke-width="3" stroke-linecap="round" stroke-linejoin="round"/>
</svg>
