<svg width="17" height="17" viewBox="0 0 17 17" fill="none" xmlns="http://www.w3.org/2000/svg">
<path d="M9.44751 7.16884C9.90254 7.83859 9.54219 13.4511 9.44751 14.6346C9.43182 14.8308 10.1882 14.8964 10.1638 14.6346C10.1443 14.4252 9.90254 7.83859 9.44751 7.16884ZM9.44751 7.16884C8.99249 6.4991 4.24111 4.59619 4.24111 4.59619M4.24111 4.59619C4.78181 3.99661 6.25508 2.73793 6.9881 2.37061C7.72111 2.00329 7.37681 1.86674 7.12521 1.88806C6.87361 1.90938 3.88988 2.17181 2.88239 2.37059C1.8749 2.56938 2.08813 3.01614 2.18016 4.19763C2.23639 4.91954 2.4011 6.62183 2.88239 7.71214C3.11557 8.24038 3.45402 8.79948 3.46097 7.71214C3.46793 6.6248 3.84038 5.04057 4.24111 4.59619Z" stroke="black" stroke-width="3" stroke-linecap="round" stroke-linejoin="round"/>
</svg>
