<svg width="16" height="17" viewBox="0 0 16 17" fill="none" xmlns="http://www.w3.org/2000/svg">
<path d="M7.18313 7.25736C6.68461 8.52582 7.04203 13.55 7.18313 14.7289C7.20651 14.9243 7.36835 14.9914 7.38244 14.7289C7.39372 14.5189 6.94709 7.85795 7.18313 7.25736ZM7.18313 7.25736C7.58588 6.23256 12.286 4.56074 12.286 4.56074M12.286 4.56074C11.7222 3.98285 9.80554 2.62977 9.05866 2.29152C8.31178 1.95328 8.45355 1.76743 9.29773 1.96799C10.3747 2.22386 12.3427 2.62577 13.3572 2.78482C14.3717 2.94387 14.3752 2.89732 14.3297 4.08152C14.3019 4.80508 13.9319 6.52323 13.4938 7.6316C13.2816 8.1686 13.0618 9.11516 13.0121 8.02894C12.9625 6.94271 12.7039 4.98903 12.286 4.56074Z" stroke="black" stroke-width="3" stroke-linecap="round" stroke-linejoin="round"/>
</svg>
