<svg width="17" height="19" viewBox="0 0 17 19" fill="none" xmlns="http://www.w3.org/2000/svg">
<path d="M1.83347 11.446C1.82279 12.63 1.69963 13.582 1.60593 14.2987C1.60337 14.3182 1.60079 14.3379 1.5982 14.3577C1.55654 14.6755 1.51048 15.0268 1.5012 15.3051C1.49654 15.4447 1.49422 15.695 1.56094 15.9618C1.62374 16.2129 1.84711 16.8429 2.56786 17.1132C2.747 17.1803 2.91781 17.2022 2.94099 17.2051C2.94209 17.2053 2.94285 17.2054 2.94327 17.2054C3.00461 17.2139 3.06721 17.2203 3.12181 17.2252C3.23362 17.2353 3.37176 17.2445 3.52416 17.253C3.83215 17.2703 4.24494 17.2874 4.7214 17.3033C5.67654 17.3353 6.91636 17.3633 8.14548 17.3771C9.37141 17.3909 10.6033 17.3909 11.5367 17.3654C11.9976 17.3529 12.4165 17.3334 12.7338 17.3023C12.8823 17.2877 13.0675 17.2653 13.2399 17.2243C13.3134 17.2068 13.4808 17.1645 13.6619 17.0709C13.7514 17.0246 13.9244 16.9256 14.0918 16.7456C14.2709 16.5531 14.5005 16.2002 14.5005 15.7086C14.5005 15.6267 14.4938 15.5449 14.4805 15.4641C14.4423 15.2332 14.411 14.6492 14.3995 13.7784C14.3886 12.9498 14.3958 11.9663 14.4107 11.0089C14.431 9.70002 14.4675 8.37706 14.4872 7.66504C14.4953 7.37 14.5005 7.17986 14.5005 7.13909C14.5005 6.74033 14.3694 6.39742 14.2877 6.20764C14.1907 5.98256 14.0672 5.76072 13.9419 5.55854C13.69 5.15173 13.3652 4.71902 13.0352 4.32783C12.7062 3.93779 12.3383 3.54912 11.9878 3.24334C11.8149 3.09257 11.615 2.93431 11.4028 2.80496C11.2496 2.71158 10.8513 2.47888 10.3409 2.47888C10.0334 2.47889 8.2682 2.50115 6.55839 2.53674C5.70155 2.55457 4.84842 2.57596 4.19135 2.59994C3.86449 2.61188 3.57526 2.62484 3.35465 2.639C3.24632 2.64596 3.13874 2.65418 3.04522 2.66445C2.99978 2.66944 2.93968 2.67683 2.87602 2.68798C2.87528 2.68811 2.87419 2.68829 2.87276 2.68853C2.84289 2.69351 2.66477 2.72324 2.47351 2.81022C2.11845 2.97168 1.92291 3.22358 1.83761 3.3509C1.74444 3.48995 1.69268 3.61628 1.66605 3.68876C1.61272 3.83396 1.58892 3.96287 1.57794 4.02897C1.5538 4.17427 1.54343 4.32545 1.53767 4.44558C1.52547 4.70004 1.52524 5.02576 1.53098 5.37533C1.54262 6.08389 1.58108 7.00413 1.62618 7.90459C1.67147 8.80877 1.72422 9.70795 1.76558 10.3801C1.78628 10.7164 1.80416 10.9965 1.81688 11.1927L1.8318 11.4208L1.83347 11.446Z" stroke="black" stroke-width="3" stroke-linecap="round" stroke-linejoin="round"/>
<path d="M9.54004 2.74139C9.1481 2.88168 8.83208 3.17855 8.6676 3.56097C8.50311 3.9434 8.50495 4.37697 8.67268 4.75799C8.78426 5.01146 8.79033 5.31131 8.7203 5.69237C8.69483 5.83092 8.67327 5.91966 8.64731 6.02648C8.63032 6.09643 8.61144 6.17413 8.58834 6.27866C8.56877 6.36721 8.53054 6.5443 8.52113 6.73566C8.52103 6.7378 8.52089 6.74033 8.52073 6.74325C8.51486 6.85191 8.48044 7.48911 8.99478 7.99418C9.26741 8.2619 9.57623 8.35949 9.64383 8.38085C9.64607 8.38156 9.64804 8.38218 9.64974 8.38272C9.76781 8.42049 9.87791 8.44302 9.95581 8.45694C10.1166 8.48567 10.2925 8.50394 10.4534 8.51658C10.7835 8.54252 11.1825 8.55461 11.5644 8.55517C11.9456 8.55572 12.3445 8.54483 12.6731 8.51885C12.8321 8.50628 13.0117 8.48743 13.1774 8.45589C13.2565 8.44084 13.3776 8.41463 13.5088 8.36771C13.5105 8.36713 13.5126 8.36639 13.5152 8.36548C13.5829 8.34193 13.9698 8.20736 14.2571 7.82488L13.0579 6.92389L14.2571 7.82487C14.5422 7.44544 14.5642 7.05539 14.5641 6.89848C14.5641 6.71561 14.532 6.56872 14.5116 6.48855C14.4696 6.32372 14.4087 6.18467 14.3692 6.10062C14.2834 5.91774 14.17 5.72561 14.0562 5.54901C13.8225 5.18617 13.4965 4.74876 13.1289 4.33329C12.7704 3.92803 12.3156 3.47885 11.8178 3.14879C11.4095 2.87805 10.5274 2.38798 9.54004 2.74139Z" stroke="black" stroke-width="3" stroke-linecap="round" stroke-linejoin="round"/>
</svg>
