<svg width="20" height="19" viewBox="0 0 20 19" fill="none" xmlns="http://www.w3.org/2000/svg">
<path d="M4.1598 11.4225C2.73079 10.2347 2.30328 9.53118 2.14471 7.94338C1.92923 5.7857 2.27418 2.34856 4.89893 1.96125M4.1598 11.4225H6.00366M4.1598 11.4225C3.42068 10.2535 2.70406 8.41679 2.87621 6.1587C3.04835 3.90061 4.1598 2.17271 4.89893 1.96125M4.89893 1.96125C7.52368 1.57395 9.06225 2.38794 9.46622 3.70316C10.5098 2.66322 11.9946 2.48305 12.7747 2.9511C13.7498 3.53617 14.1965 5.14461 13.9778 6.1587C14.8286 5.60624 17.1214 6.13583 17.7239 7.59909C18.3265 9.06234 17.274 10.7116 17.1394 10.9512C15.8734 10.9512 14.5613 11.451 13.8648 11.2205" stroke="black" stroke-width="3" stroke-miterlimit="10" stroke-linecap="round" stroke-linejoin="round"/>
<path d="M15.5375 14.3204C15.6104 14.497 15.7009 14.9879 15.3247 15.3603C14.317 16.3578 11.9355 17.7056 10.6538 18.2502C10.0596 18.5026 9.83423 18.5614 9.33784 18.154C8.97852 17.8592 8.13337 17.447 7.4364 16.9131C6.72269 16.3664 5.07472 15.6006 4.95104 15.0245C4.82736 14.4484 4.96723 13.695 5.62764 13.694C6.55107 13.6925 7.99717 13.694 7.99717 13.694L11.8702 13.8097C13.0419 13.7657 15.3525 13.8723 15.5375 14.3204Z" fill="black"/>
<path d="M10.375 15.302C10.325 14.061 10.1663 10.6721 9.93677 9.87494C9.60886 10.2576 9.79038 13.8925 9.92144 15.3084L10.375 15.302Z" stroke="black" stroke-width="3" stroke-linecap="round" stroke-linejoin="round"/>
</svg>
