<svg width="16" height="16" viewBox="0 0 16 16" fill="none" xmlns="http://www.w3.org/2000/svg">
<path d="M12.0508 4.18739C11.0453 4.83407 11.5072 6.13063 12.3978 6.63319C13.2884 7.13576 14.1915 6.72235 14.6575 6.45615C15.1235 6.18995 15.0612 5.56229 14.6575 4.62454C14.2539 3.68679 12.9861 3.58586 12.0508 4.18739Z" fill="black"/>
<path d="M11.7535 9.05737C10.748 9.70408 11.1566 10.9844 11.9192 11.747C12.6818 12.5095 13.7253 12.1099 14.1913 11.8437C14.6573 11.5775 15.0612 10.5458 14.6575 9.60802C14.395 8.99806 13.1426 8.16394 11.7535 9.05737Z" fill="black"/>
<path d="M6.76343 4.40983C5.82767 5.01169 6.17784 6.19613 6.94042 6.95871C7.43549 7.45378 8.37016 7.23236 8.93008 6.74697C9.49 6.26158 9.73347 5.84759 9.32983 4.90984C9.06729 4.29988 8.1525 3.5164 6.76343 4.40983Z" fill="black"/>
<path d="M6.99263 9.05737C5.75789 9.85153 6.35437 10.9652 7.11695 11.7278C7.61202 12.2228 8.82875 12.2132 9.38868 11.7278C9.9486 11.2424 9.79231 10.5811 9.38868 9.64337C9.12613 9.03341 8.38171 8.16394 6.99263 9.05737Z" fill="black"/>
<path d="M3.70746 6.95871C4.41888 6.58933 4.09241 5.17241 3.32983 4.40983C2.83477 3.91476 1.40014 4.10989 1.07239 4.49369C0.744647 4.87749 0.419846 5.62556 1.01354 6.45612C1.25385 6.79231 2.2479 7.71655 3.70746 6.95871Z" fill="black"/>
<path d="M4.0412 11.8437C4.75262 11.4744 4.64059 9.9318 3.87801 9.16922C3.38294 8.67415 1.57068 8.63574 1.24293 9.01954C0.915189 9.40334 0.590388 10.1514 1.18408 10.982C1.42439 11.3182 2.58164 12.6016 4.0412 11.8437Z" fill="black"/>
</svg>
