<svg width="19" height="16" viewBox="0 0 19 16" fill="none" xmlns="http://www.w3.org/2000/svg">
<path d="M12.056 5.35991C12.1289 4.46024 12.1999 3.55667 12.2637 2.76599C11.9385 2.84824 11.5774 2.91336 11.2039 2.96486M12.056 5.35991C12.371 4.51851 14.2488 4.31623 15.793 4.5689M12.056 5.35991C11.9747 6.36425 11.8911 7.36373 11.8129 8.19586M15.793 4.5689C17.7232 4.88474 16.8177 7.78177 15.9403 8.69425C15.0629 9.60673 13.1517 9.52007 11.8129 8.19586M15.793 4.5689C17.25 4.82147 18.2345 6.8631 16.2139 9.09416C14.8452 10.3995 12.6358 9.00975 11.8129 8.19586M11.8129 8.19586C11.7091 9.29911 11.6147 10.1082 11.5473 10.2444C11.4882 10.3638 11.0207 10.4424 10.3448 10.4884M11.2039 2.96486C9.50828 3.19867 7.5583 3.15154 7.5583 3.15154C7.5583 3.15154 4.04959 3.15153 2.84277 2.76599C3.20382 6.03758 3.72401 10.0543 4.0494 10.2444C4.43832 10.4717 8.32322 10.626 10.3448 10.4884M11.2039 2.96486C11.1644 5.46088 10.9373 10.46 10.3448 10.4884" stroke="black" stroke-width="3" stroke-linecap="round" stroke-linejoin="round"/>
<path d="M1.51611 13.8057C2.37319 14.0161 13.1651 14.0512 13.8614 13.8055C13.9143 13.8526 13.9663 13.9628 13.7507 14.0271C13.4811 14.1073 4.49809 14.4031 1.51611 13.8057Z" stroke="black" stroke-width="3" stroke-linecap="round" stroke-linejoin="round"/>
</svg>
