<svg width="16" height="18" viewBox="0 0 16 18" fill="none" xmlns="http://www.w3.org/2000/svg">
<path d="M2.60645 4.83597C2.87845 3.68006 5.28503 1.84427 7.84205 1.84424M7.84205 1.84424C10.3991 1.84421 13.8254 4.83598 13.3496 7.82774C12.8737 10.8195 10.29 11.0235 9.88198 12.5874C9.47402 14.1512 8.95665 16.1231 6.95809 16.1231M7.84205 1.84424C9.19879 1.84422 14.5508 3.435 13.6546 7.82774C13.043 10.8252 11.7954 10.3426 10.3991 12.5874C9.00279 14.8321 8.95665 16.1231 6.95809 16.1231M6.95809 16.1231C4.95952 16.1231 3.49051 15.6471 2.60645 13.5393M4.64631 7.82774C5.53024 6.53585 8.99796 5.51594 8.72598 6.73984C8.5084 7.71896 6.68611 11.5674 5.25826 11.1595" stroke="black" stroke-width="3" stroke-linecap="round" stroke-linejoin="round"/>
</svg>
