<svg width="16" height="16" viewBox="0 0 16 16" fill="none" xmlns="http://www.w3.org/2000/svg">
<path d="M12.7678 8.88815C11.8165 9.04242 9.71667 9.03505 7.96121 9.03506C6.20574 9.03506 4.61804 9.1125 3.58791 8.88815C2.55779 8.6638 1.64073 8.05903 2.40871 6.9951C3.1767 5.93116 5.82458 4.25184 6.55933 3.37601C7.29408 2.50019 8.3579 2.55161 9.34112 3.37601C10.3243 4.20042 13.3123 6.9951 13.7192 7.62821C14.1261 8.26133 13.7192 8.73387 12.7678 8.88815Z" fill="black"/>
<path d="M3.58791 10.3103C3.22114 10.3371 2.40871 11.0504 2.40871 11.4043V12.1808C2.40871 12.5537 3.74483 13.2479 3.99514 13.1924C4.24546 13.137 11.3358 13.063 12.2181 12.9572C13.1004 12.8513 13.3749 12.0796 13.5139 11.6872C13.653 11.2947 13.7192 11.0749 13.5139 10.6568C13.3087 10.2387 12.3997 10.0726 11.9946 10.0515C11.5895 10.0304 3.95468 10.2835 3.58791 10.3103Z" fill="black"/>
</svg>
