<svg width="16" height="16" viewBox="0 0 16 16" fill="none" xmlns="http://www.w3.org/2000/svg">
<path d="M4.70117 11.1019C6.33416 12.7726 8.81611 14.0547 8.05847 15.1202C7.98768 15.2198 7.51214 15.5526 7.14959 15.5648C6.02558 15.6027 3.83735 15.0671 2.46735 14.6031C1.40009 14.2417 1.21287 14.0851 0.989497 13.0069C0.68399 11.5322 0.314013 8.99874 0.575161 8.47262C0.936555 7.74454 1.50814 7.25556 1.83334 7.32453C2.20716 7.40381 3.22055 9.58712 4.70117 11.1019Z" fill="black"/>
<path d="M15.4815 6.33531C15.3845 7.37924 15.6483 8.1777 14.8028 8.3897C13.9574 8.60171 12.0863 5.71131 11.5233 4.90947C10.9603 4.10763 7.36213 1.5313 8.15279 0.953679C8.3143 0.835688 8.74766 0.448333 9.21513 0.44692C10.6181 0.44268 12.9816 1.0845 14.1489 1.59296C14.6948 1.83078 14.9086 2.0394 15.0627 2.61233C15.356 3.7024 15.5397 5.70757 15.4815 6.33531Z" fill="black"/>
<path d="M3.82798 11.615C3.82798 11.615 3.48429 12.2521 4.27027 11.8929C5.05626 11.5338 10.8394 5.81722 12.1183 4.58731L3.82798 11.615Z" stroke="black" stroke-width="3" stroke-linecap="round" stroke-linejoin="round"/>
</svg>
