<svg width="20" height="16" viewBox="0 0 20 16" fill="none" xmlns="http://www.w3.org/2000/svg">
<path d="M2.07649 7.21704C1.46847 9.54867 6.3185 12.6742 9.66364 12.6742C13.0088 12.6742 16.9377 10.7159 17.8657 8.21952M2.07649 7.21704C2.46408 5.7307 8.67066 2.83864 11.1431 3.42836C13.6156 4.01807 18.7938 5.72312 17.8657 8.21952M2.07649 7.21704C2.47989 5.67004 5.58816 3.01367 9.34548 3.01367C13.5563 3.01367 18.7938 5.72312 17.8657 8.21952" stroke="black" stroke-width="3" stroke-linecap="round" stroke-linejoin="round"/>
<path d="M8.04331 10.2145C7.26094 9.43214 6.80198 7.45867 8.04331 6.21734C9.28464 4.97602 11.2308 4.91365 12.1942 6.21734C13.1702 7.53814 12.6923 8.80714 11.6368 9.86266C10.5813 10.9182 8.82567 10.9969 8.04331 10.2145Z" fill="black"/>
</svg>
