<svg width="22" height="17" viewBox="0 0 22 17" fill="none" xmlns="http://www.w3.org/2000/svg">
<path d="M2.87514 7.10232C3.31592 7.58863 3.76732 8.04027 4.24472 8.45517M9.37712 11.0569C13.0117 11.8371 18.2516 6.9698 18.7172 7.10232C19.1829 7.23484 18.6559 8.27467 18.0947 8.61289C17.8199 8.77853 17.9653 8.81082 17.7072 8.95822M9.37712 11.0569C8.31698 10.784 7.71108 10.5585 7.39363 10.4253M9.37712 11.0569C10.2873 11.2913 10.4097 11.3273 11.003 11.2913M4.24472 8.45517L2 11.1868L4.42959 8.61289M4.24472 8.45517C4.3059 8.50835 4.36752 8.56092 4.42959 8.61289M7.14211 10.3163L5.61099 14.2788L7.39363 10.4253M7.14211 10.3163C7.22498 10.3534 7.30881 10.3897 7.39363 10.4253M7.14211 10.3163C6.11407 9.85672 5.23332 9.28575 4.42959 8.61289M11.2457 11.2913L11.4438 15.1189L11.003 11.2913M11.2457 11.2913C12.1111 11.1945 13.319 11.0691 14.7403 10.4253M11.2457 11.2913C10.8401 11.2913 11.1027 11.2852 11.003 11.2913M14.7403 10.4253L16.8384 14.0765M14.7403 10.4253C15.4171 10.1188 16.8691 9.43682 17.7072 8.95822M17.7072 8.95822L19.9066 11.0569" stroke="black" stroke-width="3" stroke-linecap="round" stroke-linejoin="round"/>
</svg>
