<svg width="16" height="17" viewBox="0 0 16 17" fill="none" xmlns="http://www.w3.org/2000/svg">
<path d="M9.36268 3.29562C8.0213 3.88858 8.09604 6.7577 8.20834 9.47915M9.36268 3.29562C7.75838 4.00479 7.58248 4.89622 7.58248 8.40027C7.58248 9.2108 7.47583 14.361 7.78492 14.7319C8.03219 15.0286 8.25271 15.1112 8.37342 14.7319C8.49413 14.3526 8.28645 11.3718 8.20834 9.47915M9.36268 3.29562C9.97068 3.02685 10.5614 2.82929 11.1187 2.68891M8.20834 9.47915C8.20834 9.47915 12.2427 9.18548 13.4838 9.28679M11.1187 2.68891C12.5196 2.33606 13.3678 2.44134 13.7878 2.49859C14.2077 2.55585 14.4104 2.92846 14.4104 3.29562C13.7878 2.99193 13.0342 2.24602 11.1187 2.68891Z" stroke="black" stroke-width="3" stroke-linecap="round" stroke-linejoin="round"/>
</svg>
