<svg width="16" height="16" viewBox="0 0 16 16" fill="none" xmlns="http://www.w3.org/2000/svg">
<path d="M6.54077 10.0532C6.2354 10.34 5.9354 10.6217 5.66928 10.8735L5.64509 10.8963C4.31188 12.1574 2.53354 13.6832 1.53966 13.5185C1.37337 13.491 1.29037 13.1806 1.29023 12.9357C1.29009 12.6908 1.06106 11.7412 1.16594 10.2744C1.21893 9.53325 1.27676 8.72448 1.29012 7.92842C1.30485 7.05017 1.24873 6.1874 1.20063 5.44794C1.13004 4.36271 1.07672 3.54308 1.29001 3.32988C2.04106 2.57914 5.2361 4.86401 6.10005 5.64534C6.28208 5.80997 6.45642 5.96467 6.62247 6.10978C7.08867 6.5172 7.15609 6.66176 7.11677 5.99149C7.10545 5.79848 7.09348 5.61074 7.08196 5.42989C7.03533 4.69821 6.99589 4.07931 7.03519 3.68046C7.06415 3.3865 7.16243 3.15366 7.47671 3.09549C8.39727 2.92511 10.2039 4.46017 10.6655 4.8014C11.1865 5.18644 12.2009 6.01108 13.1137 6.4596C14.1518 6.96968 15.0064 7.38963 15.0064 7.92842C15.0064 8.57506 14.1987 9.15899 13.3075 9.8033C12.8445 10.138 12.3591 10.4889 11.9526 10.8735C10.5912 12.1612 9.23518 13.1178 8.28113 13.3412C7.91644 13.4266 7.80794 13.3524 7.64579 13.0135C7.33259 12.359 7.2113 11.2882 7.17411 10.0532C7.151 9.28614 7.02584 9.59772 6.54077 10.0532Z" fill="black"/>
</svg>
