<svg width="20" height="17" viewBox="0 0 20 17" fill="none" xmlns="http://www.w3.org/2000/svg">
<path d="M5.43878 13.0757C5.43878 13.0757 7.26313 14.0903 8.01155 14.0903C8.75998 14.0903 10.5068 13.0757 10.5068 13.0757C10.5068 13.0757 11.9216 14.0903 12.7329 14.0903C13.5442 14.0903 14.9776 12.7448 14.9776 12.7448M5.43878 13.0757C5.43878 13.0757 2.58394 14.4572 2.09131 14.4572M5.43878 13.0757C5.43878 13.0757 4.25408 11.5581 3.88874 10.6708C3.65455 10.1021 3.32957 9.19137 3.12642 8.61077C2.93314 8.05837 2.82618 8.04838 3.40858 8.1429C3.82707 8.21082 4.41815 8.30113 4.72381 8.32221C5.22833 8.35701 6.49249 8.064 6.49249 8.064M14.9776 12.7448C14.9776 12.7448 16.7948 14.7508 17.9925 14.7508M14.9776 12.7448C14.9776 12.7448 16.119 11.1406 16.4148 10.5143C16.5842 10.1555 16.9069 9.40354 17.1517 8.82671C17.4807 8.05103 17.6287 8.05628 16.7948 8.16088M14.9776 12.7448C15.4643 12.2275 16.5092 11.0571 16.7948 10.5143C17.1517 9.8358 17.8414 8.34633 17.737 8.1429C17.6326 7.93947 17.0043 8.13621 16.7948 8.16088M6.49249 8.064C6.49249 8.064 6.89586 3.9929 7.3682 3.52058C7.44915 3.43963 8.44718 3.3982 8.77738 3.39822C9.97814 3.39824 11.006 3.39823 12.3438 3.39822C12.537 3.39822 13.538 3.34802 13.7359 3.39822M6.49249 8.064C6.49249 8.064 8.91656 7.93947 10.6911 7.93947C12.4656 7.93947 14.9776 8.064 14.9776 8.064M13.7359 3.39822C13.9339 3.44842 14.9776 8.064 14.9776 8.064M13.7359 3.39822C13.8397 3.42452 14.2575 3.62496 14.3445 3.74732C14.4141 3.84521 14.9247 6.62046 15.2234 8.10922M14.9776 8.064C14.9776 8.064 15.0776 8.08381 15.2234 8.10922M16.7948 8.16088C16.5495 8.19164 16.2943 8.21783 16.1364 8.21783C15.8911 8.21783 15.484 8.1546 15.2234 8.10922" stroke="black" stroke-width="3" stroke-linecap="round" stroke-linejoin="round"/>
</svg>
