<svg width="17" height="19" viewBox="0 0 17 19" fill="none" xmlns="http://www.w3.org/2000/svg">
<path d="M6.49864 16.4053C4.49633 15.9047 2.22228 11.7276 2.47265 10.7889C2.47256 10.2168 6.86229 14.7083 6.86229 14.7083C6.86229 14.7083 6.27602 2.4653 7.33582 2.46532C8.39562 2.46534 8.61992 12.8294 8.61992 12.8294C8.61992 12.8294 8.95248 7.85949 9.95333 7.85949C10.7689 7.85949 10.9797 11.1595 11.0298 12.3814C11.0109 10.5637 11.4641 8.64741 12.2565 8.64741C12.9839 8.64741 13.5076 10.91 13.22 12.2294C13.5764 11.346 14.2366 9.79897 14.49 9.79897C14.8446 9.79897 14.1353 14.039 12.9838 15.7979C11.8322 17.5569 8.50095 16.9059 6.49864 16.4053Z" fill="black" stroke="black" stroke-width="3" stroke-miterlimit="10" stroke-linecap="round" stroke-linejoin="round"/>
</svg>
