<svg width="18" height="18" viewBox="0 0 18 18" fill="none" xmlns="http://www.w3.org/2000/svg">
<path d="M13.6966 15.4452C13.6966 15.4452 6.18109 13.2598 4.93319 12.8446C3.6853 12.4295 3.44032 11.723 3.34545 11.2118M13.6966 15.4452C13.6966 15.4452 12.0041 9.67033 11.8276 8.99067C11.651 8.31101 10.85 7.80462 10.3676 7.67636C9.88525 7.5481 8.34993 7.19084 8.09047 7.18173C7.83101 7.17263 7.62333 6.56349 7.56584 6.29895C7.50835 6.0344 7.07171 5.41566 6.6264 5.32553C6.18109 5.23541 2.97661 4.68586 2.59365 4.61788C2.21069 4.54991 1.6829 4.88239 1.86265 5.44817C2.04239 6.01394 3.25059 10.7005 3.34545 11.2118M13.6966 15.4452C13.6966 15.4452 15.9888 5.9911 16.1547 5.12092M5.50784 4.25074C5.50784 4.25074 5.42855 3.94611 5.36141 3.58674C5.20543 2.75181 6.09638 2.08216 7.20537 2.16706C8.31436 2.25197 12.9093 2.95957 14.1386 3.13577C15.368 3.31198 16.3206 4.25074 16.1547 5.12092M3.34545 11.2118C3.89088 13.4329 6.86117 13.845 8.3855 14.3259C9.90984 14.8067 13.5245 15.9058 13.8436 15.8371C14.1628 15.7684 14.3587 15.2376 14.4583 14.3259C14.6058 12.9749 15.7531 7.89156 16.1547 5.12092" stroke="black" stroke-width="3" stroke-linecap="round" stroke-linejoin="round"/>
</svg>
