<svg width="18" height="18" viewBox="0 0 18 18" fill="none" xmlns="http://www.w3.org/2000/svg">
<path d="M2.02146 2.69818C1.86936 3.90415 2.02146 5.4111 2.02146 6.01144C2.02146 6.34218 2.51293 7.9513 5.41794 7.9513M5.41794 7.9513C5.10745 9.91331 4.80238 15.3634 5.03384 15.4968C5.32318 15.6635 5.86568 15.9971 5.86568 15.4968C5.86568 15.1106 5.70351 10.1763 5.69213 8.18274M5.41794 7.9513C5.44758 7.95962 5.48435 7.9513 5.55857 7.9513M5.6915 7.97725C7.41871 7.97725 9.19563 7.28509 9.36155 6.83998C9.75938 5.77271 9.575 3.58761 9.36155 2.69818C9.71285 3.72597 10.2386 6.01077 9.53134 6.92764C8.64721 8.07373 7.07035 8.06253 5.69213 8.18274M5.6915 7.97725C5.65796 7.96893 5.61326 7.9513 5.55857 7.9513M5.6915 7.97725C5.6915 8.04162 5.69172 8.11023 5.69213 8.18274M5.6915 2.69818L5.55857 7.9513" stroke="black" stroke-width="3" stroke-linecap="round" stroke-linejoin="round"/>
<path d="M12.6808 9.591C12.4572 8.85335 14.3061 4.20761 15.1779 3.08998C15.4755 2.63408 15.8037 2.33 15.7813 2.59823C15.759 2.86646 15.3496 5.32459 14.9415 10.7122C14.879 11.5369 14.9415 14.2662 14.9415 15.0039C14.9415 15.7415 14.9319 15.6745 14.5296 15.6298C14.1272 15.5851 14.7308 10.6005 14.5296 10.7122C14.3284 10.824 12.9044 10.3286 12.6808 9.591Z" stroke="black" stroke-width="3" stroke-linecap="round" stroke-linejoin="round"/>
</svg>
