<svg width="16" height="16" viewBox="0 0 16 16" fill="none" xmlns="http://www.w3.org/2000/svg">
<path d="M14.6446 5.97031C14.8064 6.20838 15.3011 7.24329 14.5415 7.96491C13.7819 8.68652 13.4825 9.34331 12.4691 10.1872C11.4767 11.0136 11.7812 10.8116 10.9603 11.6158C10.0909 12.4674 9.00621 12.4359 8.9015 11.9074C8.75887 11.1873 8.82139 10.0052 8.82139 9.85213C8.82139 9.64654 8.84576 9.42735 8.04053 9.42705C5.05629 9.42705 6.23753 11.567 6.60586 12.7918C6.77009 13.3379 6.67548 14.3454 6.01954 14.7183C5.20436 15.1816 3.72169 14.8944 3.1298 14.2157C-1.31641 9.11768 1.99903 4.1484 7.05922 4.32861C7.57164 4.34686 7.22934 4.3073 8.38141 4.32861C8.38141 4.32861 8.64549 4.25177 8.64549 4.1484C8.78427 3.6169 8.66675 2.67252 8.65612 2.13157C8.64549 1.59063 9.59751 0.331213 10.9603 1.60976C12.323 2.88831 13.8734 4.83528 14.6446 5.97031Z" fill="black"/>
</svg>
