<svg width="21" height="20" viewBox="0 0 21 20" fill="none" xmlns="http://www.w3.org/2000/svg">
<path d="M11.9842 2.25446C9.38087 2.25446 7.27006 2.86266 5.67029 4.10799C4.06708 5.356 3.14969 7.10947 2.67906 9.0671C1.63756 13.3994 4.87818 18.0828 9.76062 18.0828C11.879 18.0828 13.5771 17.6716 14.9666 16.7873C16.3502 15.9068 17.2719 14.6553 18.0114 13.2693C18.5029 12.3481 18.698 11.2123 18.6901 10.1087C18.682 8.98605 18.4637 7.77869 18.0161 6.65499C17.1224 4.41136 15.1729 2.25446 11.9842 2.25446Z" stroke="black" stroke-width="3" stroke-miterlimit="10" stroke-linecap="round" stroke-linejoin="round"/>
<path d="M12.7709 13.8141C11.3234 11.6979 8.97874 12.5283 7.67456 13.8141C8.10507 13.4527 9.24007 12.7389 10.336 12.7744C11.4319 12.8099 12.4159 13.4823 12.7709 13.8141Z" stroke="black" stroke-width="3" stroke-miterlimit="10" stroke-linecap="round" stroke-linejoin="round"/>
<path d="M13.1634 7.50368C12.5381 8.69026 13.1129 7.59942 12.7707 8.24884" stroke="black" stroke-width="3" stroke-miterlimit="10" stroke-linecap="round" stroke-linejoin="round"/>
<path d="M8.3911 7.42854C8.69585 8.7347 8.41569 7.53393 8.58248 8.2488" stroke="black" stroke-width="3" stroke-miterlimit="10" stroke-linecap="round" stroke-linejoin="round"/>
</svg>
