<svg width="16" height="16" viewBox="0 0 16 16" fill="none" xmlns="http://www.w3.org/2000/svg">
<path d="M13.6428 3.91149C13.6428 4.21217 13.2945 4.50078 13.134 4.67432C12.9736 4.84786 10.4705 7.5803 10.4705 7.5803C10.1419 9.41404 9.88406 11.4969 9.45331 13.356C9.45331 13.5989 8.80263 13.7957 7.99997 13.7957C7.2377 13.7957 6.81819 13.6334 6.55151 13.3923C6.01979 12.9115 6.11598 11.856 6.04052 11.2194L5.53022 7.5803C4.84887 6.82716 2.35767 4.67432 2.35767 3.91149C2.35767 2.96859 4.88393 2.20422 8.00024 2.20422C11.1166 2.20422 13.6428 2.96859 13.6428 3.91149Z" stroke="black" stroke-width="3" stroke-linecap="round" stroke-linejoin="round"/>
</svg>
