<svg width="16" height="16" viewBox="0 0 16 16" fill="none" xmlns="http://www.w3.org/2000/svg">
<path d="M10.598 8.14153C10.484 9.44946 9.18575 10.4727 7.90126 10.3506C6.61677 10.2284 5.85431 9.20148 5.77242 8.14153C5.69053 7.08158 6.70311 5.89927 7.90126 5.74658C9.09941 5.59389 10.712 6.8336 10.598 8.14153Z" fill="black"/>
<path fill-rule="evenodd" clip-rule="evenodd" d="M8.87975 1.17736C8.5548 0.371868 7.38906 0.394745 7.01232 1.17735L6.35543 2.29454C6.13877 2.74462 5.62322 2.96579 5.14777 2.81263L4.12237 2.4823C3.35625 2.2355 2.62733 2.94881 2.8575 3.7201L3.0515 4.37017C3.21733 4.92583 2.87729 5.50558 2.31138 5.63206L2.02264 5.69659C1.2524 5.86873 0.975799 6.82351 1.53475 7.38072L2.57586 8.41859C2.87935 8.72113 2.95633 9.18342 2.76727 9.56799L2.10868 10.9076C1.74647 11.6444 2.37733 12.4796 3.18506 12.3327L3.64444 12.2491C4.2583 12.1374 4.82341 12.609 4.82341 13.233V13.7702C4.82341 14.5829 5.74136 15.0562 6.40338 14.5849L7.49952 13.8045C7.89947 13.5197 8.44698 13.5675 8.79165 13.9171L9.49754 14.6332C10.0836 15.2278 11.0972 14.8848 11.2018 14.0565L11.3637 12.7748C11.4334 12.2227 11.9405 11.8337 12.4919 11.9094L13.2403 12.0122C14.0962 12.1298 14.6884 11.1798 14.2059 10.4631L13.7086 9.72432C13.4081 9.27802 13.5146 8.67401 13.9496 8.35738L14.7081 7.80522C15.4005 7.30127 15.1804 6.217 14.3464 6.02279L13.6896 5.86985C13.1113 5.73518 12.7771 5.1292 12.9717 4.56821L13.337 3.51487C13.6116 2.72313 12.849 1.96505 12.0589 2.24435L10.598 2.76082C10.0933 2.93924 9.53756 2.68856 9.33729 2.19212L8.87975 1.17736ZM11.059 5.89775C12.1672 7.7627 11.851 9.83292 10.0097 10.9076C8.16836 11.9823 6.26789 11.6939 5.13595 10.3506C4.004 9.00726 4.31194 6.75482 5.77242 5.39462C7.2329 4.03441 9.95077 4.03281 11.059 5.89775Z" fill="black"/>
</svg>
