<svg width="18" height="16" viewBox="0 0 18 16" fill="none" xmlns="http://www.w3.org/2000/svg">
<path d="M14.5361 5.4875C15.3796 4.24713 15.3796 4.24711 15.3795 4.24708L15.3794 4.24698L15.3789 4.24665L15.3772 4.24548L15.3708 4.24114L15.3466 4.22474L15.256 4.1634C15.178 4.11073 15.0665 4.0356 14.9315 3.94522C14.6621 3.76474 14.2971 3.52209 13.9179 3.27537C13.5411 3.03019 13.1398 2.77416 12.8008 2.5699C12.6325 2.46853 12.466 2.37168 12.3187 2.29296L12.3133 2.29011C12.2163 2.23823 11.9757 2.10964 11.7229 2.04635C11.5174 1.9949 11.2636 1.97834 11.138 1.97015L11.1339 1.96987C10.9518 1.95799 10.7284 1.94824 10.4847 1.94034C9.99498 1.92447 9.38558 1.91487 8.78261 1.91278C8.18055 1.9107 7.57163 1.91606 7.08462 1.93104C6.84303 1.93847 6.6167 1.9487 6.43043 1.96305C6.33848 1.97014 6.23963 1.97947 6.14557 1.99264C6.14418 1.99284 6.14269 1.99305 6.1411 1.99327C6.08267 2.00141 5.89299 2.02785 5.69587 2.10526C5.437 2.20693 5.20574 2.38381 5.12775 2.44347C5.12402 2.44632 5.12064 2.44891 5.11763 2.4512C4.9882 2.54975 4.84234 2.66956 4.69566 2.7938C4.39966 3.04453 4.04821 3.35769 3.71792 3.65717C3.38549 3.9586 3.06508 4.25472 2.82841 4.47489C2.70989 4.58515 2.61193 4.67677 2.54342 4.74099L2.46378 4.81574L2.44256 4.83571L2.43696 4.84099L2.43546 4.8424L2.43504 4.8428L2.43491 4.84292L3.46387 5.93436L2.43484 4.84299C1.86114 5.38391 1.80418 6.27666 2.30447 6.8861L7.76612 13.5394C8.03925 13.8721 8.44217 14.0714 8.87238 14.0867C9.30258 14.1019 9.7186 13.9316 10.0146 13.6191L8.92551 12.5876C10.0146 13.6191 10.0147 13.619 10.0147 13.619L10.0149 13.6188L10.0153 13.6184L10.0165 13.6171L10.0208 13.6125L10.0363 13.5961L10.0934 13.5352C10.1427 13.4826 10.2136 13.4064 10.3022 13.3103C10.4793 13.1183 10.7276 12.8462 11.0145 12.5233C11.5843 11.8821 12.3227 11.0225 12.9589 10.1867C13.5731 9.37975 14.2743 8.42029 14.8185 7.66757C15.0914 7.29014 15.3263 6.96259 15.4931 6.72927C15.5765 6.61258 15.6429 6.51939 15.6886 6.45522L15.7411 6.38142L15.7548 6.36212L15.7583 6.35711L15.7593 6.35578L15.7595 6.35542L15.7596 6.35532L14.5361 5.4875ZM14.5361 5.4875L15.3796 4.24713C15.7128 4.47372 15.9408 4.82484 16.0123 5.22139C16.0838 5.61795 15.9927 6.02659 15.7596 6.35526L14.5361 5.4875Z" stroke="black" stroke-width="3" stroke-linecap="round" stroke-linejoin="round"/>
<path d="M14.5359 5.43091C14.5359 5.43091 12.238 6.07673 11.11 6.22533C9.98201 6.37393 6.58767 6.25031 6.24396 6.22533C5.90025 6.20035 3.46362 5.87777 3.46362 5.87777" stroke="black" stroke-width="3" stroke-linecap="round" stroke-linejoin="round"/>
</svg>
