<svg width="16" height="18" viewBox="0 0 16 18" fill="none" xmlns="http://www.w3.org/2000/svg">
<path d="M2.89139 9.86084C2.77155 11.0822 2.77837 15.0456 3.37857 15.2572C3.97876 15.4689 11.8916 15.998 12.6119 15.5218C13.3322 15.0456 13.4215 11.3341 13.0315 9.86084" stroke="black" stroke-width="3" stroke-linecap="round" stroke-linejoin="round"/>
<path d="M2.04093 9.9605C1.29277 9.91155 1.62751 8.8509 1.70214 8.56946C1.72671 8.48227 13.339 8.6503 14.0123 8.9156C14.3588 9.05212 14.615 9.9605 14.0123 10.144C13.149 10.407 2.7891 10.0094 2.04093 9.9605Z" stroke="black" stroke-width="3" stroke-linecap="round" stroke-linejoin="round"/>
<path d="M7.50981 8.55507C7.22653 7.00848 8.69987 5.43013 6.56438 3.0172C4.97774 1.22442 2.6375 3.05449 2.68001 4.97252C2.73772 7.57575 6.01166 8.55507 7.50981 8.55507ZM7.50981 8.55507C7.50981 5.62996 9.79654 2.58146 11.932 4.04504C14.6012 5.87452 11.2357 8.55507 9.56738 8.55507C8.23274 8.55507 7.63957 8.55507 7.50981 8.55507Z" stroke="black" stroke-width="3" stroke-linecap="round" stroke-linejoin="round"/>
</svg>
