<svg width="18" height="18" viewBox="0 0 18 18" fill="none" xmlns="http://www.w3.org/2000/svg">
<path d="M8.99995 15.7968C12.7537 15.7968 15.7968 13.708 15.7968 8.99999C15.7968 5.24621 13.1959 2.28467 9.44212 2.28467M8.99995 15.7968C4.14654 15.7968 2.20312 12.7538 2.20312 8.99999C2.20312 5.24621 5.68834 2.28467 9.44212 2.28467M8.99995 15.7968C4.24565 15.7968 2.78482 11.1196 2.78482 9C2.78482 3.57074 7.07756 2.67805 9.44212 2.28467" stroke="black" stroke-width="3" stroke-miterlimit="10" stroke-linecap="round" stroke-linejoin="round"/>
<path d="M10.1577 2.71136C11.1224 5.84738 12.4004 11.9608 10.1577 15.6122" stroke="black" stroke-width="3" stroke-miterlimit="10" stroke-linecap="round" stroke-linejoin="round"/>
<path d="M15.3369 9.20749C13.8239 9.57396 4.27113 8.61407 2.4555 9.20749" stroke="black" stroke-width="3" stroke-miterlimit="10" stroke-linecap="round" stroke-linejoin="round"/>
<path d="M8.646 2.46924C6.27084 4.98705 6.56447 11.7773 8.14273 15.5211" stroke="black" stroke-width="3" stroke-miterlimit="10" stroke-linecap="round" stroke-linejoin="round"/>
</svg>
