<svg width="20" height="20" viewBox="0 0 20 20" fill="none" xmlns="http://www.w3.org/2000/svg">
<path d="M9.83574 17.9184C11.7311 17.7007 13.6609 17.0082 15.1442 15.7018C16.6643 14.3629 17.6356 12.4433 17.6356 9.99997C17.6356 7.68723 16.4027 5.65139 14.9084 4.26892C13.4435 2.91369 11.4284 1.91562 9.53691 2.07719C7.79387 2.22607 5.96645 3.19384 4.55719 4.5139C3.13564 5.84547 1.95019 7.7129 1.74329 9.85581C1.52821 12.0835 2.54642 14.2063 4.01349 15.6785C5.47995 17.1501 7.59983 18.1752 9.83574 17.9184Z" stroke="black" stroke-width="3" stroke-miterlimit="10" stroke-linecap="round" stroke-linejoin="round"/>
<path d="M9.71726 14.415C8.78696 14.3548 7.95604 13.882 7.31493 13.2948C7.60361 13.3003 7.89344 13.3065 8.17816 13.3125C8.67665 13.3231 9.15949 13.3334 9.59314 13.339C10.269 13.3476 11.1109 13.2929 11.88 13.2319C11.2746 13.8699 10.5122 14.361 9.71726 14.415Z" stroke="black" stroke-width="3" stroke-miterlimit="10" stroke-linecap="round" stroke-linejoin="round"/>
<path d="M6.91675 8.40967C7.17362 7.98274 7.42295 7.72995 7.6227 7.80876C7.87279 7.90744 8.05004 8.41556 8.12272 8.4898" stroke="black" stroke-width="3" stroke-miterlimit="10" stroke-linecap="round" stroke-linejoin="round"/>
<path d="M12.6418 8.40967C12.4326 7.98274 12.2295 7.72995 12.0668 7.80876C11.8631 7.90744 11.7187 8.41556 11.6595 8.4898" stroke="black" stroke-width="3" stroke-miterlimit="10" stroke-linecap="round" stroke-linejoin="round"/>
</svg>
