<svg width="18" height="18" viewBox="0 0 18 18" fill="none" xmlns="http://www.w3.org/2000/svg">
<path d="M2.01605 9.75596C6.20823 13.0387 5.41602 14.6891 6.93443 15.6464C8.45285 16.6037 13.1894 16.7818 13.1894 14.4467C13.1894 13.8585 13.1278 11.68 13.4316 10.909C14.3338 8.6192 15.8292 7.34345 15.6672 7.25091C15.4508 7.1272 12.876 9.47373 12.0708 9.75596C11.9029 9.70189 11.6509 9.52455 11.576 9.29206C11.7928 7.99314 13.7099 3.84898 13.4316 3.7562C13.1532 3.66342 11.2049 8.30241 10.8028 8.95187C10.7308 9.24205 10.0561 8.98416 9.99873 8.73538C9.99873 8.73538 10.5325 1.55156 9.9987 1.55157C9.5721 1.55158 9.20195 6.26593 8.81597 8.35142C8.71896 8.87558 7.91842 8.98245 7.8257 8.54947C7.73298 8.11649 7.037 2.90495 5.9772 2.90493C5.46379 2.90493 6.08536 4.92953 6.53505 7.25091C7.01363 9.72143 6.53505 10.0679 6.72964 11.6523C4.09485 9.8705 2.97335 9.29206 2.01605 9.75596Z" fill="black" stroke="black" stroke-width="3" stroke-miterlimit="10" stroke-linecap="round" stroke-linejoin="round"/>
</svg>
