<svg width="20" height="18" viewBox="0 0 20 18" fill="none" xmlns="http://www.w3.org/2000/svg">
<path d="M17.5124 7.38263L9.83755 2.05237L2.38721 7.91618C2.73045 7.91618 2.93671 8.06365 3.39279 8.2012C3.84887 8.33874 4.01793 8.21498 4.13179 8.49035C4.38121 9.09353 4.02623 14.0545 4.35226 15.7669H7.89241C7.89241 15.7669 7.89241 13.5526 7.89241 12.4093C7.89241 11.266 8.22636 10.4371 8.22636 10.4371C9.40875 10.274 12.0146 10.2863 12.0635 10.6777C12.1125 11.0691 12.5479 13.7487 12.5275 15.7669H16.2332M17.5124 7.38263L18.0001 7.72134H16.4617C16.4617 7.72134 16.4617 14.1663 16.7599 15.7669C15.581 15.7669 16.2332 15.7669 16.2332 15.7669M17.5124 7.38263C17.0358 7.26973 16.0475 7.11167 15.9071 7.38263C15.7315 7.72134 16.0576 13.2788 16.2332 15.7669" stroke="black" stroke-width="3" stroke-linecap="round" stroke-linejoin="round"/>
</svg>
