<svg width="16" height="20" viewBox="0 0 16 20" fill="none" xmlns="http://www.w3.org/2000/svg">
<path d="M6.52989 9.57811C7.10708 10.1629 8.92063 10.1179 9.63491 9.57811C10.3492 9.03833 10.9462 8.21593 11.3111 6.92427C10.1582 6.60935 5.31213 6.27224 4.68896 6.60941C5.12229 8.02383 5.9527 8.99335 6.52989 9.57811Z" fill="black"/>
<path d="M4.69687 16.6472C5.24661 18.1359 9.89424 18.1457 11.3191 16.6472C11.5201 16.4359 11.7166 15.2747 11.4499 13.7145M4.69687 16.6472C4.34451 15.6929 4.31239 14.7862 4.69677 13.4426C5.1301 11.928 7.3177 10.5951 7.3177 9.61166C7.3177 9.61166 7.37169 9.17928 7.25622 9.04772C7.14076 8.91615 5.1301 7.32013 4.69678 5.9057C4.31239 4.651 4.48356 2.7911 4.69667 2.44219C5.15003 1.69995 10.9068 2.03739 11.3189 2.44219C11.5464 2.66563 11.7685 4.62922 11.3189 6.22057C10.954 7.51222 9.00702 8.88541 8.78914 9.20496C8.57126 9.52451 8.67294 9.8392 8.78914 10.1031C8.90535 10.367 10.954 11.7223 11.3189 13.1055M4.69687 16.6472C5.06613 16.8354 6.34922 16.6795 7.73842 16.6472C9.47491 16.6068 10.7298 17.051 11.0348 16.6472C11.2857 16.3151 11.5619 14.8657 11.4499 13.7145M11.4499 13.7145C11.4147 13.5084 11.3714 13.3042 11.3189 13.1055M11.4499 13.7145C11.4257 13.466 11.3835 13.2548 11.3189 13.1055" stroke="black" stroke-width="3" stroke-linecap="round" stroke-linejoin="round"/>
</svg>
