<svg width="19" height="17" viewBox="0 0 19 17" fill="none" xmlns="http://www.w3.org/2000/svg">
<path d="M2.68541 7.04266C3.17742 5.03823 5.29252 3.6494 6.28812 1.6582C8.6586 1.6582 4.75513 7.04266 4.75513 7.04266C4.75513 7.04266 16.9955 6.40404 17 7.46384C17.0045 8.52363 6.6415 8.79225 6.6415 8.79225C6.6415 8.79225 11.6885 8.66957 11.6928 9.67042C11.6963 10.486 8.32148 11.1449 7.09978 11.2002C8.91742 11.1735 11.1205 11.3908 11.1239 12.1831C11.127 12.9106 8.58178 13.6716 7.2612 13.3897C8.1461 13.7423 10.0335 14.4114 10.0346 14.6648C10.0361 15.0194 5.45552 14.3127 3.69166 13.1687C1.9278 12.0247 2.1934 9.04709 2.68541 7.04266Z" fill="black"/>
<path d="M7.09978 11.2002C8.32148 11.1449 11.6963 10.486 11.6928 9.67042C11.6885 8.66957 6.6415 8.79225 6.6415 8.79225C6.6415 8.79225 17.0045 8.52363 17 7.46384C16.9955 6.40404 4.75513 7.04266 4.75513 7.04266C4.75513 7.04266 8.6586 1.6582 6.28812 1.6582C5.29252 3.6494 3.17742 5.03823 2.68541 7.04266C2.1934 9.04709 1.9278 12.0247 3.69166 13.1687C5.45552 14.3127 10.0361 15.0194 10.0346 14.6648C10.0335 14.4114 8.1461 13.7423 7.2612 13.3897M7.09978 11.2002C6.82221 11.2128 6.65187 11.2166 6.65187 11.2166C6.79973 11.2078 6.94941 11.2024 7.09978 11.2002ZM7.09978 11.2002C8.91742 11.1735 11.1205 11.3908 11.1239 12.1831C11.127 12.9106 8.58178 13.6716 7.2612 13.3897M7.2612 13.3897C7.02452 13.3392 6.81803 13.2625 6.66016 13.156C6.66016 13.156 6.9076 13.2489 7.2612 13.3897Z" stroke="black" stroke-width="3" stroke-miterlimit="10" stroke-linecap="round" stroke-linejoin="round"/>
</svg>
