<svg width="19" height="17" viewBox="0 0 19 17" fill="none" xmlns="http://www.w3.org/2000/svg">
<path d="M16.3149 6.83516C15.8229 4.83073 14.6646 3.56084 13.669 1.56964C11.2986 1.56964 14.2451 6.83516 14.2451 6.83516C14.2451 6.83516 5.35158 5.64368 2.59649 5.99192C2.08466 6.05662 2.23571 6.2664 2.36273 6.45924C2.48976 6.65208 12.3588 8.58475 12.3588 8.58475C12.3588 8.58475 7.31174 8.46207 7.30746 9.46291C7.30398 10.2785 10.6788 10.9374 11.9005 10.9927C10.0829 10.966 7.87977 11.1833 7.87638 11.9756C7.87327 12.7031 10.4185 13.4641 11.7391 13.1822C10.8542 13.5348 8.9668 14.2039 8.96571 14.4573C8.9642 14.8119 13.6242 14.9279 15.3036 13.4517C16.9831 11.9756 16.8069 8.83959 16.3149 6.83516Z" fill="black"/>
<path d="M11.9005 10.9927C10.6788 10.9374 7.30398 10.2785 7.30746 9.46291C7.31174 8.46207 12.3588 8.58475 12.3588 8.58475C12.3588 8.58475 2.48976 6.65208 2.36273 6.45924C2.23571 6.2664 2.08466 6.05662 2.59649 5.99192C5.35158 5.64368 14.2451 6.83516 14.2451 6.83516C14.2451 6.83516 11.2986 1.56964 13.669 1.56964C14.6646 3.56084 15.8229 4.83073 16.3149 6.83516C16.8069 8.83959 16.9831 11.9756 15.3036 13.4517C13.6242 14.9279 8.9642 14.8119 8.96571 14.4573C8.9668 14.2039 10.8542 13.5348 11.7391 13.1822M11.9005 10.9927C12.1781 11.0053 12.3484 11.0091 12.3484 11.0091C12.2005 11.0003 12.0509 10.9949 11.9005 10.9927ZM11.9005 10.9927C10.0829 10.966 7.87977 11.1833 7.87638 11.9756C7.87327 12.7031 10.4185 13.4641 11.7391 13.1822M11.7391 13.1822C11.9757 13.1317 12.1822 13.055 12.3401 12.9485C12.3401 12.9485 12.0927 13.0414 11.7391 13.1822Z" stroke="black" stroke-width="3" stroke-miterlimit="10" stroke-linecap="round" stroke-linejoin="round"/>
</svg>
