<svg width="18" height="18" viewBox="0 0 18 18" fill="none" xmlns="http://www.w3.org/2000/svg">
<path d="M9.05578 16.4364C11.0542 16.4671 12.8409 16.0752 14.1841 14.8999C15.5306 13.7217 16.161 11.9933 16.3769 9.95828C16.855 5.45276 13.2585 1.39265 9.01713 1.56733C6.9332 1.65315 5.10435 2.69195 3.83209 4.03118C2.57812 5.35114 1.69546 7.14663 1.77383 8.93807C1.84416 10.5458 2.51379 12.3585 3.70031 13.7942C4.90943 15.2572 6.72287 16.4005 9.05578 16.4364Z" stroke="black" stroke-width="3" stroke-miterlimit="10" stroke-linecap="round" stroke-linejoin="round"/>
<path d="M9.2422 12.714C9.28637 10.9888 9.58815 9.85715 9.56975 9.34106" stroke="black" stroke-width="3" stroke-miterlimit="10" stroke-linecap="round" stroke-linejoin="round"/>
<path d="M11.2578 5.97048C11.3796 5.03773 10.6652 4.33591 9.87162 4.16383C9.078 3.99175 8.06451 4.48398 7.59204 5.7124C7.21406 6.69513 8.72008 7.47604 9.70945 7.43302C10.6988 7.39001 11.1478 6.8127 11.2578 5.97048Z" fill="black"/>
</svg>
