<svg width="20" height="20" viewBox="0 0 20 20" fill="none" xmlns="http://www.w3.org/2000/svg">
<path d="M1.68333 14.1112C1.5528 17.2058 4.54921 17.5293 5.49175 17.5855C6.43429 17.6416 12.2302 17.9736 14.0395 17.9736C15.8489 17.9736 17.4833 16.552 17.6577 14.1112C17.832 11.6705 17.9628 8.16183 17.9628 6.02609M1.68333 14.1112C1.68347 15.7021 2.62582 17.8251 3.00391 17.9736C3.81546 18.2922 14.5723 18.2576 15.4241 18.2576C16.276 18.2576 17.7067 17.9736 18.165 16.1526C18.3656 15.3559 18.1299 9.46314 17.9628 6.02609M1.68333 14.1112C1.68333 14.1112 1.68333 7.99708 1.68333 5.71492C1.68333 3.43275 3.42823 2.00004 4.85097 2.00004H14.0395C16.3719 1.86373 17.9628 3.89036 17.9628 6.02609M14.0395 5.82954C12.5001 4.32286 15.2517 6.38628 14.0395 5.71492M9.35072 7.54172C11.3693 7.29079 12.8687 8.29451 12.7533 10.3647C12.6379 12.4348 10.9655 13.1249 9.86977 13.1249C8.77399 13.1249 7.27433 12.5603 6.98613 10.9293C6.69794 9.29823 7.33219 7.79265 9.35072 7.54172Z" stroke="black" stroke-width="3" stroke-linecap="round" stroke-linejoin="round"/>
</svg>
