<svg width="18" height="17" viewBox="0 0 18 17" fill="none" xmlns="http://www.w3.org/2000/svg">
<path d="M5.30557 15.3381C3.10886 15.2996 2.39966 14.6419 2.39966 13.32L2.3997 11.8403C2.3997 11.2984 2.6453 11.2515 2.64534 11.8403C2.64538 12.4292 2.64534 11.2406 2.64534 13.32C2.64534 14.8694 4.30494 15.3021 5.30557 15.3381ZM5.30557 15.3381C5.37395 15.3393 5.44378 15.3399 5.51508 15.3399M5.30557 15.3381C5.37929 15.3408 5.44944 15.3413 5.51508 15.3399M5.51508 15.3399C7.87645 15.3399 11.774 15.2582 12.9737 15.2582M12.9737 15.2582C15.1882 15.2582 15.5197 14.5838 15.6218 13.5232M12.9737 15.2582C15.4655 15.2582 15.5416 14.8516 15.621 13.5543M15.6218 13.5232C15.6226 13.5152 15.6233 13.5072 15.6241 13.4992M15.6218 13.5232C15.6209 13.1993 15.3797 12.162 15.3702 11.4469M15.6218 13.5232C15.6218 13.5344 15.6216 13.5448 15.621 13.5543M15.6241 13.4992C15.6357 13.3736 15.6443 13.2427 15.6526 13.107C15.7056 12.2414 15.5083 11.6222 15.3712 11.3059M15.6241 13.4992C15.6231 13.5175 15.6221 13.5359 15.621 13.5543M15.6241 13.4992C15.6654 12.6702 15.4948 11.891 15.3702 11.4469M15.3712 11.3059C15.3028 11.1481 15.2493 11.0657 15.2493 11.0657M15.3712 11.3059C15.3808 10.6233 15.2493 11.0657 15.2493 11.0657M15.3712 11.3059C15.371 11.3185 15.3708 11.3315 15.3705 11.3449C15.3698 11.3781 15.3697 11.4121 15.3702 11.4469M15.2493 11.0657C15.2493 11.0657 15.303 11.2077 15.3702 11.4469" stroke="black" stroke-width="3" stroke-linecap="round" stroke-linejoin="round"/>
<path d="M8.73786 10.7765C8.46614 10.812 5.18457 9.005 5.18457 9.005L8.36067 8.94905C8.36067 8.57971 8.11314 3.10221 8.36067 2.6133C8.5587 2.22217 8.72559 2.45033 8.78428 2.6133L8.78428 8.94159L12.384 8.87817C12.384 8.87817 11.6257 9.5326 10.5988 10.0755C9.5719 10.6184 9.00958 10.7411 8.73786 10.7765Z" fill="black"/>
<path d="M8.78428 8.94159L12.384 8.87817C12.384 8.87817 11.6257 9.5326 10.5988 10.0755C9.5719 10.6184 9.00958 10.7411 8.73786 10.7765C8.46614 10.812 5.18457 9.005 5.18457 9.005L8.36067 8.94905M8.78428 8.94159L8.78428 2.6133C8.72559 2.45033 8.5587 2.22217 8.36067 2.6133C8.11314 3.10221 8.36067 8.57971 8.36067 8.94905M8.78428 8.94159L8.36067 8.94905" stroke="black" stroke-width="3" stroke-linecap="round" stroke-linejoin="round"/>
</svg>
