<svg width="16" height="16" viewBox="0 0 16 16" fill="none" xmlns="http://www.w3.org/2000/svg">
<path d="M8.24069 7.29058C8.7477 7.49562 6.4334 12.0486 6.25837 12.5222C6.38742 12.9522 6.86819 13.0889 7.35636 13.0889C8.03169 13.0889 8.54618 12.9593 9.21934 12.5222C8.59048 13.2343 7.78148 13.8393 6.54923 13.8393C6.28328 13.8393 6.06062 13.7492 5.88126 13.5691C4.56331 12.1986 7.76459 9.46793 7.76459 7.9359C7.76459 7.75581 7.68109 7.64576 7.5141 7.60574C7.35329 7.56072 7.03168 7.53821 6.54926 7.53821V7.29058C7.03677 7.24307 7.88813 7.06245 8.24069 7.29058Z" stroke="black" stroke-width="3" stroke-miterlimit="10" stroke-linecap="round" stroke-linejoin="round"/>
<path d="M7.29857 0.992228C7.81173 0.691043 8.33783 0.624944 8.87687 0.79393C9.4159 0.962916 9.81217 1.31095 10.0657 1.83804C10.3282 2.3824 10.3647 2.95697 10.1751 3.56174C9.98547 4.16651 9.62752 4.61743 9.10121 4.91449C8.58805 5.21568 8.06195 5.28178 7.52292 5.11279C6.98388 4.94381 6.58968 4.58919 6.3403 4.04896C6.09092 3.50872 6.06103 2.93621 6.25062 2.33144C6.43609 1.73982 6.78541 1.29341 7.29857 0.992228Z" fill="black"/>
</svg>
