<svg width="16" height="16" viewBox="0 0 16 16" fill="none" xmlns="http://www.w3.org/2000/svg">
<path d="M7.9404 8.41486C7.99522 9.34693 7.9404 12.8478 7.9404 13.0791C7.9404 13.3104 8.35236 13.906 8.35236 12.8478C8.35236 11.7895 8.09582 8.72972 8.35236 8.52465C8.55759 8.36059 11.8309 5.63273 12.8814 4.70877M7.9404 8.41486L3.5112 4.33128M7.9404 8.41486L12.536 4.41001M3.5112 4.33128C3.5112 4.33128 5.38207 2.91013 5.49905 2.80878C5.61603 2.70743 5.57533 2.57271 5.31705 2.57977C5.05877 2.58683 3.13151 2.67387 2.74672 2.73795C2.36193 2.80202 2.32908 2.93736 2.30883 3.16622C2.28858 3.39507 1.98745 5.72033 1.9672 5.8888C1.94695 6.05728 2.15451 6.04485 2.28858 5.8888C2.42265 5.73276 3.5112 4.33128 3.5112 4.33128ZM12.8814 4.70877C12.8814 4.70877 13.8779 6.1276 13.9619 6.27988C14.0458 6.43216 14.3077 6.63417 14.2902 6.50676C14.2727 6.37936 13.85 3.6562 13.8172 3.47283C13.7844 3.28946 13.662 3.14759 13.47 3.09725C13.278 3.04691 10.5797 2.41275 10.3693 2.38297C10.1589 2.35318 10.3807 2.6671 10.5424 2.73794C10.704 2.80878 12.8814 4.70877 12.8814 4.70877Z" stroke="black" stroke-width="3" stroke-linecap="round" stroke-linejoin="round"/>
</svg>
