<svg width="18" height="18" viewBox="0 0 18 18" fill="none" xmlns="http://www.w3.org/2000/svg">
<path d="M1.55298 4.32741C1.55004 4.65713 3.56485 11.1363 3.56485 11.1363C3.56485 11.1363 6.43414 15.391 7.11425 15.631M1.55298 4.32741C1.8566 3.59897 10.4253 2.05778 10.7589 2.41163C11.0925 2.76549 11.5086 7.78346 11.5086 7.78346C11.5086 7.78346 16.9512 10.8555 16.4089 11.1363M1.55298 4.32741L1.87361 4.51994L4.02015 11.1363C5.03759 12.4235 7.11425 15.1713 7.11425 15.631M7.11425 15.631C7.79435 15.871 15.8666 11.4172 16.4089 11.1363M7.11425 15.631C8.4828 14.9167 11.432 13.3977 12.2802 13.0368C13.3404 12.5856 15.9808 11.1363 16.4089 11.1363" stroke="black" stroke-width="3" stroke-miterlimit="10" stroke-linecap="round" stroke-linejoin="round"/>
<path d="M3.91455 10.8083C4.78932 10.5519 7.36259 9.31503 8.12291 9.13404C9.16694 8.8855 10.8529 8.34973 12.0596 7.73132" stroke="black" stroke-width="3" stroke-miterlimit="10" stroke-linecap="round" stroke-linejoin="round"/>
</svg>
