<svg width="16" height="16" viewBox="0 0 16 16" fill="none" xmlns="http://www.w3.org/2000/svg">
<path d="M4.77739 7.90184L2.51551 9.5063C2.17301 9.75465 2.19025 9.73087 2.51551 10.0094C3.0757 10.4891 4.15892 11.3511 4.77739 11.7634C5.57998 12.2985 6.83338 13.0594 7.23539 13.2783C7.63741 13.4972 8.08663 13.6674 8.79193 13.2783C9.49723 12.8892 10.2813 12.3471 11.1325 11.7634C11.7691 11.3269 12.9223 10.597 13.4791 10.1379C13.8598 9.82406 13.823 9.82964 13.4772 9.5063L11.3029 7.90185M7.09764 3.09296C6.69331 3.18627 1.93609 5.31913 2.18497 5.51813C2.34385 5.64517 3.4041 6.44539 4.76534 7.20628C5.48833 7.61042 6.30441 8.00346 6.91662 8.27866C7.81421 8.68214 8.06232 8.66076 8.99678 8.27866C9.64289 8.01447 10.4777 7.63415 11.2946 7.20628C12.4684 6.59155 13.6944 5.76968 13.8131 5.6114C14.0929 5.2383 9.02519 3.24842 8.571 3.08057C8.11682 2.91271 7.50196 2.99965 7.09764 3.09296Z" stroke="black" stroke-width="3" stroke-linecap="round" stroke-linejoin="round"/>
</svg>
