<svg width="16" height="18" viewBox="0 0 16 18" fill="none" xmlns="http://www.w3.org/2000/svg">
<path d="M11.85 14.5258C11.85 14.5258 12.1063 15.8783 11.8758 16.077C11.6453 16.2756 11.3135 16.2993 11.1492 16.077C10.9849 15.8547 10.8677 15.2692 10.9597 14.5587M11.85 14.5258C11.625 14.5526 11.2176 14.5384 10.9597 14.5587M11.85 14.5258C12.2142 14.4824 12.5297 14.4304 12.7786 14.3699C13.551 14.1818 13.4429 13.742 13.4649 13.1887C13.5276 11.609 13.3998 8.01054 12.8043 6.69344C12.5418 6.11288 12.0727 5.91701 11.3068 5.7742C10.4588 5.61609 9.32108 5.62853 8.11466 5.62346M10.9597 14.5587C9.22373 14.6949 7.00522 14.7201 5.28496 14.5587M5.28496 14.5587C5.28496 14.5587 5.54511 15.8994 5.31073 16.077C5.07635 16.2546 4.61564 16.2361 4.47617 16.077C4.33669 15.9178 4.4504 14.4604 4.4504 14.4604M5.28496 14.5587C4.98421 14.5305 4.70369 14.4977 4.4504 14.4604M4.4504 14.4604C4.07421 14.405 3.75807 14.3396 3.5249 14.2641C2.95694 14.0802 2.89008 13.6223 2.84148 13.1887C2.70409 11.9631 3.05701 9.23458 3.13595 7.40841C3.16622 6.70798 3.11318 6.24375 4.09404 5.93636C5.0396 5.64003 6.61673 5.61716 8.11466 5.62346M8.11466 5.62346V2.01194M8.11466 2.01194C10.3096 2.01194 11.3068 1.84875 11.3068 1.84875M8.11466 2.01194C5.91976 2.01194 4.47613 1.84875 4.47613 1.84875" stroke="black" stroke-width="3" stroke-linecap="round" stroke-linejoin="round"/>
</svg>
