<svg width="16" height="18" viewBox="0 0 16 18" fill="none" xmlns="http://www.w3.org/2000/svg">
<path d="M5.69223 11.605C5.69206 9.06535 2.13721 8.91538 2.13721 6.1065C2.13721 3.29763 4.29071 2.22663 7.51323 2.22662M7.51323 2.22662C10.9987 2.22662 13.5407 3.67289 13.5407 6.1065C13.5407 9.17364 9.98657 8.51686 9.98657 11.3992C9.98657 8.35216 13.2845 9.24772 13.2845 6.10652C13.2845 4.53114 11.2798 2.22662 7.51323 2.22662ZM6.16895 15.3554C6.91387 15.3554 9.13486 14.9397 9.76782 14.9398C9.86112 14.9481 9.78949 15.105 9.54824 15.3554C9.10473 15.8156 6.94843 16.0021 6.16895 15.3554Z" stroke="black" stroke-width="3" stroke-linecap="round" stroke-linejoin="round"/>
</svg>
