<svg width="16" height="16" viewBox="0 0 16 16" fill="none" xmlns="http://www.w3.org/2000/svg">
<g clip-path="url(#clip0_1162_2467)">
<path d="M3.5637 8.88816C3.5637 8.88816 2.90256 8.05414 2.52265 7.66834C0.244387 5.35471 4.69445 0.765994 7.13419 2.19407C7.59635 2.46458 8.77064 3.41386 9.57393 4.24691M7.21426 12.5824C6.83154 12.2427 6.50043 11.8843 6.30127 11.5361C6.53117 11.8313 6.86451 12.2119 7.21426 12.5824ZM7.21426 12.5824C7.67523 12.9915 8.21107 13.3736 8.68142 13.6781C10.9617 15.1548 14.3251 12.2222 14.0962 9.78071C14.0962 8.02536 12.5491 7.43032 11.8946 6.71625C12.4192 7.03808 13.406 7.89594 14.0962 8.8718C14.959 10.0916 14.2421 11.728 12.7248 13.2156C11.2075 14.7031 9.24384 14.1676 8.68142 13.8998C8.40221 13.7669 7.78628 13.1883 7.21426 12.5824ZM5.85498 6.03198C6.69446 6.66988 9.53214 9.54028 10.252 10.0187C10.252 10.1124 10.1872 10.282 9.92813 10.2106C9.66904 10.1392 7.10474 7.39511 5.85498 6.03198Z" stroke="black" stroke-width="3" stroke-linecap="round" stroke-linejoin="round"/>
</g>
<defs>
<clipPath id="clip0_1162_2467">
<rect width="16" height="16" fill="white"/>
</clipPath>
</defs>
</svg>
