<svg width="16" height="17" viewBox="0 0 16 17" fill="none" xmlns="http://www.w3.org/2000/svg">
<path d="M2.0727 2.19471C1.81606 1.24819 2.82997 2.47876 2.29085 2.28822M7.85872 8.46851C7.71349 7.49181 7.53538 5.72672 7.48842 5.79716C7.33187 6.03198 7.27169 14.2114 7.85872 14.0157C8.26965 13.8787 8.1976 10.7475 7.85872 8.46851ZM7.85872 8.46851C8.20034 8.0671 11.8008 5.17101 13.0923 5.40582C14.3838 5.64063 13.5618 13.6634 13.3661 14.3679C13.1705 15.0723 12.7788 14.72 12.7788 14.3678C12.7788 14.0157 13.4834 5.87543 13.0923 5.79716C12.7011 5.71889 8.21823 8.16651 7.85872 8.46851ZM2.29085 6.4234C2.80144 6.34515 3.15384 14.0548 2.64324 14.0157C2.13265 13.9765 1.78025 6.50166 2.29085 6.4234Z" stroke="black" stroke-width="3" stroke-linecap="round" stroke-linejoin="round"/>
</svg>
