<svg width="16" height="16" viewBox="0 0 16 16" fill="none" xmlns="http://www.w3.org/2000/svg">
<path d="M6.56079 3.93279C8.21494 3.86226 12.9396 3.91945 13.3074 3.42578" stroke="black" stroke-width="3" stroke-miterlimit="10" stroke-linecap="round" stroke-linejoin="round"/>
<path fill-rule="evenodd" clip-rule="evenodd" d="M2.40851 2.05617C3.63957 2.06134 4.08036 3.31777 3.84032 4.34367C3.66138 5.10839 2.96832 5.65608 2.16759 5.55023C1.34631 5.44165 0.768549 4.68786 0.877123 3.86657C0.877123 2.86022 1.29302 2.05149 2.40851 2.05617Z" fill="black"/>
<path d="M6.78247 8.2512C8.68765 8.18067 13.3442 8.74487 13.7677 8.2512" stroke="black" stroke-width="3" stroke-miterlimit="10" stroke-linecap="round" stroke-linejoin="round"/>
<path fill-rule="evenodd" clip-rule="evenodd" d="M0.90556 8.54502C0.872265 8.37836 0.866945 8.20315 0.894009 8.02541C0.897558 8.0021 0.903304 7.96781 0.912289 7.92686C0.920364 7.89006 0.936609 7.82197 0.96617 7.73962C0.981382 7.69724 1.0049 7.63761 1.03957 7.56903C1.07258 7.50373 1.12946 7.40274 1.21936 7.29327C1.26573 7.23682 1.32673 7.17093 1.40467 7.10439C1.48284 7.03764 1.58318 6.96588 1.70739 6.90371C1.8332 6.84073 1.98031 6.78929 2.14566 6.76325C2.31136 6.73716 2.47732 6.73949 2.63681 6.76731C3.36368 6.87439 3.91993 7.50246 3.91627 8.25845C3.91595 8.32523 3.9152 8.38491 3.91367 8.43542C3.91291 8.46039 3.91174 8.49112 3.90967 8.52367C3.90862 8.54019 3.90703 8.56205 3.90458 8.58708C3.90238 8.60955 3.89807 8.64956 3.88988 8.69824C3.8857 8.72311 3.87897 8.75957 3.86852 8.80301C3.85909 8.84225 3.84035 8.91389 3.80673 8.99999C3.78941 9.04434 3.763 9.10586 3.72455 9.17601C3.68764 9.24335 3.62589 9.344 3.53061 9.45132C3.43675 9.55704 3.27781 9.70589 3.04036 9.81616C2.91882 9.8726 2.77956 9.91744 2.62539 9.93998C2.47046 9.96263 2.31541 9.96054 2.16573 9.93601C1.86685 9.88704 1.64346 9.75868 1.50007 9.64965C1.35926 9.54259 1.26529 9.43179 1.20971 9.35803C1.15178 9.28118 1.11138 9.21214 1.08529 9.16346C1.05833 9.11318 1.03838 9.06908 1.02433 9.03569C0.997021 8.97077 0.979585 8.9165 0.969807 8.88397C0.959275 8.84894 0.951727 8.81925 0.946689 8.79817C0.936856 8.75702 0.930533 8.72309 0.927063 8.70343C0.923256 8.68188 0.920402 8.66327 0.918415 8.64963C0.914521 8.6229 0.911635 8.59913 0.909779 8.58317C0.908288 8.57035 0.906857 8.55727 0.90556 8.54502Z" fill="black"/>
<path d="M6.78247 12.1212C8.61571 12.2988 11.6963 12.3302 13.7677 12.1212" stroke="black" stroke-width="3" stroke-miterlimit="10" stroke-linecap="round" stroke-linejoin="round"/>
<path fill-rule="evenodd" clip-rule="evenodd" d="M2.88389 10.7985C2.84849 10.798 2.81282 10.7988 2.77694 10.8009C1.94991 10.849 1.31847 11.5585 1.36659 12.3855C1.37001 12.4442 1.37557 12.5215 1.38589 12.5995C1.39027 12.6326 1.40089 12.7088 1.42362 12.7988C1.43388 12.8394 1.45921 12.9347 1.50951 13.0481C1.5349 13.1053 1.58211 13.2026 1.65973 13.3117C1.72945 13.4097 1.88503 13.605 2.15575 13.7552C2.47183 13.9305 2.89005 14.0093 3.3198 13.879C3.69437 13.7655 3.92183 13.5395 4.02715 13.416C4.21699 13.1934 4.29212 12.9695 4.30865 12.9202L4.30983 12.9167C4.35632 12.7789 4.37346 12.6602 4.378 12.6288L4.3783 12.6267C4.39149 12.5357 4.39758 12.4451 4.4011 12.382C4.44729 11.5549 3.81421 10.8469 2.98707 10.8007C2.95245 10.7988 2.91805 10.798 2.88389 10.7985Z" fill="black"/>
</svg>
