<svg width="16" height="18" viewBox="0 0 16 18" fill="none" xmlns="http://www.w3.org/2000/svg">
<path d="M12.8738 9.55144C13.531 9.68449 13.9786 9.86129 14.083 10.0812C14.4376 10.8286 14.2752 15.0808 14.083 15.396C13.9833 15.5593 13.5349 15.6873 12.8738 15.7819M12.8738 9.55144C10.0695 8.98374 3.449 9.21256 3.39438 10.2888C3.24261 10.7871 3.21634 15.1941 3.39438 15.396C3.92377 15.9964 10.1734 16.1681 12.8738 15.7819M12.8738 9.55144C13.696 9.78818 13.7827 15.6825 12.8738 15.7819" stroke="black" stroke-width="3" stroke-linecap="round" stroke-linejoin="round"/>
<path d="M4.90503 9.25026C4.90501 7.80366 4.90477 6.03989 4.90479 5.07552C4.90484 2.34626 7.75985 1.44741 9.80951 2.32348M9.80951 2.32348C10.8635 2.77399 11.7046 3.69385 11.8349 5.07552V8.70273H12.1745C12.1745 5.47237 12.5316 3.48698 9.80951 2.32348Z" stroke="black" stroke-width="3" stroke-miterlimit="10" stroke-linecap="round" stroke-linejoin="round"/>
</svg>
