<svg width="16" height="19" viewBox="0 0 16 19" fill="none" xmlns="http://www.w3.org/2000/svg">
<path d="M12.8762 10.0867C13.552 10.1999 14.0156 10.3645 14.1281 10.5841C14.5052 11.3204 14.472 15.5756 14.2894 15.8964C14.179 16.0904 13.5925 16.2508 12.7461 16.3739M12.8762 10.0867C10.041 9.6117 3.47261 10.042 3.45074 11.116C3.31417 11.6186 3.42166 16.0244 3.60574 16.2208C4.13075 16.781 9.90399 16.7873 12.7461 16.3739M12.8762 10.0867C13.3188 10.1758 14.137 16.2214 12.7461 16.3739" stroke="black" stroke-width="3" stroke-linecap="round" stroke-linejoin="round"/>
<path d="M12.1733 4.73504C11.7578 0.888076 7.50941 0.731726 5.62615 2.94947M5.62615 2.94947C5.0883 3.58285 4.75954 4.4599 4.79349 5.57854C4.82914 6.75358 4.8784 8.39415 4.93193 10.1567C5.05179 10.2207 5.30591 10.3102 5.36346 10.1567C5.43539 9.96494 4.59406 3.9425 5.62615 2.94947Z" stroke="black" stroke-width="3" stroke-miterlimit="10" stroke-linecap="round" stroke-linejoin="round"/>
</svg>
