<svg width="18" height="16" viewBox="0 0 18 16" fill="none" xmlns="http://www.w3.org/2000/svg">
<path d="M2.34766 3.23111C5.62237 3.1688 13.7679 3.52745 15.2751 3.22845M2.34766 3.23111C1.67459 3.7918 2.3476 12.1144 2.34766 13.2297M2.34766 3.23111C3.58507 4.50379 5.50985 7.44743 6.99933 8.70359M2.34766 3.23111C1.66668 3.7984 1.76466 10.1181 1.76466 11.0428C1.76466 11.8054 2.06027 13.3672 2.50345 13.3672M15.2751 3.22845C14.1939 4.25733 12.8636 6.78844 11.5105 7.94307M15.2751 3.22845C15.7803 3.22845 15.9585 3.23744 16.1423 4.07269C16.3261 4.90794 16.2619 12.2862 16.1423 12.7889C15.9223 13.7137 15.6788 13.8839 15.4687 13.8839M15.2751 3.22845C15.3444 3.21469 15.4089 3.21591 15.4687 3.23112M15.4687 13.8839C14.3639 13.8839 10.8252 13.3672 8.82827 13.3672C6.83137 13.3672 2.34772 14.3451 2.34766 13.2297M15.4687 13.8839C15.7468 10.5261 16.7086 3.5464 15.4687 3.23112M15.4687 13.8839C15.4687 13.8839 13.4574 11.7155 12.8847 10.7431C12.312 9.77071 11.5105 7.94307 11.5105 7.94307M2.34766 13.2297L2.50345 13.3672M9.1861 9.34577C10.1149 9.34577 10.8145 8.53703 11.5105 7.94307M9.1861 9.34577C8.25727 9.34577 7.88576 9.45117 6.99933 8.70359M9.1861 9.34577C9.97135 9.34577 11.9472 6.769 12.293 6.18712C13.162 4.72491 15.2585 3.46901 15.4687 3.23112M6.99933 8.70359C6.99933 8.70359 5.19769 10.7263 4.22852 11.5101C3.17981 12.3582 2.50345 13.3672 2.50345 13.3672" stroke="black" stroke-width="3" stroke-miterlimit="10" stroke-linecap="round" stroke-linejoin="round"/>
</svg>
