<svg width="17" height="18" viewBox="0 0 17 18" fill="none" xmlns="http://www.w3.org/2000/svg">
<path d="M6.46775 13.065C5.92504 13.4298 5.21681 13.6163 4.53921 14.0074C3.53704 14.5858 2.60812 15.3147 2.43167 15.3147C2.43167 14.9442 2.43161 5.04871 2.43167 4.82698C2.50301 4.74534 3.07115 3.9318 4.06379 3.29651C5.0063 2.69331 6.37501 2.26525 6.46775 2.24637M6.46775 13.065C6.46775 13.065 7.14833 13.8159 8.09086 14.4549C8.96321 15.0462 10.0817 15.5209 10.5702 15.7117M6.46775 13.065C6.46775 13.065 6.4368 11.0322 6.40883 10.2771C6.38087 9.52205 6.46775 6.93206 6.46775 6.40071C6.46775 5.86936 6.46775 2.24637 6.46775 2.24637M10.5702 15.7117C10.8355 15.5991 12.2381 15.1501 13.3764 14.4549C14.3992 13.8301 15.1698 12.9561 15.3675 12.8003C15.4527 11.8173 15.3675 2.64296 15.3675 1.84936C15.3325 1.82406 14.198 2.90188 12.9289 3.77193C11.7194 4.60114 10.3717 5.22398 10.3717 5.22398M10.5702 15.7117C10.5702 15.7117 10.3437 13.507 10.3717 12.7285M10.3717 5.22398C10.3717 5.22398 9.29445 4.64385 8.34255 3.91176C7.38548 3.1757 6.5535 2.28754 6.46775 2.24637M10.3717 5.22398C10.3717 5.22398 10.2751 6.20486 10.3717 8.15652M10.3717 12.7285C10.3845 12.3717 10.4535 9.80861 10.3717 8.15652M10.3717 12.7285V8.15652" stroke="black" stroke-width="3" stroke-linecap="round" stroke-linejoin="round"/>
</svg>
