<svg width="16" height="16" viewBox="0 0 16 16" fill="none" xmlns="http://www.w3.org/2000/svg">
<path d="M12.0897 6.77557C11.0842 7.42229 11.327 8.4758 12.0896 9.23838C12.8522 10.001 13.8957 9.60135 14.3617 9.33515C14.8277 9.06896 15.2316 8.03719 14.8279 7.09944C14.5654 6.48948 13.4788 5.88215 12.0897 6.77557Z" fill="black"/>
<path d="M6.93384 6.69707C5.69909 7.49123 6.17128 8.75113 6.93386 9.51371C7.42893 10.0088 8.76996 9.76566 9.32988 9.28027C9.88981 8.79488 10.1597 8.03649 9.75611 7.09874C9.49356 6.48878 8.32291 5.80364 6.93384 6.69707Z" fill="black"/>
<path d="M3.87787 9.45016C4.58929 9.08078 4.64045 7.3114 3.87787 6.54882C3.38281 6.05375 1.57055 6.60134 1.2428 6.98514C0.915057 7.36894 0.590256 8.11701 1.18395 8.94756C1.42426 9.28375 2.41831 10.208 3.87787 9.45016Z" fill="black"/>
</svg>
