<svg width="16" height="16" viewBox="0 0 16 16" fill="none" xmlns="http://www.w3.org/2000/svg">
<path d="M12.27 2.09497C11.2645 2.74165 11.7264 4.03821 12.617 4.54077C13.5076 5.04333 14.4108 4.62992 14.8768 4.36372C15.3428 4.09753 15.2804 3.46987 14.8768 2.53212C14.4731 1.59437 13.2054 1.49344 12.27 2.09497Z" fill="black"/>
<path d="M11.7145 6.53683C10.709 7.18355 11.1177 8.46385 11.8802 9.22643C12.6428 9.98901 13.6864 9.5894 14.1523 9.3232C14.6183 9.057 15.0222 8.02523 14.6185 7.08748C14.356 6.47752 13.1036 5.64341 11.7145 6.53683Z" fill="black"/>
<path d="M6.70723 1.75267C5.77147 2.35453 6.29161 3.84527 7.05419 4.60785C7.54926 5.10292 8.88368 5.09324 9.4436 4.60785C10.0035 4.12246 9.90608 3.46985 9.50245 2.5321C9.2399 1.92214 8.0963 0.859248 6.70723 1.75267Z" fill="black"/>
<path d="M6.70723 6.53683C5.83144 7.3188 6.46814 8.33281 7.23072 9.09539C7.72579 9.59046 8.94252 9.58078 9.50245 9.09539C10.0624 8.61 9.90608 7.94874 9.50245 7.01099C9.2399 6.40103 7.9392 5.43684 6.70723 6.53683Z" fill="black"/>
<path d="M3.82123 4.30155C4.53265 3.93217 4.20618 2.51525 3.4436 1.75267C2.94854 1.2576 1.51391 1.45273 1.18616 1.83653C0.858416 2.22034 0.533616 2.9684 1.12731 3.79896C1.36762 4.13515 2.36167 5.05939 3.82123 4.30155Z" fill="black"/>
<path d="M4.15497 9.21135C4.86639 8.84197 4.70591 7.14973 3.94333 6.38715C3.44826 5.89209 1.68445 6.00335 1.3567 6.38715C1.02896 6.77095 0.704158 7.51902 1.29785 8.34958C1.53816 8.68577 2.69541 9.96919 4.15497 9.21135Z" fill="black"/>
<path d="M11.7145 11.4166C11.0774 11.8264 11.3759 13.0783 12.1385 13.8409C12.9011 14.6035 13.9446 14.2039 14.4106 13.9377C14.8766 13.6715 15.2804 12.6397 14.8768 11.7019C14.6142 11.092 13.1036 10.5232 11.7145 11.4166Z" fill="black"/>
<path d="M6.53066 11.5485C5.84843 11.9873 6.10113 13.4604 6.86371 14.223C7.35878 14.7181 8.94252 14.7084 9.50245 14.223C10.0624 13.7376 9.90608 12.6397 9.50245 11.7019C9.2399 11.092 7.91974 10.655 6.53066 11.5485Z" fill="black"/>
<path d="M3.94333 13.9377C4.65475 13.5683 4.58381 12.1792 3.82123 11.4166C3.32617 10.9215 1.88662 10.5737 1.29785 11.2631C0.709085 11.9526 0.704239 12.6506 1.29793 13.4812C1.53824 13.8174 2.48377 14.6955 3.94333 13.9377Z" fill="black"/>
</svg>
