<svg width="16" height="16" viewBox="0 0 16 16" fill="none" xmlns="http://www.w3.org/2000/svg">
<path d="M9.16265 5.25547C10.2159 4.68989 10.0833 3.52554 9.38306 2.70531C8.92849 2.17282 7.12405 2.15898 6.76711 2.5158C6.41018 2.87262 5.84194 3.69041 6.17053 4.65702C6.38426 5.28575 7.70757 6.03681 9.16265 5.25547Z" fill="black"/>
<path d="M9.16275 9.5514C10.4562 8.85687 10.1397 7.63194 9.43947 6.81171C8.9849 6.27921 7.3636 6.3719 6.76721 6.81173C6.17082 7.25154 5.84204 7.98634 6.17062 8.95295C6.38435 9.58168 7.70767 10.3327 9.16275 9.5514Z" fill="black"/>
<path d="M9.1628 13.4382C9.90108 13.1259 10.0834 11.7082 9.38321 10.888C8.92864 10.3555 6.74072 10.5312 6.38378 10.888C6.02685 11.2448 5.64419 11.965 6.17067 12.8397C6.38378 13.1938 7.64812 14.0788 9.1628 13.4382Z" fill="black"/>
</svg>
