<svg width="20" height="18" viewBox="0 0 20 18" fill="none" xmlns="http://www.w3.org/2000/svg">
<path d="M2.18822 16.077C1.80641 13.8691 1.169 7.45772 2.44299 5.2923C3.71698 3.12688 4.60959 2.03745 10.0857 1.89555M10.0857 1.89555C15.3883 1.75815 16.5395 2.32013 17.4312 5.2923C18.3228 8.26447 17.8557 14.6334 17.4312 16.077C17.452 16.2519 17.5305 16.5493 17.6772 16.3394C17.8605 16.077 18.7636 7.71559 17.4312 4.60617C16.3998 2.19926 15.5585 1.75375 10.0857 1.89555ZM13.0231 13.8748C13.0231 13.8748 13.2006 15.8783 13.0231 16.077C12.8457 16.2757 12.5902 16.2993 12.4637 16.077C12.3372 15.8547 12.2669 14.6183 12.3376 13.9077M13.0231 13.8748C12.8498 13.9016 12.5362 13.8875 12.3376 13.9077M13.0231 13.8748C13.3035 13.8314 13.5464 13.7794 13.738 13.7189C14.3327 13.5309 14.2495 13.0911 14.2664 12.5378C14.3147 10.9581 14.1965 8.01057 13.738 6.69347C13.5359 6.11291 13.1747 5.91704 12.585 5.77423C11.1216 5.41981 8.34623 5.40139 7.03193 5.93638C6.27676 6.24378 6.3176 6.70801 6.29429 7.40844C6.23352 9.23461 5.98164 11.3121 6.08742 12.5378C6.12483 12.9713 6.17631 13.4293 6.61358 13.6131C6.7931 13.6886 7.0365 13.754 7.32613 13.8094M12.3376 13.9077C11.0011 14.044 9.29309 14.0691 7.96866 13.9077M7.96866 13.9077C7.96866 13.9077 8.14911 15.8994 7.96866 16.077C7.78821 16.2546 7.43351 16.2361 7.32613 16.077C7.21874 15.9178 7.32613 13.8094 7.32613 13.8094M7.96866 13.9077C7.73711 13.8795 7.52114 13.8467 7.32613 13.8094" stroke="black" stroke-width="3" stroke-linecap="round" stroke-linejoin="round"/>
</svg>
