<svg width="16" height="19" viewBox="0 0 16 19" fill="none" xmlns="http://www.w3.org/2000/svg">
<path d="M3.04414 6.21069C2.91356 8.59283 3.43633 11.5043 4.96157 12.166C5.78333 12.5225 7.2061 12.815 8.6095 12.8365M13.3941 6.21069C13.3941 7.35765 13.4814 11.0632 11.782 12.166C10.9981 12.6747 9.81092 12.8549 8.6095 12.8365M8.6095 12.8365L8.44931 16.4319C7.81116 16.5595 6.01279 16.6053 6.02436 16.8467C6.03592 17.0881 11.782 17.1218 11.782 16.9743C11.782 16.8268 9.78941 16.5702 8.92792 16.4319L8.6095 12.8365Z" stroke="black" stroke-width="3" stroke-linecap="round" stroke-linejoin="round"/>
<path d="M6.90527 5.6218C6.90527 4.53509 6.93388 4.10524 7.47535 2.21006C7.5014 2.11888 7.63365 1.86738 8.24456 1.88484C8.87503 1.90285 9.25689 2.21827 9.34591 2.41536C9.45263 2.65167 9.58375 3.15224 9.67595 3.88404C9.76411 4.5837 9.80376 5.38745 9.78416 6.1617C9.76432 6.94549 9.68516 7.63973 9.56166 8.13996C9.5135 8.33506 9.46593 8.47003 9.42864 8.55535C8.61908 8.93217 7.85629 8.82741 7.4801 8.57045C7.47234 8.56169 7.42432 8.50891 7.35618 8.36877C7.26566 8.18263 7.17811 7.92121 7.10467 7.59217C6.95741 6.93244 6.90527 6.1782 6.90527 5.6218ZM9.38034 8.64872C9.38026 8.64851 9.3823 8.64514 9.38667 8.63926C9.38259 8.64598 9.38041 8.64892 9.38034 8.64872Z" stroke="black" stroke-width="3" stroke-linecap="round" stroke-linejoin="round"/>
</svg>
