<svg width="20" height="16" viewBox="0 0 20 16" fill="none" xmlns="http://www.w3.org/2000/svg">
<path d="M17.0034 3.79833C15.848 3.79833 2.80629 3.59483 2.48928 3.79833C2.17227 4.00184 2.48928 11.2215 2.48928 11.7415M17.0034 3.79833C17.9278 3.79833 17.1783 9.46975 16.7932 12.1175C11.9551 12.3341 2.48928 12.2614 2.48928 11.7415M17.0034 3.79833C17.2324 3.79833 17.7066 3.92074 17.7719 4.41039C17.8534 5.02244 17.9286 12.0359 17.2825 12.4437C16.6364 12.8515 3.09174 12.4845 2.80629 12.4437C2.57793 12.4111 2.4998 11.9619 2.48928 11.7415" stroke="black" stroke-width="3" stroke-linecap="round" stroke-linejoin="round"/>
<path d="M9.90207 5.66066C10.0135 5.66066 10.1258 5.67542 10.2376 5.70321C11.1466 5.87111 12.4976 6.52409 12.5266 8.20319C12.5676 10.5816 10.3038 10.6067 9.90207 10.5816C8.18009 10.5816 6.90816 9.22838 7.11335 7.7521C7.31855 6.27582 8.83552 5.66071 9.90207 5.66066Z" fill="black"/>
<path d="M2.71991 6.69049C3.97811 6.69049 5.95757 5.79896 5.95757 3.87524H2.11035L2.71991 6.69049Z" fill="black"/>
<path d="M16.8601 9.18096C15.6263 8.93417 13.0898 9.74046 12.7144 12.3212L16.9056 12.0611L16.8601 9.18096Z" fill="black"/>
<path d="M2.61991 8.41537C3.45927 8.58326 5.65893 8.95799 6.09304 11.8339L2.62016 11.834L2.61991 8.41537Z" fill="black"/>
<path d="M17.0002 6.62927C15.837 6.62927 13.4431 5.79896 13.4431 3.87524H17.4246L17.0002 6.62927Z" fill="black"/>
</svg>
