<svg width="16" height="16" viewBox="0 0 16 16" fill="none" xmlns="http://www.w3.org/2000/svg">
<path d="M5.9094 12.8041C6.027 13.4908 5.12748 13.8056 4.00247 14.013C2.87745 14.2204 1.89706 13.9161 1.82394 13.4198C1.75081 12.9235 2.76595 12.388 3.73087 12.2109C4.69578 12.0338 5.7918 12.1174 5.9094 12.8041Z" fill="black" stroke="black" stroke-width="3" stroke-linecap="round" stroke-linejoin="round"/>
<path d="M13.4577 10.3492C13.4828 11.0333 12.3768 11.402 11.5721 11.6998C10.7674 11.9975 9.50643 11.9287 9.37446 11.244C9.24249 10.5593 10.3234 9.77553 11.2578 9.61441C12.1923 9.45329 13.4326 9.6651 13.4577 10.3492Z" fill="black" stroke="black" stroke-width="3" stroke-linecap="round" stroke-linejoin="round"/>
<path d="M13.4868 2.4892C13.5922 4.92952 13.6132 9.57866 13.4868 10.1686" stroke="black" stroke-width="3" stroke-linecap="round" stroke-linejoin="round"/>
<path d="M5.89863 12.7188C5.94069 11.3494 6.09156 6.42164 5.89844 4.12177" stroke="black" stroke-width="3" stroke-linecap="round" stroke-linejoin="round"/>
<path d="M5.79761 3.69385C5.79754 4.35426 6.05398 4.79987 6.01535 6.16926L13.4886 4.11518C13.6047 3.52529 13.5164 2.47107 13.4886 1.77142C13.4609 1.07176 5.79768 3.03343 5.79761 3.69385Z" fill="black" stroke="black" stroke-width="3" stroke-linecap="round" stroke-linejoin="round"/>
</svg>
