<svg width="20" height="19" viewBox="0 0 20 19" fill="none" xmlns="http://www.w3.org/2000/svg">
<path d="M9.66443 16.9282C11.6474 16.9282 13.657 16.4077 15.1915 15.0683C16.7612 13.6982 17.6355 11.6446 17.6355 9C17.6355 4.42404 13.4734 1.7646 10.1122 2.0517C7.17606 2.3025 3.05431 3.73278 1.78436 8.62297C1.09902 11.262 2.1117 13.4358 3.78384 14.8575C5.3922 16.2249 7.61736 16.9282 9.66443 16.9282Z" stroke="black" stroke-width="3" stroke-miterlimit="10" stroke-linecap="round" stroke-linejoin="round"/>
<path d="M6.31714 11.8212C6.91853 11.407 12.2983 12.4819 12.8869 11.8212C12.0816 12.7252 6.71097 11.5499 6.31714 11.8212Z" stroke="black" stroke-width="3" stroke-miterlimit="10" stroke-linecap="round" stroke-linejoin="round"/>
<path d="M12.1797 6.9096C12.1797 7.11697 12.1797 6.92633 12.1797 7.03983" stroke="black" stroke-width="3" stroke-miterlimit="10" stroke-linecap="round" stroke-linejoin="round"/>
<path d="M7.83337 6.89076C7.8161 7.06481 7.88269 6.91875 7.83314 7.09788" stroke="black" stroke-width="3" stroke-miterlimit="10" stroke-linecap="round" stroke-linejoin="round"/>
</svg>
