<svg width="16" height="16" viewBox="0 0 16 16" fill="none" xmlns="http://www.w3.org/2000/svg">
<path d="M9.10645 9.74425C8.80107 10.031 8.50107 10.3128 8.23495 10.5645L8.21077 10.5874C6.87756 11.8485 5.09921 13.3742 4.10533 13.2095C3.93905 13.182 3.85605 12.8716 3.85591 12.6267C3.85577 12.3818 3.62674 11.4322 3.73161 9.96546C3.7846 9.22427 3.84243 8.41549 3.85579 7.61943C3.87053 6.74118 3.8144 5.87841 3.7663 5.13895C3.69571 4.05373 3.6424 3.23409 3.85569 3.02089C4.60674 2.27015 7.80177 4.55502 8.66572 5.33636C8.84776 5.50099 9.02209 5.65568 9.18814 5.8008C9.65434 6.20822 9.72176 6.35278 9.68244 5.6825C9.67112 5.48949 9.65916 5.30175 9.64763 5.1209C9.60101 4.38922 9.56156 3.77032 9.60086 3.37147C9.62983 3.07751 9.76533 2.83173 10.0424 2.7865C10.2404 2.75417 10.9783 2.82066 11.555 2.90925C12.0337 2.98277 12.2022 2.97074 12.2394 3.486C12.322 4.62699 12.1237 7.52849 12.1237 8.38859C12.1237 9.45644 12.3635 11.396 12.2763 12.0934C12.1891 12.7908 12.4008 12.9112 12.1237 13.0087C11.8466 13.1061 10.6854 13.2095 10.6854 13.2095C10.6854 13.2095 10.3806 13.185 10.2115 12.7045C10.0424 12.2241 9.77697 10.9792 9.73978 9.74425C9.71668 8.97715 9.59151 9.28874 9.10645 9.74425Z" fill="black"/>
</svg>
