<svg width="16" height="16" viewBox="0 0 16 16" fill="none" xmlns="http://www.w3.org/2000/svg">
<path d="M12.4556 6.0019C13.8072 6.94809 14.2932 9.51371 13.582 11.0483C12.726 12.8956 10.6954 14.3686 8.12716 14.3686C8.08072 14.3686 8.0338 14.3678 7.98641 14.3663M7.98641 14.3663C4.47667 14.2564 2.09179 11.9435 2.09204 9.6515C2.09219 8.2998 2.73235 6.77798 3.94861 6.46258C3.04909 7.09453 2.85775 8.8585 2.85775 9.6515C2.85775 11.6495 5.14227 14.3663 7.98641 14.3663ZM8.44255 2.63141C7.7667 4.43368 7.09971 8.6515 8.12716 8.6515C8.80301 8.6515 8.80301 6.13707 8.80301 5.77662C8.80301 5.05571 8.84807 4.65896 8.44255 2.63141Z" stroke="black" stroke-width="3" stroke-miterlimit="10" stroke-linecap="round" stroke-linejoin="round"/>
</svg>
