<svg width="16" height="18" viewBox="0 0 16 18" fill="none" xmlns="http://www.w3.org/2000/svg">
<path d="M2.66626 15.9354C3.12585 13.2081 4.33119 10.2461 7.54829 10.2461M7.54829 10.2461C10.7654 10.2461 13.0633 11.337 13.5229 15.7006C13.4503 15.8571 13.2443 16.1232 13.0007 15.9354C12.6962 15.7006 12.639 10.2461 7.54829 10.2461Z" stroke="black" stroke-width="3" stroke-miterlimit="10" stroke-linecap="round" stroke-linejoin="round"/>
<path d="M6.84319 2.75161C5.81872 3.17216 5.12721 3.95019 4.8121 4.89138C4.51036 5.79263 4.58083 6.74918 4.85784 7.58815C5.19769 8.61743 5.97995 9.40592 6.83443 9.82833C7.66773 10.2403 8.90168 10.442 9.95672 9.69548C10.6158 9.22918 11.0994 8.64288 11.3526 7.9045C11.5924 7.20548 11.5763 6.50889 11.5057 5.91101C11.395 4.97334 10.8279 4.04036 10.1265 3.4213C9.40929 2.78825 8.1918 2.19801 6.84319 2.75161Z" stroke="black" stroke-width="3" stroke-miterlimit="10" stroke-linecap="round" stroke-linejoin="round"/>
</svg>
