<svg width="19" height="16" viewBox="0 0 19 16" fill="none" xmlns="http://www.w3.org/2000/svg">
<path d="M16.4014 8.95752C16.5 8 16.4957 7.93798 16.6036 6.77662M16.4014 8.95752C16.4483 9.45649 15.5986 9.86123 13.931 9.69431C12.4967 9.55075 12.6365 9.33849 12.5 8.54678M16.4014 8.95752C15.9987 7.94645 14.9446 7.72664 13.2316 8.1244C12.8048 8.2235 12.5742 8.37186 12.5 8.54678M16.6036 6.77662C16.7114 5.61526 11.4307 4.65808 8.47112 4.77975C6.11425 4.87663 3.51749 5.78197 2.23358 6.77662M16.6036 6.77662C16.7114 5.61526 12.7334 4.325 7.5 4.77975C4.93016 5.00304 2.24627 5.85799 2.23358 6.77662M2.23358 6.77662C2.02134 6.94105 1.74972 7.18201 1.94642 8.54678M1.94642 8.54678C2.10824 9.66954 2.49148 9.71028 3.98896 9.81702C5.48644 9.92377 6.06251 9.69269 6.02233 9.02325M1.94642 8.54678C3.6248 7.57777 5.63326 7.6229 5.9744 8.74905M6.02233 9.02325C6.01648 8.92565 6.00021 8.83426 5.9744 8.74905M6.02233 9.02325C5.99421 8.94387 5.97918 8.85091 5.9744 8.74905M5.9744 8.74905C5.94119 8.04112 6.40309 6.90322 6.40309 6.90322M12.5 8.54678V7.5M12.5 7.5C12.1696 6.62816 7.18806 6.45002 6.40309 6.90322M12.5 7.5C12.5095 7.19701 10.9871 6.54238 10.4883 6.44484C9.86473 6.32292 7.40964 6.39623 7.12731 6.48509L7.11765 6.48813C6.89119 6.55936 6.53535 6.6713 6.40309 6.90322" stroke="black" stroke-width="3" stroke-miterlimit="10" stroke-linecap="round" stroke-linejoin="round"/>
</svg>
