<svg width="16" height="18" viewBox="0 0 16 18" fill="none" xmlns="http://www.w3.org/2000/svg">
<path d="M3.54566 14.8904C4.37877 15.2722 4.9659 15.5061 5.7888 15.5975M3.54566 14.8904C3.09005 14.6816 3.1644 13.7434 4.14276 12.3827C4.98422 11.2123 5.54718 10.7482 6.30106 11.0259M3.54566 14.8904C4.6226 15.0473 5.78904 13.553 6.30106 11.8707C6.42863 11.4515 6.41543 11.1777 6.30106 11.0259M5.7888 15.5975C6.6117 15.689 9.75442 12.7354 11.1288 10.1115C12.2234 8.022 12.7377 5.32046 12.5183 3.71124M5.7888 15.5975C7.04209 15.7368 10.1694 13.0754 11.3438 10.5607C12.4353 8.22352 13.3075 4.18154 12.5183 3.71124M12.5183 3.71124C12.482 3.44521 12.4091 3.08951 11.1288 2.57747M11.1288 2.57747C10.0756 2.15623 9.84869 2.46775 9.00751 3.71124C8.16633 4.95473 8.07841 5.56915 8.67825 5.86908M11.1288 2.57747C11.1288 4.66212 9.92169 6.49082 8.67825 5.86908M8.67825 5.86908C9.33664 5.99099 10.3239 7.25884 10.3239 7.25884M6.30106 11.0259L7.61719 11.5049M7.61719 11.5049C8.53741 11.6547 10.3239 8.16524 10.3239 7.25884M7.61719 11.5049C7.87486 11.6646 8.34436 11.4091 8.67825 11.0259C9.0956 10.5469 10.2597 8.38404 10.3239 8.0951C10.3752 7.86395 10.4605 7.49265 10.3239 7.25884" stroke="black" stroke-width="3" stroke-miterlimit="10" stroke-linecap="round" stroke-linejoin="round"/>
</svg>
