<svg width="18" height="16" viewBox="0 0 18 16" fill="none" xmlns="http://www.w3.org/2000/svg">
<path d="M11.8199 3.72713L10.6719 4.6926L11.8199 3.72713C11.3327 3.14789 10.7484 2.96843 10.2656 2.90401C9.58289 2.81292 8.55928 2.83377 7.93068 2.8988C7.68307 2.92441 7.31024 2.97704 6.93088 3.1871C6.55708 3.39409 6.31672 3.67786 6.17489 3.85262L6.16361 3.86651C6.09196 3.95481 6.02835 4.0332 5.96261 4.10987C5.94496 4.13046 5.92818 4.14971 5.91224 4.16766C5.76551 4.16316 5.58654 4.15788 5.36 4.15397C4.96006 4.14707 4.43958 4.14635 4.01604 4.1966C3.79541 4.22278 3.47628 4.28186 3.16063 4.45912C2.78867 4.668 2.51359 4.98847 2.36345 5.37433C2.23992 5.69182 2.23031 5.98585 2.22738 6.11043C2.2257 6.18195 2.22638 6.25271 2.22685 6.30035L2.22688 6.30423L2.22689 6.30539C2.22742 6.35964 2.22779 6.39838 2.22735 6.43843C2.21433 7.61155 2.22909 9.91244 2.23654 10.986C2.2366 10.9952 2.23666 11.005 2.23672 11.0152C2.23749 11.1503 2.23874 11.3683 2.2653 11.563C2.29513 11.7817 2.39328 12.2946 2.86188 12.693C3.27782 13.0467 3.74818 13.0953 3.89296 13.1102L3.89422 13.1103C4.03341 13.1247 4.20919 13.1301 4.33655 13.1339C4.36334 13.1348 4.38799 13.1355 4.4097 13.1363C5.81824 13.1852 8.84632 13.1437 11.0812 13.0584C11.556 13.0403 12.0384 13.0601 12.5174 13.0797C12.7831 13.0906 13.0477 13.1014 13.3094 13.1058C13.3159 13.1059 13.3228 13.106 13.33 13.1061C13.4313 13.1079 13.5974 13.1108 13.755 13.0983C13.9287 13.0847 14.2451 13.0444 14.5739 12.8596C15.3273 12.4363 15.4752 11.6621 15.5237 11.408L15.5239 11.4068C15.6492 10.751 15.7398 9.69219 15.7684 8.6987C15.7956 7.75581 15.7778 6.59948 15.5797 5.85613C15.4854 5.50249 15.2707 4.9787 14.7157 4.63524C14.275 4.36246 13.805 4.33854 13.64 4.33014C13.6336 4.32982 13.6277 4.32951 13.6222 4.32922C13.3754 4.316 13.1186 4.32073 12.906 4.32637C12.8396 4.32814 12.7777 4.32997 12.7188 4.33171C12.5697 4.33613 12.4405 4.33995 12.3107 4.34049C12.2873 4.34059 12.2653 4.34055 12.2445 4.34041C12.2057 4.27701 12.1588 4.20086 12.1159 4.13427C12.0424 4.02027 11.9429 3.87341 11.8199 3.72713ZM12.405 4.59045C12.405 4.59051 12.404 4.58925 12.4018 4.58647C12.404 4.58901 12.405 4.5904 12.405 4.59045Z" stroke="black" stroke-width="3" stroke-linecap="round" stroke-linejoin="round"/>
<path d="M9.99566 8.4463C9.99566 9.0139 9.41365 9.39279 8.84605 9.39279C8.27845 9.39279 7.79907 9.0139 7.79907 8.4463C7.79907 7.8787 8.27845 7.38635 8.84605 7.38635C9.41365 7.38635 9.99566 7.8787 9.99566 8.4463Z" fill="black" stroke="black" stroke-width="3" stroke-linecap="round" stroke-linejoin="round"/>
</svg>
