<svg width="18" height="16" viewBox="0 0 18 16" fill="none" xmlns="http://www.w3.org/2000/svg">
<path d="M7.25376 2.89666C6.07031 2.93435 5.11409 2.85019 4.39415 2.78584C4.37453 2.78409 4.35476 2.78231 4.33486 2.78053C4.01567 2.75189 3.66268 2.72022 3.38429 2.72231C3.2446 2.72336 2.99441 2.73127 2.73057 2.80883C2.4822 2.88184 1.86185 3.13076 1.62129 3.86195C1.56905 4.02074 1.55217 4.16497 1.54825 4.19845C1.54807 4.19994 1.54792 4.2012 1.5478 4.20225C1.54062 4.26219 1.53592 4.32117 1.53261 4.37062C1.52586 4.47149 1.5211 4.59111 1.51755 4.71799C1.51036 4.9749 1.50678 5.31246 1.50646 5.69679C1.5058 6.46787 1.51823 7.46069 1.54443 8.44217C1.57052 9.41955 1.61079 10.4065 1.66745 11.1581C1.69524 11.5268 1.72969 11.8776 1.77517 12.1524C1.79595 12.2779 1.8302 12.4596 1.89154 12.6371C1.91852 12.7152 1.98404 12.8938 2.11711 13.0804C2.21528 13.2181 2.64001 13.7613 3.4304 13.729C3.51226 13.7256 3.59372 13.7156 3.67394 13.6989C3.96607 13.6383 4.76741 13.5765 5.97387 13.5201C6.74262 13.4842 7.60512 13.4528 8.49309 13.4205C8.93894 13.4042 9.39121 13.3877 9.84126 13.3703C11.1697 13.319 12.4796 13.2596 13.462 13.1743C13.9444 13.1325 14.4019 13.0801 14.7582 13.0076C14.9229 12.9741 15.1565 12.9191 15.3798 12.8197C15.4861 12.7723 15.6869 12.6734 15.8809 12.4897C16.0841 12.2974 16.399 11.8887 16.3744 11.2865C16.3697 11.1724 16.3598 10.8239 16.3457 10.3324C16.3242 9.58583 16.2934 8.50952 16.2574 7.42431C16.2279 6.53755 16.1953 5.65394 16.1623 4.97437C16.1459 4.63633 16.1289 4.33731 16.1113 4.10975C16.1027 3.99809 16.0928 3.88692 16.0807 3.79038C16.0749 3.74361 16.0662 3.6809 16.0533 3.61436C16.0532 3.61381 16.053 3.61288 16.0528 3.6116C16.0477 3.58379 16.0121 3.38868 15.9085 3.1834C15.7326 2.83523 15.4729 2.65014 15.3422 2.57011C15.1995 2.4827 15.0712 2.43614 14.9977 2.4125C14.8504 2.36514 14.7206 2.34662 14.6541 2.33835C14.508 2.32017 14.3565 2.31599 14.2362 2.31514C13.9815 2.31335 13.656 2.32642 13.307 2.34644C12.5995 2.38701 11.6816 2.46303 10.7837 2.54488C9.88215 2.62706 8.98587 2.71651 8.31597 2.78529C7.98075 2.81971 7.70162 2.84901 7.50611 2.86974L7.27887 2.89396L7.25376 2.89666Z" stroke="black" stroke-width="3" stroke-linecap="round" stroke-linejoin="round"/>
<path d="M3.16748 10.6656C3.48174 10.6656 4.10803 10.2632 4.95438 9.93382C5.65976 9.65926 6.61168 9.44753 6.78822 9.44753C7.17659 9.44753 8.71262 10.2727 9.16995 10.2727C9.62729 10.2727 11.4588 7.85171 12.1257 7.23615C12.9832 7.4457 14.5501 9.23282 15.1357 9.23282" stroke="black" stroke-width="3" stroke-linecap="round" stroke-linejoin="round"/>
<path d="M6.88307 7.06249C6.43201 7.84376 5.51032 8.0604 4.72905 7.60934C3.94779 7.15827 3.75529 6.5255 3.98576 5.7955C4.27055 4.89347 5.47777 4.50826 6.25904 4.95932C7.04031 5.41039 7.33414 6.28122 6.88307 7.06249Z" fill="black"/>
</svg>
