<svg width="16" height="17" viewBox="0 0 16 17" fill="none" xmlns="http://www.w3.org/2000/svg">
<path d="M13.1784 7.00654C13.1784 4.09101 10.4878 2.01514 7.88161 2.01514C6.62627 2.01514 5.36149 2.38637 4.39553 3.27743C3.40931 4.18719 2.89941 5.48721 2.89941 7.00654C2.89941 7.89987 3.2017 8.82679 3.54354 9.61594C3.89802 10.4343 4.36028 11.25 4.81036 11.9608C5.2626 12.6751 5.72074 13.3121 6.08284 13.7777C6.2626 14.0088 6.42867 14.2105 6.56592 14.3639C6.63147 14.4372 6.70974 14.5212 6.79076 14.5969C6.82796 14.6317 6.89619 14.6935 6.98382 14.7563C7.02663 14.7869 7.10563 14.8407 7.21119 14.8924C7.28511 14.9287 7.53593 15.0486 7.88161 15.0486C8.21621 15.0486 8.46038 14.9356 8.52613 14.905C8.62596 14.8584 8.70151 14.8101 8.7426 14.7825C8.82697 14.726 8.89405 14.6698 8.9318 14.6372C9.01373 14.5665 9.0948 14.487 9.16488 14.4154C9.31096 14.2661 9.48986 14.0685 9.68541 13.8399C10.0787 13.38 10.5791 12.7484 11.0743 12.0365C11.5667 11.3284 12.0747 10.5113 12.4651 9.68445C12.8412 8.88791 13.1784 7.93853 13.1784 7.00654Z" stroke="black" stroke-width="3" stroke-miterlimit="10" stroke-linecap="round" stroke-linejoin="round"/>
<path fill-rule="evenodd" clip-rule="evenodd" d="M11.6784 7.00654C11.6784 4.87235 9.82272 3.51514 7.88161 3.51514C5.94049 3.51514 4.39941 4.65755 4.39941 7.00654C4.39941 8.24059 5.5556 13.8329 7.88161 13.8329C10.2076 13.8329 11.6784 8.96009 11.6784 7.00654ZM7.91723 4.37012C9.34371 4.37012 10.57 5.61833 10.57 7.06782C10.57 8.59623 7.94332 9.46732 7.25885 9.16164C6.57438 8.85596 5.43002 8.00065 5.43002 7.06782C5.43002 6.15341 6.49074 4.37012 7.91723 4.37012Z" fill="black"/>
</svg>
