<svg width="16" height="16" viewBox="0 0 16 16" fill="none" xmlns="http://www.w3.org/2000/svg">
<path d="M10.9231 8.21702C10.9231 6.60609 10.5284 5.5426 10.5284 3.70154C10.5284 4.1618 9.95835 12.8558 10.2653 12.6256C10.5109 12.4415 10.9231 9.82795 10.9231 8.21702Z" fill="black"/>
<path d="M14.4569 3.70154C14.4569 4.1618 13.8868 12.8558 14.1938 12.6256M10.5284 3.70154C10.5284 5.5426 10.9231 6.60609 10.9231 8.21702C10.9231 9.82795 10.5109 12.4415 10.2653 12.6256C9.95835 12.8558 10.5284 4.1618 10.5284 3.70154Z" stroke="black" stroke-width="3" stroke-miterlimit="10" stroke-linecap="round" stroke-linejoin="round"/>
<path fill-rule="evenodd" clip-rule="evenodd" d="M1.44852 13.7544C0.93081 13.7544 0.705567 13.2236 0.678064 13.1588C0.581861 12.9322 0.552063 12.6858 0.534562 12.4422C0.390036 10.4312 0.517378 8.38885 0.550978 6.37384C0.561968 5.71477 0.080447 1.68689 1.68755 2.2895C1.88902 2.36505 2.17814 2.52843 2.45928 2.69692C3.21535 3.34332 4.788 4.71174 5.35988 5.28361C5.78136 5.70509 7.14584 6.65909 7.83437 7.40154C8.33968 7.94643 8.28636 8.33032 7.83437 8.90739C7.35318 9.52173 6.5578 10.2134 6.09515 10.6347C5.39925 11.2685 4.23648 12.2575 3.34962 12.7788C2.98211 12.9949 1.88293 13.7544 1.44852 13.7544Z" fill="black"/>
</svg>
