<svg width="16" height="16" viewBox="0 0 16 16" fill="none" xmlns="http://www.w3.org/2000/svg">
<path fill-rule="evenodd" clip-rule="evenodd" d="M4.85637 12.6431L5.28352 13.669C5.14816 13.7254 5.00299 13.7544 4.85637 13.7544C4.18645 13.7544 3.89498 13.2236 3.85939 13.1588L3.859 13.1581C3.78158 13.0171 3.74731 12.886 3.73324 12.8286C3.70056 12.6951 3.68401 12.553 3.6737 12.4422C3.65156 12.2042 3.63968 11.889 3.63336 11.5386C3.62056 10.8288 3.62917 9.86912 3.64576 8.85243C3.65913 8.03331 3.67757 7.17861 3.69494 6.3738C3.72125 5.15469 3.74508 4.05004 3.74508 3.35685C3.74508 3.00741 3.90944 2.67831 4.18882 2.4684C4.46819 2.25848 4.83003 2.1922 5.16567 2.28946C5.42638 2.36501 5.80051 2.52839 6.16431 2.69688C6.5544 2.87755 7.01592 3.10383 7.48832 3.3423C8.43225 3.81879 9.4485 4.35851 10.0736 4.70925C11.242 5.3648 12.1159 5.93802 12.7093 6.37479C13.0038 6.59162 13.2417 6.78394 13.4159 6.94334C13.5003 7.0206 13.5893 7.10779 13.6661 7.19857C13.7031 7.24225 13.7575 7.31047 13.8089 7.39623C13.8089 7.39623 13.8102 7.39846 13.811 7.39976C13.8407 7.44902 13.9793 7.6792 13.9793 7.99998C13.9793 8.25255 13.8901 8.44565 13.8753 8.47771C13.8747 8.47908 13.8738 8.48093 13.8738 8.48093C13.8432 8.54897 13.8104 8.6061 13.786 8.64609C13.7354 8.72903 13.6759 8.81134 13.6149 8.88878C13.4902 9.04699 13.3198 9.23463 13.1013 9.44143C12.6621 9.85716 12.0058 10.3721 11.0825 10.8996C9.92057 11.5633 8.46403 12.2575 7.31642 12.7788C6.73881 13.0412 6.23207 13.2631 5.86944 13.4196C5.68803 13.4979 5.54243 13.5598 5.44178 13.6024C5.39145 13.6237 5.35234 13.6402 5.32559 13.6514L5.29486 13.6643L5.28352 13.669C5.28352 13.669 5.28352 13.669 4.85637 12.6431Z" fill="black"/>
</svg>
