<svg width="16" height="16" viewBox="0 0 16 16" fill="none" xmlns="http://www.w3.org/2000/svg">
<path fill-rule="evenodd" clip-rule="evenodd" d="M9.4891 2.62603C9.48909 2.62595 9.48908 2.62589 8.00673 2.85536L9.48908 2.62589C9.44034 2.31108 9.29265 2.01996 9.06739 1.7947C8.87188 1.59919 8.55413 1.39316 8.12545 1.35719C7.71373 1.32264 7.39308 1.4616 7.20584 1.57691C6.89407 1.76893 6.73631 2.02526 6.70088 2.08282L6.69863 2.08647C6.59666 2.25157 6.53852 2.41429 6.51689 2.47529C6.4582 2.64081 6.40399 2.84167 6.35692 3.03226C6.25832 3.43152 6.14648 3.97039 6.04189 4.54446C5.95576 5.01716 5.86821 5.54806 5.79602 6.07054C4.74938 6.12267 3.55284 6.21733 2.6966 6.38857C2.16831 6.49423 1.73726 6.87509 1.56734 7.38634C1.39741 7.89759 1.51472 8.4607 1.87465 8.86158C2.08521 9.09609 2.31819 9.21776 2.44745 9.27629C2.59052 9.34108 2.72477 9.38058 2.82531 9.40565C3.02522 9.4555 3.23144 9.48202 3.40222 9.49859C3.74968 9.53228 4.16078 9.54319 4.52311 9.55009C4.62528 9.55204 4.72412 9.55368 4.81969 9.55526C5.08782 9.55971 5.33017 9.56373 5.54806 9.5729C5.62493 9.57614 5.68744 9.57978 5.73733 9.58322C5.87446 10.7312 6.11726 11.936 6.32052 12.9446C6.3458 13.0701 6.37046 13.1924 6.39423 13.3113C6.53183 13.9993 7.12798 14.5 7.82942 14.5167C8.53085 14.5334 9.15015 14.0616 9.32032 13.3809C9.63285 12.1308 9.85526 10.7462 9.96661 9.49075C10.3031 9.45753 11.0337 9.45419 11.7744 9.46597C12.1316 9.47165 12.4631 9.4802 12.7057 9.48733C12.8267 9.4909 12.9252 9.4941 12.9931 9.4964L13.0708 9.4991L13.0906 9.49981L13.0953 9.49998L13.0964 9.50002L13.0965 9.50003L13.0966 9.50003C13.8308 9.52746 14.4769 9.01894 14.6227 8.29877C14.7685 7.57858 14.3712 6.85878 13.6841 6.5984C12.5993 6.18736 11.5994 6.17448 10.7029 6.1989C10.4181 6.20665 10.1688 6.20389 9.94883 6.19477C9.89591 5.65191 9.82872 5.09004 9.76513 4.59397C9.69618 4.05608 9.62735 3.56535 9.57581 3.20933C9.55001 3.03113 9.52847 2.88619 9.51331 2.7854L9.49562 2.66857L9.49086 2.63746L9.48958 2.62917L9.48923 2.6269L9.48913 2.62624L9.4891 2.62603Z" fill="black"/>
</svg>
