<svg width="16" height="16" viewBox="0 0 16 16" fill="none" xmlns="http://www.w3.org/2000/svg">
<path d="M12.5405 13.0182C11.7895 13.7689 8.59442 11.4841 7.73047 10.7027C7.28611 10.3009 6.88767 9.95819 6.54352 9.66957C6.29046 9.45733 6.20834 9.66957 6.25145 9.9709C6.47393 11.5263 6.42322 12.3521 6.42322 12.3521C6.42322 12.3521 6.32113 12.7157 6.1554 12.7715C5.44085 13.0119 3.54341 12.7715 3.54341 12.3521C3.54341 10.9631 3.01232 3.66537 3.54341 3.21416C3.95486 2.8646 4.53222 2.7346 5.11137 2.9107C5.52021 3.03501 5.9775 2.93448 6.05267 3.7407C6.12302 4.49522 6.15323 5.54584 6.1554 6.72369C6.15596 7.02722 6.32825 7.07984 6.42322 6.98761C6.57029 6.8448 6.72955 6.69217 6.90093 6.53006C7.9955 5.49472 9.91241 3.81198 11.1235 3.06271C11.6949 2.70921 12.3675 2.80059 12.4802 3.88267C12.6046 5.07707 12.5674 6.95012 12.5405 8.55071C12.5041 10.7179 12.8991 12.6597 12.5405 13.0182Z" fill="black"/>
</svg>
