<svg width="16" height="18" viewBox="0 0 16 18" fill="none" xmlns="http://www.w3.org/2000/svg">
<path d="M9.16921 2.10763C3.53847 1.8851 3.21823 4.28937 3.21826 4.97559H3.85347C3.72995 3.70323 4.6723 1.92992 9.16921 2.10763ZM9.16921 2.10763C15.2324 2.34724 13.0749 7.26941 10.9984 7.98362C9.16921 8.61281 7.79011 8.08552 7.52542 8.61281C7.08487 9.49044 7.59201 11.1205 7.79011 10.8001C7.9882 10.4798 7.14183 9.32447 7.9882 8.7696C8.83457 8.21474 10.4854 8.58822 11.6526 7.98365C12.8198 7.37907 16.0071 2.37786 9.16921 2.10763Z" stroke="black" stroke-width="3" stroke-linecap="round" stroke-linejoin="round"/>
<path d="M8.31822 15.0092C8.0241 14.9559 7.27789 14.5832 7.18026 14.805C7.08263 15.0269 7.58727 15.6038 7.96002 15.6393C8.33278 15.6748 8.31822 15.2367 8.16405 15.0929" stroke="black" stroke-width="3" stroke-linecap="round" stroke-linejoin="round"/>
</svg>
