<svg width="17" height="17" viewBox="0 0 17 17" fill="none" xmlns="http://www.w3.org/2000/svg">
<path d="M14.1667 5.25233C15.0846 6.32247 14.4779 6.99051 12.9426 7.59327C11.4074 8.19602 4.70474 7.98332 3.36986 7.59327C3.17969 7.5377 2.98694 7.42263 2.80289 7.26217C2.48644 7.01961 2.27227 6.7289 2.13833 6.40892C1.48006 5.20746 1.34379 3.42472 2.88916 2.5101C5.80082 0.786839 7.52256 2.27601 7.52256 3.47992C8.07545 3.0124 8.78673 2.50898 9.86523 2.9316C10.9437 3.35423 11.1101 4.0753 10.932 4.71727C11.0193 4.40263 13.1675 4.08746 14.1667 5.25233Z" fill="black"/>
<path d="M3.36986 7.59327C2.03498 7.20321 0.572505 3.88121 2.88916 2.5101M3.36986 7.59327C4.70474 7.98332 11.4074 8.19602 12.9426 7.59327C14.4779 6.99051 15.0846 6.32247 14.1667 5.25233C13.1675 4.08746 11.0193 4.40263 10.932 4.71727C11.1101 4.0753 10.9437 3.35423 9.86523 2.9316C8.78672 2.50898 8.07545 3.0124 7.52256 3.47992C7.52256 2.27601 5.80082 0.786839 2.88916 2.5101M3.36986 7.59327C1.09564 6.58791 2.04871 3.94017 2.88916 2.5101M3.9278 11.9214C3.26505 12.5156 3.70464 12.443 3.36986 12.525M8 12.3312L6.58809 13.717M12.5293 12.3312L10.2236 14.6483" stroke="black" stroke-width="3" stroke-miterlimit="10" stroke-linecap="round" stroke-linejoin="round"/>
</svg>
