<svg width="16" height="20" viewBox="0 0 16 20" fill="none" xmlns="http://www.w3.org/2000/svg">
<path d="M3.76514 5.90791C4.00509 5.11889 12.2345 2.1714 12.2345 9.26442H12.7203C12.7203 2.58023 6.7502 4.24167 3.76514 5.90791ZM3.76514 5.90791C4.38314 7.11117 5.80074 8.18784 6.92755 8.72613M3.76514 5.90791C3.76514 5.90791 3.85125 2.94435 5.26885 2.02606" stroke="black" stroke-width="3" stroke-linecap="round" stroke-linejoin="round"/>
<path d="M12.6839 13.6576C10.2188 14.0083 4.57969 17.4992 3.23704 10.9183H2.90601C3.3059 13.5156 4.08305 16.7694 12.6839 13.6576ZM12.6839 13.6576C12.0659 12.4544 10.1987 11.9949 9.07184 11.4566M12.6839 13.6576C12.6839 13.6576 12.6841 16.5291 11.6663 17.8014" stroke="black" stroke-width="3" stroke-linecap="round" stroke-linejoin="round"/>
</svg>
