<svg width="16" height="16" viewBox="0 0 16 16" fill="none" xmlns="http://www.w3.org/2000/svg">
<path d="M2.52653 5.71756C2.39848 5.95562 1.92523 7.15156 2.52657 7.87317C3.12792 8.59479 3.75101 9.99008 4.55329 10.8339C5.56873 11.902 6.08362 11.9696 6.57369 11.9621C7.30779 11.9509 7.44667 10.8339 7.66147 9.59937C7.70306 9.36035 7.64218 9.17459 8.27968 9.17429C11.3473 9.17284 9.98079 9.99882 9.68918 11.2236C9.53604 11.8668 10.2841 12.8756 11.0818 13.0366C11.8031 13.1823 12.5516 12.5437 12.9531 11.9621C14.9361 8.55023 14.0402 4.07585 9.65421 4.07585C9.24827 4.07585 9.51952 4.05455 8.60743 4.07585C8.60743 4.07585 8.39835 3.99901 8.39835 3.89564C8.28848 3.36414 8.39835 2.88043 8.38994 1.87882C8.38152 0.8772 6.0687 0.0146685 5.09454 1.87883C4.12038 3.74299 3.13708 4.58253 2.52653 5.71756Z" fill="black"/>
</svg>
