<svg width="17" height="16" viewBox="0 0 17 16" fill="none" xmlns="http://www.w3.org/2000/svg">
<path d="M5.90316 6.16568C5.7751 6.40375 5.78495 6.92992 5.98482 7.22083C6.10324 7.39338 6.41269 8.16735 7.21497 9.01121C8.00067 9.83766 7.81529 9.81884 8.46521 10.623C9.15351 11.4746 10.6569 11.3926 10.7398 10.864C10.8527 10.1439 10.5307 9.01285 10.5307 8.85976C10.5307 8.65418 10.6792 8.43469 11.1489 8.43469C14.0699 8.43469 12.9832 9.91232 12.6916 11.1371C12.3999 12.3619 14.3682 13.2922 15.3314 11.9576C17.4005 7.22083 17.5156 3.93703 11.358 4.11724C11.358 4.11724 11.1755 4.11724 11.1489 3.93703C11.1223 3.75682 11.358 3.1512 11.358 2.42216C11.358 1.2978 9.47473 0.646152 8.76885 1.68063C8.06297 2.7151 6.5137 5.03065 5.90316 6.16568Z" fill="black"/>
<path d="M5.7912 10.8383C6.28801 11.0716 6.24679 10.8383 6.06048 10.605C5.92608 10.4368 4.59911 8.88366 3.79561 7.65557C3.2594 6.83601 3.5029 5.69423 4.06675 4.91406C4.77937 3.92802 5.54351 2.99367 5.43934 2.78031C5.29439 2.48342 2.8517 5.66423 2.4998 6.30038C2.1479 6.93654 5.29438 10.605 5.7912 10.8383Z" stroke="black" stroke-width="3" stroke-linecap="round" stroke-linejoin="round"/>
</svg>
