<svg width="16" height="16" viewBox="0 0 16 16" fill="none" xmlns="http://www.w3.org/2000/svg">
<path d="M14.7288 13.0379C13.9778 13.7886 10.7828 11.5037 9.91881 10.7224C9.47445 10.3205 9.07601 9.97786 8.73186 9.68924C8.4788 9.477 8.39669 9.68924 8.43979 9.99057C8.66228 11.546 9.11964 12.8448 8.84815 13.1162C8.0971 13.8669 4.93062 12.1078 4.06668 11.3264C2.453 9.86705 1.01245 9.53202 1.01245 8.43931C1.01245 7.0504 3.53559 5.82571 4.06668 5.37451C4.47813 5.02495 6.12113 3.77792 7.28179 3.23383C8.05461 2.87156 8.16584 2.95415 8.24101 3.76037C8.31136 4.51488 8.34157 5.56551 8.34374 6.74336C8.3443 7.04689 8.51659 7.09951 8.61157 7.00728C8.75863 6.86447 8.91789 6.71184 9.08928 6.54972C10.65 5.07342 13.8828 2.28079 14.357 2.75516C14.8313 3.22953 14.7686 6.19899 14.7288 8.57038C14.6925 10.7375 15.0875 12.6794 14.7288 13.0379Z" fill="black"/>
</svg>
