<svg width="18" height="19" viewBox="0 0 18 19" fill="none" xmlns="http://www.w3.org/2000/svg">
<path d="M14.519 3.26896C12.2134 3.99923 5.28214 7.45884 4.62542 7.89334C3.96869 8.32785 3.39961 8.64343 4.35298 9.30005M4.35298 9.30005C5.30635 9.95667 11.6815 14.593 12.1581 14.8815C12.6348 15.1699 13.1067 14.6834 12.2134 14.302C11.3202 13.9206 6.87025 10.9006 4.35298 9.30005Z" stroke="black" stroke-width="3" stroke-linecap="round" stroke-linejoin="round"/>
<path d="M15.2047 4.79196C15.9344 4.73289 15.9872 3.25837 15.2047 2.31461C14.5784 1.78377 13.7975 1.6657 13.1717 1.78367C12.5459 1.90165 12.1281 2.66858 12.8583 3.73027C13.5885 4.79196 14.4749 4.85103 15.2047 4.79196Z" fill="black"/>
<path d="M5.60394 10.1064C6.36051 9.37667 6.76085 8.20664 5.90299 7.17207C5.21645 6.59014 4.15593 6.58055 3.37531 6.80859C2.59469 7.03663 1.7691 8.58921 2.56961 9.75307C3.37012 10.9169 4.84737 10.836 5.60394 10.1064Z" fill="black"/>
<path d="M13.1942 16.709C14.0277 16.3256 14.3793 15.3733 13.8112 14.1362C13.292 13.3868 12.4883 13.0357 11.7832 12.9824C11.0781 12.9291 10.0182 14.0948 10.4963 15.4434C10.9744 16.792 12.3607 17.0925 13.1942 16.709Z" fill="black"/>
<path d="M15.2047 4.79196C15.9344 4.73289 15.9872 3.25837 15.2047 2.31461C14.5784 1.78377 13.7975 1.6657 13.1717 1.78367C12.5459 1.90165 12.1281 2.66858 12.8583 3.73027C13.5885 4.79196 14.4749 4.85103 15.2047 4.79196Z" stroke="black" stroke-width="3" stroke-linecap="round" stroke-linejoin="round"/>
<path d="M5.60394 10.1064C6.36051 9.37667 6.76085 8.20664 5.90299 7.17207C5.21645 6.59014 4.15593 6.58055 3.37531 6.80859C2.59469 7.03663 1.7691 8.58921 2.56961 9.75307C3.37012 10.9169 4.84737 10.836 5.60394 10.1064Z" stroke="black" stroke-width="3" stroke-linecap="round" stroke-linejoin="round"/>
<path d="M13.1942 16.709C14.0277 16.3256 14.3793 15.3733 13.8112 14.1362C13.292 13.3868 12.4883 13.0357 11.7832 12.9824C11.0781 12.9291 10.0182 14.0948 10.4963 15.4434C10.9744 16.792 12.3607 17.0925 13.1942 16.709Z" stroke="black" stroke-width="3" stroke-linecap="round" stroke-linejoin="round"/>
</svg>
