<svg width="16" height="16" viewBox="0 0 16 16" fill="none" xmlns="http://www.w3.org/2000/svg">
<path d="M7.94119 1.58624L7.81131 14.4138M7.94119 1.58624C8.24631 1.58624 8.48124 2.03529 8.88148 2.18364C10.2891 2.70532 12.274 2.51989 13.2154 2.59519M7.94119 1.58624C7.73391 1.58624 7.59203 1.89558 7.3475 2.00812C5.72352 2.75555 2.29291 2.36032 2.04069 2.73866C1.7505 3.17398 2.64741 9.22081 3.44313 10.9609C4.21725 12.6537 7.3475 14.3903 7.81131 14.4138M7.94119 1.58624C8.08586 4.97706 8.38932 11.8809 8.44571 12.3696C8.5021 12.8583 8.00298 13.9395 7.81131 14.4138M13.2154 2.59519C14.4245 2.69191 14.2023 8.0463 12.957 10.6074C11.7117 13.1685 9.29455 13.785 7.81131 14.4138M13.2154 2.59519C14.0552 2.59519 14.5661 7.32294 12.957 10.9609C11.9701 13.192 8.44571 14.3433 7.81131 14.4138" stroke="black" stroke-width="3" stroke-linecap="round" stroke-linejoin="round"/>
</svg>
