<svg width="18" height="16" viewBox="0 0 18 16" fill="none" xmlns="http://www.w3.org/2000/svg">
<path d="M15.9639 9.01275C15.8309 9.17485 15.8174 9.86248 14.5575 9.62807C13.6396 9.45731 11.3983 9.02548 10.1447 8.66283C9.266 8.40864 9.13027 8.14855 8.92292 7.2587C8.78584 6.67044 8.65597 5.9153 8.57004 5.16612C8.40902 3.76221 7.86614 2.68087 8.5701 2.16283C9.27405 1.64479 10.1994 1.62017 10.4297 2.87664C10.66 4.13312 12.3015 5.65263 14.2137 7.04693C16.1259 8.44123 16.1643 8.76851 15.9639 9.01275Z" fill="black"/>
<path d="M1.99692 6.94937C2.08356 6.77909 2.3974 6.39096 2.925 6.43429C4.3381 6.55035 6.91127 7.48164 8.15876 8.10045C8.73714 8.38734 8.92838 8.52025 8.9421 9.16223C8.95204 9.62694 8.93678 10.3206 8.98492 11.1973C9.03422 12.095 9.34191 13.5251 8.98492 13.9939C8.62793 14.4627 8.07637 14.8527 7.64583 14.352C7.04382 13.6518 6.42794 13.0825 6.42794 13.0825L3.99554 10.0664C3.1997 9.20529 1.77708 7.38145 1.99692 6.94937Z" fill="black"/>
<path d="M11.9091 5.82143C12.8355 4.97416 15.0892 2.71958 15.5534 2.02518C15.0403 2.02518 12.6116 4.45752 11.6038 5.48048L11.9091 5.82143Z" stroke="black" stroke-width="3" stroke-linecap="round" stroke-linejoin="round"/>
<path d="M6.10208 10.2307C5.19223 11.0763 2.72229 13.402 2.26636 14.095C2.77026 14.095 5.41218 11.5919 6.40201 10.571L6.10208 10.2307Z" stroke="black" stroke-width="3" stroke-linecap="round" stroke-linejoin="round"/>
</svg>
