<svg width="18" height="18" viewBox="0 0 18 18" fill="none" xmlns="http://www.w3.org/2000/svg">
<path d="M15.5954 12.9816C15.2932 13.042 13.9726 13.1267 11.1078 12.9816C6.60969 12.7538 8.94724 5.62236 4.17252 5.65657M15.5954 12.9816C15.5954 12.9816 13.3791 15.608 13.2383 15.8373C13.0975 16.0666 13.2237 16.1555 13.3791 15.9964L13.3818 15.9936C13.5573 15.8139 15.5959 13.7266 15.6964 12.9816C15.5954 12.6692 13.8652 10.2685 13.6009 9.85392L15.5954 12.9816ZM15.5954 12.9816C14.1287 13.3079 12.5369 13.2551 11.5757 13.1982C6.25135 13.1982 8.83487 5.65657 4.17252 5.65657M2.40479 5.63836C2.96879 5.65925 3.57137 5.66088 4.17252 5.65657M15.4295 4.28016C15.4295 4.28016 14.4307 6.17596 14.2011 6.40552C13.9716 6.63509 14.5516 6.79323 14.7603 6.40552C14.9691 6.01781 15.6454 4.80375 15.6454 4.35599C15.6454 3.90823 13.6009 1.51416 13.6009 1.51416L15.4295 4.28016ZM15.4295 4.28016C14.574 4.26338 12.3543 4.15725 11.8152 4.28016C10.5249 4.57434 11.3202 5.08282 10.2495 6.40552M2.75715 14.7015C4.20782 14.7015 5.36581 14.3834 5.96229 13.7124C6.03631 13.6859 6.1571 13.6661 6.04814 13.7984C5.91193 13.9638 5.53693 14.7015 2.75715 14.7015Z" stroke="black" stroke-width="3" stroke-linecap="round" stroke-linejoin="round"/>
</svg>
