<svg width="21" height="21" viewBox="0 0 21 21" fill="none" xmlns="http://www.w3.org/2000/svg">
<path d="M8.08552 14.4693L6.04005 15.4505L6.65827 13.3542C6.65827 13.3542 5.32031 12.3284 5.32031 9.83071C5.32031 6.84237 8.17485 5.81653 10.5386 5.81653C12.9022 5.81653 15.2663 8.22504 15.2663 10.6781C15.2663 13.6665 12.3673 15.4505 10.5386 15.4505C9.33437 15.4505 8.08552 14.4693 8.08552 14.4693Z" stroke="black" stroke-width="3" stroke-linecap="round" stroke-linejoin="round"/>
<path d="M7.98463 18.2336L3.1526 19.0009L2.65319 14.041C2.65319 14.041 1.74365 13.2398 1.74365 9.03073C1.74365 3.99484 6.55407 2.26611 10.5373 2.26611C14.5206 2.26611 18.5045 6.3249 18.5045 10.4588C18.5045 15.4947 16.7027 16.8509 13.536 18.2336C11.6763 19.0456 7.98463 18.2336 7.98463 18.2336Z" stroke="black" stroke-width="3" stroke-linecap="round" stroke-linejoin="round" stroke-dasharray="3 4"/>
<path d="M8.32301 18.2336L3.49098 19.0009L2.99157 14.041C2.99157 14.041 2.08203 13.2398 2.08203 9.03073C2.08203 3.99484 6.89245 2.26611 10.8757 2.26611C14.859 2.26611 18.8429 6.3249 18.8429 10.4588C18.8429 15.4947 17.0411 16.8509 13.8744 18.2336C12.0147 19.0456 8.32301 18.2336 8.32301 18.2336Z" stroke="black" stroke-width="3" stroke-linecap="round" stroke-linejoin="round" stroke-dasharray="3 4"/>
</svg>
