<svg width="22" height="16" viewBox="0 0 22 16" fill="none" xmlns="http://www.w3.org/2000/svg">
<path d="M8.94562 7.8917C8.53074 7.05009 7.78545 6.63095 7.20569 6.42638C6.61791 6.21897 6.01771 6.16272 5.56994 6.16272C4.87358 6.16272 4.17753 6.4235 3.62595 6.80425C3.06317 7.19273 2.50493 7.80828 2.2708 8.65187C2.10828 9.23745 2.0633 9.88175 2.26615 10.5455C2.46598 11.1993 2.86321 11.7305 3.34198 12.1718C4.01093 12.7883 4.89195 12.9559 5.57236 12.9548C6.46516 12.9534 7.53717 12.6619 8.29664 11.9472C8.86018 11.4168 9.14776 10.69 9.24928 10.0401C9.35313 9.3753 9.29403 8.59847 8.94562 7.8917Z" stroke="black" stroke-width="3" stroke-linecap="round" stroke-linejoin="round"/>
<path d="M19.4252 4.56846C18.7592 3.21744 17.388 2.68861 16.2936 2.68861C15.5972 2.68861 14.9012 2.94939 14.3496 3.33014C13.7868 3.71862 13.2286 4.33417 12.9944 5.17776C12.8319 5.76334 12.7869 6.40764 12.9898 7.07135C13.1896 7.72516 13.5868 8.25637 14.0656 8.69765C14.7346 9.31421 15.6156 9.4818 16.296 9.4807C17.1888 9.47926 18.2608 9.18784 19.0203 8.47304C19.6569 7.87383 19.8609 7.08623 19.8688 6.42776C19.8766 5.77033 19.6978 5.12144 19.4252 4.56846Z" stroke="black" stroke-width="3" stroke-linecap="round" stroke-linejoin="round"/>
</svg>
