<svg width="22" height="20" viewBox="0 0 22 20" fill="none" xmlns="http://www.w3.org/2000/svg">
<path d="M8.73221 7.32336C9.9127 5.73189 10.1861 2.41337 8.94167 2.05212C7.32041 1.58147 3.41974 5.0685 1.75032 10.7445M8.73221 7.32336C13.5846 3.86732 16.9708 2.05212 13.9337 7.56773M8.73221 7.32336C9.2093 6.20626 9.82835 3.73466 8.48785 2.78513C7.14734 1.83559 3.43762 7.69573 1.75032 10.7445M8.73221 7.32336C8.73221 7.32336 12.7109 4.85314 13.6195 5.19388C14.5282 5.53462 14.0152 6.90445 13.9337 7.56773M13.9337 7.56773C15.5512 7.42809 18.7163 8.40576 19.205 10.7446C19.6938 13.0834 15.5395 18.0058 10.1635 18.2501M13.9337 7.56773C15.7025 7.03245 19.3517 6.83462 19.7985 10.3256C20.3571 14.6893 15.4697 18.0059 10.1635 18.2501M10.1635 18.2501C4.78742 18.4945 0.528493 14.8987 1.75032 10.7445" stroke="black" stroke-width="3" stroke-linecap="round" stroke-linejoin="round"/>
<path d="M9.87134 13.4813C9.28393 13.7138 8.66474 13.6989 8.13453 13.5222C7.57618 13.3361 7.25564 13.0221 7.14953 12.8241C7.04816 12.6349 7.05492 12.5197 7.12799 12.3627C7.2328 12.1375 7.51701 11.7875 8.12595 11.4014C8.49979 11.1644 9.1572 11.0237 9.88631 11.1261C10.6222 11.2295 11.1222 11.5337 11.3352 11.8201C11.4137 11.9256 11.4214 11.9908 11.4213 12.0347C11.4212 12.0944 11.4021 12.2131 11.2984 12.3882C11.0788 12.759 10.5809 13.2005 9.87134 13.4813Z" stroke="black" stroke-width="3"/>
</svg>
