<svg width="21" height="19" viewBox="0 0 21 19" fill="none" xmlns="http://www.w3.org/2000/svg">
<path d="M11.9318 2.18019C9.65261 2.18019 7.5774 2.2156 5.97319 3.03766C4.17949 3.95684 3.25773 5.6597 2.67896 8.06714C1.60935 12.5163 5.03449 16.075 8.36971 16.5815C11.2831 17.024 15.625 16.5967 18.0029 12.1389C19.1829 9.92649 19.2442 7.43968 18.1218 5.45129C16.9816 3.4312 14.7655 2.18019 11.9318 2.18019Z" stroke="black" stroke-width="3" stroke-miterlimit="10" stroke-linecap="round" stroke-linejoin="round"/>
<path d="M13.1798 12.4051C11.7323 11.413 9.38767 11.8023 8.0835 12.4051C8.71367 12.2462 9.49317 11.9882 10.7608 11.9529C12.0284 11.9177 12.6357 12.2626 13.1798 12.4051Z" stroke="black" stroke-width="3" stroke-miterlimit="10" stroke-linecap="round" stroke-linejoin="round"/>
<path d="M13.1797 6.9096C13.1797 7.11697 13.1797 6.92633 13.1797 7.03983" stroke="black" stroke-width="3" stroke-miterlimit="10" stroke-linecap="round" stroke-linejoin="round"/>
<path d="M8.83313 6.89076C8.81585 7.06481 8.88244 6.91875 8.83289 7.09788" stroke="black" stroke-width="3" stroke-miterlimit="10" stroke-linecap="round" stroke-linejoin="round"/>
</svg>
