<svg width="20" height="20" viewBox="0 0 20 20" fill="none" xmlns="http://www.w3.org/2000/svg">
<path d="M9.66451 17.9282C11.6475 17.9282 13.6571 17.4078 15.1916 16.0683C16.7612 14.6982 17.6356 12.6446 17.6356 10C17.6356 7.74483 16.5534 5.71219 15.1499 4.29818C13.777 2.9149 11.8461 1.88303 9.92807 2.04687C8.4915 2.16958 6.6065 2.53661 4.98032 3.70976C3.29147 4.92812 2.0529 6.89162 1.7444 9.84413C1.43563 12.7992 2.27968 14.9711 4.0226 16.3271C5.6517 17.5944 7.79761 17.9282 9.66451 17.9282Z" stroke="black" stroke-width="3" stroke-miterlimit="10" stroke-linecap="round" stroke-linejoin="round"/>
<path d="M7 13.0681C7.46401 13.6123 8.19307 14.0196 9.38605 14.004M9.38605 14.004C10.579 13.9884 11.6725 13.6739 12.2027 13.1167C12.0721 13.4125 11.6953 13.6863 11.2843 13.8444C10.8733 14.0025 9.83012 14.004 9.38605 14.004Z" stroke="black" stroke-width="3" stroke-miterlimit="10" stroke-linecap="round" stroke-linejoin="round"/>
<path d="M12.2665 7.78278C12.2665 7.99014 12.1799 7.92633 12.1799 8.03982" stroke="black" stroke-width="3" stroke-miterlimit="10" stroke-linecap="round" stroke-linejoin="round"/>
<path d="M7.75242 7.63919C7.73515 7.81324 7.88292 7.91875 7.83337 8.09787" stroke="black" stroke-width="3" stroke-miterlimit="10" stroke-linecap="round" stroke-linejoin="round"/>
</svg>
