<svg width="18" height="16" viewBox="0 0 18 16" fill="none" xmlns="http://www.w3.org/2000/svg">
<path d="M17.2549 11.5608C17.2823 11.7687 17.7748 12.2487 16.7423 13.0079C15.9902 13.5609 14.1425 14.9013 13.0208 15.5682C12.2345 16.0356 11.9519 15.9568 11.1608 15.4997C10.6378 15.1975 9.99795 14.776 9.39249 14.3265C8.2579 13.4841 7.09762 13.1409 7.20089 12.273C7.30416 11.4051 7.9189 10.713 8.99325 11.404C10.0676 12.0951 12.2988 11.9361 14.6237 11.494C16.9486 11.0519 17.2137 11.2476 17.2549 11.5608Z" fill="black"/>
<path d="M4.45034 5.1426C3.2781 5.16821 0.969449 5.02546 0.791453 4.57453C0.721307 4.39682 0.678311 3.92295 1.06032 3.55646C2.08347 2.5749 3.68526 1.25915 4.63366 0.568546C5.58205 -0.122056 7.22042 0.489723 7.71037 0.904775C9.25247 2.07569 10.4234 3.28135 10.7393 3.60739C11.0551 3.93343 10.7392 5.257 10.0788 5.24772C9.1555 5.23473 8.32104 5.31888 8.32104 5.31888L4.45034 5.1426Z" fill="black"/>
<path d="M12.4991 12.7653C12.5142 11.51 12.4098 8.32387 12.2205 7.51034C11.8697 7.88474 11.9841 11.3202 12.0415 12.755L12.4991 12.7653Z" stroke="black" stroke-width="3" stroke-linecap="round" stroke-linejoin="round"/>
<path d="M5.79787 3.72938C5.82842 4.97109 5.93406 8.36203 6.15108 9.16267C6.48493 8.78523 6.36033 5.14794 6.25145 3.73015L5.79787 3.72938Z" stroke="black" stroke-width="3" stroke-linecap="round" stroke-linejoin="round"/>
</svg>
