<svg width="17" height="16" viewBox="0 0 17 16" fill="none" xmlns="http://www.w3.org/2000/svg">
<path d="M3.67465 2.87824C1.85576 4.20454 2.11784 8.10684 3.1821 9.83863C3.74135 10.7487 4.62997 11.2539 6.74649 11.1136C6.17273 13.1919 3.99812 14.4669 6.25488 14.1992C8.79215 13.7274 10.9059 11.9934 11.0844 10.8459M3.67465 2.87824C5.72234 1.38511 11.3461 1.5998 13.3767 3.11566C15.1294 4.42416 15.1074 7.48886 14.0931 9.17079C13.2451 10.5769 12.5043 10.6177 11.0844 10.8459M3.67465 2.87824C4.52594 2.06084 8.38671 1.14632 12.3578 2.13099C16.3288 3.11566 15.2282 8.28183 14.3217 9.57674C13.4153 10.8717 11.7751 10.8459 11.0844 10.8459" stroke="black" stroke-width="3" stroke-linecap="round" stroke-linejoin="round"/>
</svg>
