<svg width="16" height="16" viewBox="0 0 16 16" fill="none" xmlns="http://www.w3.org/2000/svg">
<path d="M11.4446 9.59931C12.6596 8.78728 14.3608 6.48821 14.3608 6.48821C14.3608 6.48821 11.6811 5.69505 10.1113 5.56255C9.68339 4.36535 7.83825 1.87093 7.83825 1.87093C7.83825 1.87093 6.04021 4.27896 5.64783 5.73055C3.85544 5.60643 1.5208 6.36481 1.5208 6.36481C1.5208 6.36481 3.27608 8.88501 4.58953 9.85731M11.4446 9.59931C11.8803 10.9878 12.2222 13.8147 12.2222 13.8147M11.4446 9.59931C11.7048 10.0046 12.2431 10.955 12.3152 11.5142C12.3873 12.0735 12.2832 13.2809 12.2222 13.8147M12.2222 13.8147C12.2222 13.8147 8.93842 12.5673 8.21535 11.892C7.50244 12.5894 4.02211 14.2849 4.02211 14.2849M4.02211 14.2849C4.02211 14.2849 3.91531 11.4472 4.58953 9.85731M4.02211 14.2849C4.02211 14.2849 4.60976 12.0916 4.65073 11.4834C4.6917 10.8752 4.58953 9.85731 4.58953 9.85731" stroke="black" stroke-width="3" stroke-miterlimit="10" stroke-linecap="round" stroke-linejoin="round"/>
</svg>
