<svg width="17" height="16" viewBox="0 0 17 16" fill="none" xmlns="http://www.w3.org/2000/svg">
<path d="M9.93219 2.25152C8.12635 1.86864 6.82634 2.19417 5.89474 2.53677C5.38185 2.72539 4.6706 3.08696 4.00305 3.59037C3.35111 4.082 2.5905 4.82163 2.20121 5.81544C1.55193 7.47298 1.70318 9.23357 2.18345 10.5934C2.55229 11.6377 3.40863 12.294 4.04088 12.684C4.59277 13.0244 5.20267 13.2935 5.59867 13.4682C5.67187 13.5005 5.73777 13.5296 5.79463 13.5553C6.51571 13.8813 7.56034 13.9957 8.40067 14.0045C8.85473 14.0093 9.32801 13.9842 9.76839 13.9184C10.1807 13.8568 10.6831 13.743 11.1189 13.505L10.4001 12.1885L11.1189 13.505C11.9888 13.0301 13.1046 12.3867 13.8805 10.9923C14.3052 10.2292 14.5415 9.18094 14.5787 8.18574C14.6157 7.19279 14.4648 5.98141 13.8422 4.98409C13.3825 4.24784 12.8788 3.62357 12.1916 3.14758C11.5059 2.6727 10.7528 2.4255 9.93219 2.25152Z" stroke="black" stroke-width="3" stroke-linecap="round" stroke-linejoin="round"/>
<path d="M11.8745 3.94692C11.4175 4.32728 3.89065 11.7962 3.88855 12.0324C3.88644 12.2686 3.90689 12.2883 4.05891 12.1404C4.6549 11.5609 10.3553 6.38472 12.3418 4.45303C12.3384 4.15754 12.2401 3.64263 11.8745 3.94692Z" stroke="black" stroke-width="3" stroke-linecap="round" stroke-linejoin="round"/>
</svg>
