<svg width="16" height="16" viewBox="0 0 16 16" fill="none" xmlns="http://www.w3.org/2000/svg">
<path d="M3.73007 2.74397C5.02314 2.85711 6.56649 2.8868 8.10332 2.86682C9.52794 2.8483 10.947 2.7871 12.1558 2.71014C13.0767 2.65151 13.5635 2.77487 13.6357 3.84952C13.7062 4.89744 13.7592 6.43233 13.7783 7.98473C13.7996 9.70882 13.7791 11.4545 13.6946 12.5787C13.6476 13.2037 13.6115 13.7839 12.8401 13.8346C11.8271 13.9012 9.97323 13.8879 8.10332 13.8346C6.3289 13.7839 4.54002 13.6972 3.44144 13.6082C2.63299 13.5427 2.46716 13.1831 2.38206 12.4614C2.26401 11.4602 2.21183 9.9945 2.21471 8.48057C2.21789 6.80877 2.2882 5.07819 2.41109 3.84952C2.50289 2.93174 2.7406 2.65739 3.73007 2.74397Z" fill="black"/>
</svg>
