<svg width="16" height="16" viewBox="0 0 16 16" fill="none" xmlns="http://www.w3.org/2000/svg">
<path d="M9.49937 8.49771C9.79429 7.98158 8.98324 6.54376 8.10635 6.54376C6.97136 6.54376 6.43951 7.60118 6.43945 8.12904C6.43934 9.23505 7.61916 9.45625 8.10635 9.45625C8.59354 9.45625 9.20444 9.01385 9.49937 8.49771Z" stroke="black" stroke-width="3" stroke-miterlimit="10" stroke-linecap="round" stroke-linejoin="round"/>
<path d="M11.6142 4.51032C12.0656 4.05898 12.3479 3.72046 12.912 3.38195M12.912 10.3138C13.273 10.6297 13.8458 10.7616 14.41 10.9497M9.0613 13.1939C9.51264 13.7016 9.36053 13.4557 9.54754 14.1664M4.57283 11.997L3.1889 13.4931M3.1889 6.61086C2.47824 6.31163 2.32457 6.50012 1.91744 6.23683M6.03162 3.38195L5.47057 1.97284" stroke="black" stroke-width="3" stroke-miterlimit="10" stroke-linecap="round" stroke-linejoin="round"/>
</svg>
