<svg width="20" height="19" viewBox="0 0 20 19" fill="none" xmlns="http://www.w3.org/2000/svg">
<path d="M9.86658 16.8217L9.0108 15.5897L9.86659 16.8217C10.2643 16.5454 10.8586 16.0055 11.4654 15.4272C12.1039 14.8188 12.8495 14.0769 13.5858 13.3263C15.0412 11.8428 16.5305 10.2535 17.095 9.56508C17.0958 9.56415 17.0977 9.56186 17.1006 9.55842C17.1211 9.53386 17.1903 9.45091 17.2362 9.39006C17.2976 9.30866 17.4296 9.12639 17.5182 8.87018C17.6202 8.57477 17.639 8.26002 17.5724 7.95217C17.5136 7.6805 17.4002 7.4705 17.319 7.33914C17.1131 7.00616 16.7725 6.5985 16.4379 6.22073C16.0808 5.81766 15.652 5.36207 15.2109 4.90908C14.3332 4.00774 13.3621 3.07091 12.7442 2.52702C12.5892 2.39058 12.3629 2.19768 12.1022 2.05702C11.7895 1.88838 11.3212 1.73774 10.7712 1.87643C10.3289 1.98796 10.0244 2.24964 9.91148 2.34667L9.9109 2.34717C9.84554 2.40333 9.72913 2.511 9.63778 2.59549C9.5919 2.63792 9.55235 2.6745 9.52876 2.69577C8.70952 3.43463 7.30571 4.7549 5.98287 6.04981C4.6915 7.31391 3.37515 8.65214 2.80569 9.38551C2.37183 9.94427 2.24356 10.5951 2.20364 11.0858C2.16226 11.5945 2.20258 12.1191 2.25558 12.572C2.29407 12.901 2.34698 13.2488 2.39347 13.5544C2.41027 13.6649 2.42624 13.7698 2.44038 13.8664C2.4997 14.2714 2.53004 14.5472 2.53004 14.7342C2.53004 15.3837 2.72453 16.0968 3.37016 16.5988C3.7866 16.9226 4.31699 17.0598 4.52707 17.1141C4.54836 17.1196 4.56636 17.1242 4.58062 17.1281C4.90882 17.2182 5.36086 17.2569 5.72429 17.2787C6.13722 17.3033 6.61674 17.3146 7.08529 17.3104C7.55015 17.3062 8.03254 17.2866 8.44435 17.2443C8.64815 17.2233 8.86312 17.194 9.06267 17.1503C9.20386 17.1194 9.55201 17.0402 9.86658 16.8217Z" stroke="black" stroke-width="3" stroke-linecap="round" stroke-linejoin="round"/>
<path d="M7.64747 13.047C7.64844 12.7403 7.53189 12.2791 7.25221 12.1579C6.97253 12.0368 6.1902 12.3123 6.12764 12.58C6.06507 12.8478 6.00632 13.5345 6.50024 13.7979C6.99416 14.0613 7.64651 13.3537 7.64747 13.047Z" stroke="black" stroke-width="3" stroke-linecap="round" stroke-linejoin="round"/>
</svg>
