<svg width="19" height="18" viewBox="0 0 19 18" fill="none" xmlns="http://www.w3.org/2000/svg">
<path d="M10.2815 11.3896C11.124 12.0215 13.9148 14.7071 14.5467 15.2862C15.1785 15.8654 16.0208 15.4442 16.0208 14.9176C16.0208 14.391 16.3894 5.12353 16.0208 3.06995M10.2815 11.3896C10.8081 10.3892 12.8088 6.80853 12.8088 6.80853C12.8088 6.80853 7.70133 9.07279 6.49024 9.44134C4.85813 9.12537 3.06716 9.12541 2.43534 9.07279C1.80352 9.02017 1.90862 8.49352 2.43534 8.07228C2.96206 7.65103 10.8321 3.65309 14.915 2.50969C15.5995 2.318 16.0208 2.49073 16.0208 3.06995M10.2815 11.3896C11.5152 12.8431 13.8008 15.4418 14.5467 15.8526C15.4789 16.3662 16.1857 15.758 16.499 14.9176C17.0049 13.5607 16.4423 6.57666 16.0208 3.06995" stroke="black" stroke-width="3" stroke-linecap="round" stroke-linejoin="round"/>
</svg>
