<svg width="16" height="19" viewBox="0 0 16 19" fill="none" xmlns="http://www.w3.org/2000/svg">
<path d="M10.6394 4.49012C10.6292 3.86074 10.4239 3.26964 9.99588 2.80343C9.58474 2.35556 9.08177 2.14718 8.69681 2.04479C8.04807 1.87223 7.28113 1.91531 7.17446 1.92131C7.16742 1.9217 7.16326 1.92193 7.16219 1.92193C6.31915 1.92193 5.84349 2.49856 5.66823 2.76072C5.47048 3.05654 5.35237 3.38556 5.27624 3.64309C5.11766 4.17954 5.01679 4.84877 4.9494 5.50895C4.8244 6.7334 4.79012 8.18606 4.82031 9.34023C4.50524 9.47751 4.1597 9.68263 3.84621 9.99639C3.32379 10.5193 3.00939 11.224 2.94419 12.0731C2.84245 13.3981 3.24526 14.649 4.22578 15.5453C5.17261 16.4109 6.47228 16.7766 7.86085 16.7766C9.03643 16.7766 10.2822 16.4016 11.2667 15.7183C12.2551 15.0322 13.143 13.903 13.143 12.3938C13.143 11.4074 12.7853 10.5984 12.1557 10.0213C11.7562 9.65507 11.3032 9.43514 10.912 9.29533L10.6394 4.49012ZM4.8538 10.1224C4.85378 10.1224 4.85377 10.121 4.8538 10.1185C4.85383 10.1212 4.85382 10.1225 4.8538 10.1224Z" stroke="black" stroke-width="3" stroke-miterlimit="10" stroke-linecap="round" stroke-linejoin="round"/>
<path d="M9.31556 14.409C10.7787 13.9213 11.1785 12.724 10.6017 11.7484C10.3678 11.3527 10.106 11.0298 9.64101 10.8084C9.13182 10.566 9.01115 10.6914 8.9746 10.0724C8.9198 9.14393 7.01694 9.38986 7.01694 10.1435C7.01694 10.3758 6.42591 10.7387 6.06135 11.0049C5.03448 11.5479 4.65919 12.6796 5.41328 13.6552C6.16737 14.6308 7.85238 14.8968 9.31556 14.409Z" fill="black"/>
</svg>
