<svg width="16" height="21" viewBox="0 0 16 21" fill="none" xmlns="http://www.w3.org/2000/svg">
<path d="M8.01984 1.80145C10.6176 1.80145 11.7922 2.00314 12.4901 2.66686C13.1881 3.33058 12.6887 16.3167 12.4901 16.9087C12.2915 17.5006 11.2609 18.6439 8.01984 18.6227M8.01984 1.80145C5.4221 1.80145 3.38095 1.97671 2.78902 2.66687C2.19709 3.35703 2.17148 15.4285 2.47963 16.6011C2.78778 17.7736 4.77879 18.6015 8.01984 18.6227M8.01984 1.80145C12.3463 1.80145 13.1632 2.66686 13.5907 3.38279C14.0181 4.09871 13.229 14.9521 12.933 16.9087C12.6963 18.4739 9.55893 18.7035 8.01984 18.6227" stroke="black" stroke-width="3" stroke-linecap="round" stroke-linejoin="round"/>
<path d="M5.31028 5.66628C5.21678 4.57876 6.65428 4.08969 7.77591 4.16134C8.89755 4.23299 9.5357 4.50566 9.86253 5.66628C10.1894 6.8269 8.52315 7.58002 7.47997 7.54748C6.4368 7.51494 5.40378 6.7538 5.31028 5.66628Z" fill="black"/>
<path d="M5.0641 10.1721C5.15825 8.85857 6.30408 8.43225 7.2338 8.38661C8.16352 8.34096 9.98947 8.96723 10.1433 10.1721C10.2972 11.3769 8.13857 12.0772 7.2338 12.0533C6.32902 12.0294 4.96995 11.4856 5.0641 10.1721Z" fill="black"/>
<path d="M5.30757 14.0754C5.34698 13.1131 6.65185 12.5694 7.77321 12.5704C8.89456 12.5714 10.4789 12.6997 10.3868 14.0754C10.2946 15.451 8.46579 15.9728 7.47727 15.9566C6.48874 15.9404 5.26816 15.0376 5.30757 14.0754Z" fill="black"/>
</svg>
