<svg width="21" height="17" viewBox="0 0 21 17" fill="none" xmlns="http://www.w3.org/2000/svg">
<path d="M16.4487 2.03805C14.0806 2.33685 5.62334 6.41916 3.91631 8.0874M16.4487 2.03805C18.1975 2.64414 18.6201 6.10879 17.0683 7.11749C15.8268 7.92445 6.4576 8.25129 3.91631 8.0874M16.4487 2.03805C17.5649 1.89721 17.9074 2.08532 18.344 2.41391C18.943 2.86468 19.6095 7.13392 18.1546 7.61066C16.6997 8.0874 5.03578 8.84541 3.91631 8.0874M3.91631 8.0874C2.20928 9.75563 1.37354 10.9735 2.06456 11.8148C2.75559 12.656 17.1929 12.3866 18.1546 12.1222M7.17488 13.5984C6.87788 14.3324 7.13948 14.8742 7.82133 14.9791C8.50318 15.0839 9.13234 14.1751 8.93992 13.5984C8.74749 13.0217 7.47187 12.8644 7.17488 13.5984ZM12.6129 13.5984C12.3159 14.3324 12.5775 14.8742 13.2593 14.9791C13.9412 15.0839 14.5703 14.1751 14.3779 13.5984C14.1855 13.0217 12.9099 12.8644 12.6129 13.5984Z" stroke="black" stroke-width="3" stroke-linecap="round" stroke-linejoin="round"/>
</svg>
