<svg width="20" height="19" viewBox="0 0 20 19" fill="none" xmlns="http://www.w3.org/2000/svg">
<path d="M7.9205 1.75453C7.98701 1.69147 8.06348 1.64375 8.15059 1.613C8.07369 1.65487 7.99694 1.70215 7.9205 1.75453C6.56713 3.03761 9.33654 10.6699 10.5354 10.8002C10.9273 10.6634 12.9468 10.1384 12.2032 8.69461C11.2738 6.88983 11.8477 5.82337 13.8713 5.52257C14.6294 5.40988 14.9807 6.04656 15.3482 6.60676C15.4672 6.78806 17.5082 5.76868 17.5842 5.98179C17.6494 6.16423 15.7554 7.57617 15.7884 7.76905C15.8256 7.98636 17.5886 7.9016 17.5842 8.11617C17.5808 8.28486 15.818 8.75504 15.7884 8.91266C15.7268 9.2408 15.6079 9.536 15.4299 9.76107C15.5393 10.472 16.5787 13.3321 12.2032 16.176C7.82772 19.0199 2.41357 15.1754 2.41357 15.1754C2.41357 15.1754 4.67094 14.9839 4.76759 14.4362C4.86425 13.8885 2.74184 11.894 2.74184 11.894C3.96333 12.8511 9.31384 13.6182 6.60408 11.894C3.4806 9.9065 5.55037 3.3787 7.9205 1.75453Z" fill="black"/>
<path d="M8.15059 1.613C6.29112 2.26929 9.27762 10.6635 10.5354 10.8002C10.9273 10.6634 12.9468 10.1384 12.2032 8.69461C11.2738 6.88983 11.8477 5.82337 13.8713 5.52257C14.6294 5.40988 14.9807 6.04656 15.3482 6.60676C15.4672 6.78806 17.5082 5.76868 17.5842 5.98179C17.6494 6.16423 15.7554 7.57617 15.7884 7.76905C15.8256 7.98636 17.5886 7.9016 17.5842 8.11617C17.5808 8.28486 15.818 8.75504 15.7884 8.91266C15.7268 9.2408 15.6079 9.536 15.4299 9.76107C15.5393 10.472 16.5787 13.3321 12.2032 16.176C7.82772 19.0199 2.41357 15.1754 2.41357 15.1754C2.41357 15.1754 4.67094 14.9839 4.76759 14.4362C4.86425 13.8885 2.74184 11.894 2.74184 11.894C3.96333 12.8511 9.31384 13.6182 6.60408 11.894C3.37986 9.8424 5.68928 2.95292 8.15059 1.613Z" stroke="black" stroke-width="3" stroke-linecap="round" stroke-linejoin="round"/>
</svg>
