<svg width="23" height="18" viewBox="0 0 23 18" fill="none" xmlns="http://www.w3.org/2000/svg">
<path d="M10.3603 4.12978C9.95632 2.81456 9.32134 1.71611 7.29446 1.71606C5.26758 1.71602 2.50257 3.6029 2.0119 5.78503C1.52123 7.96715 1.64731 9.52137 2.33889 10.5311C3.03048 11.5409 3.8667 11.4586 3.8667 11.4586C3.24843 11.0722 2.14031 10.1959 2.0119 8.10803C1.8835 6.02011 3.6876 2.71348 6.99176 2.1403C7.72561 2.013 9.8515 2.04725 10.3603 4.12978ZM10.3603 4.12978C11.4039 3.08984 12.877 2.74676 13.6571 3.21481C14.6322 3.79988 14.9775 5.19823 14.7589 6.21232C15.6096 5.65986 18.118 5.78503 19.087 6.21232M19.087 6.21232C20.056 6.63961 20.8327 7.14886 20.6145 9.60375C20.3963 12.0586 18.256 12.7801 17.5595 12.5496C20.9795 12.8104 21.085 9.82754 20.9839 8.41147C20.8827 6.9954 19.6968 6.40592 19.087 6.21232Z" stroke="black" stroke-width="3" stroke-miterlimit="10" stroke-linecap="round" stroke-linejoin="round"/>
<path d="M6.32078 11.691C6.25957 11.5144 6.1836 11.0235 6.49943 10.6511C7.34534 9.65366 9.3446 8.30582 10.4205 7.76125C10.9193 7.50877 11.1085 7.45005 11.5252 7.85738C11.8269 8.15223 12.5363 8.56445 13.1214 9.09835C13.7206 9.64506 15.104 10.4108 15.2078 10.9869C15.3117 11.563 15.1942 12.3164 14.6398 12.3174C13.8646 12.3189 12.6507 12.3174 12.6507 12.3174L9.39941 12.2017C8.4158 12.2457 6.47611 12.1391 6.32078 11.691Z" fill="black"/>
<path d="M10.7537 10.7094C10.8037 11.9505 10.9624 15.3393 11.1919 16.1365C11.5198 15.7539 11.3383 12.119 11.2072 10.7031L10.7537 10.7094Z" stroke="black" stroke-width="3" stroke-linecap="round" stroke-linejoin="round"/>
</svg>
