<svg width="16" height="20" viewBox="0 0 16 20" fill="none" xmlns="http://www.w3.org/2000/svg">
<path d="M10.2454 4.50473C10.0738 4.721 8.00126 2.81355 8.00126 2.81355C8.04323 3.53445 8.05856 4.34174 8.05707 5.20915C8.1163 7.64592 8.20895 11.4242 8.26534 14.0617L12.9891 12.8821V10.1324L12.0834 10.0157L12.0097 8.26555L14.2572 8.41293L14.2941 10.2368L12.9891 10.1324C13.1441 11.0501 13.2064 12.7575 13.0961 12.9505C12.9826 13.1492 9.50088 14.0034 8.27241 14.3959C8.30205 15.8096 8.31947 16.8352 8.31257 17.042C8.29122 17.6827 8.04289 17.5895 7.94749 17.3435C7.8692 17.1417 7.84839 16.4515 7.85013 16.1129C7.13769 16.1129 3.33243 14.5739 3.33243 14.3247L2.97569 9.72025H3.33243V14.3247L7.85209 15.7636C7.85833 15.1805 7.84513 15.1859 7.84839 14.5739C7.84899 14.461 7.85015 14.3272 7.85209 14.1649C7.88853 11.1209 8.0525 7.88004 8.05707 5.20915C8.02393 3.84581 8.00126 2.90238 8.00126 2.81355L5.91666 4.25702C6.28485 3.87053 7.69657 2.43758 8.00126 2.47059C8.21668 2.50126 10.417 4.28847 10.2454 4.50473Z" fill="black"/>
<path d="M4.246 9.76752C4.246 10.5382 3.90847 11.0019 3.06811 11.0019C2.22775 11.0019 1.70581 10.3966 1.70581 9.76756C1.70581 9.13853 2.25673 8.6255 3.06811 8.6255C3.87949 8.6255 4.246 8.99681 4.246 9.76752Z" fill="black"/>
<path d="M8.00126 2.81355C8.00126 2.81355 10.0738 4.721 10.2454 4.50473C10.417 4.28847 8.21668 2.50126 8.00126 2.47059C7.69657 2.43758 6.28485 3.87053 5.91666 4.25702L8.00126 2.81355ZM8.00126 2.81355C8.04323 3.53445 8.05856 4.34174 8.05707 5.20915M8.00126 2.81355C8.00126 2.90238 8.02393 3.84581 8.05707 5.20915M7.85209 15.7636L3.33243 14.3247M7.85209 15.7636C7.85833 15.1805 7.84513 15.1859 7.84839 14.5739M7.85209 15.7636C7.85085 15.8797 7.85209 16.0181 7.85013 16.1129M3.33243 14.3247L2.97569 9.72025H3.33243V14.3247ZM3.33243 14.3247C3.33243 14.5739 7.13769 16.1129 7.85013 16.1129M7.85209 14.1649C7.88853 11.1209 8.0525 7.88004 8.05707 5.20915M7.85209 14.1649L8.26534 14.0617M7.85209 14.1649C7.85015 14.3272 7.84899 14.461 7.84839 14.5739M8.05707 5.20915C8.1163 7.64592 8.20895 11.4242 8.26534 14.0617M8.26534 14.0617L12.9891 12.8821V10.1324M8.26534 14.0617C8.26776 14.1753 8.27013 14.2867 8.27241 14.3959M12.9891 10.1324L14.2941 10.2368L14.2572 8.41293L12.0097 8.26555L12.0834 10.0157L12.9891 10.1324ZM12.9891 10.1324C13.1441 11.0501 13.2064 12.7575 13.0961 12.9505C12.9826 13.1492 9.50088 14.0034 8.27241 14.3959M8.27241 14.3959C8.30205 15.8096 8.31947 16.8352 8.31257 17.042C8.29122 17.6827 8.04289 17.5895 7.94749 17.3435C7.8692 17.1417 7.84839 16.4515 7.85013 16.1129M8.27241 14.3959C8.00842 14.4803 7.84848 14.5433 7.84839 14.5739M3.06811 11.0019C3.90847 11.0019 4.246 10.5382 4.246 9.76752C4.246 8.99681 3.87949 8.6255 3.06811 8.6255C2.25673 8.6255 1.70581 9.13853 1.70581 9.76756C1.70581 10.3966 2.22775 11.0019 3.06811 11.0019Z" stroke="black" stroke-width="3" stroke-linecap="round" stroke-linejoin="round"/>
</svg>
