<svg width="17" height="19" viewBox="0 0 17 19" fill="none" xmlns="http://www.w3.org/2000/svg">
<path d="M1.84104 8.37747C1.84107 9.40384 1.74508 10.8119 1.65333 12.1577C1.63735 12.3921 1.6215 12.6245 1.60631 12.8528C1.55666 13.5989 1.51365 14.309 1.50417 14.8453C1.49956 15.106 1.50151 15.3788 1.52456 15.6123C1.53524 15.7204 1.55701 15.8951 1.61435 16.0799C1.64279 16.1715 1.69891 16.329 1.8083 16.4984C1.91298 16.6605 2.1455 16.9548 2.56808 17.1132C2.73562 17.176 2.89401 17.1988 2.92062 17.2026C2.92198 17.2028 2.92299 17.203 2.92365 17.2031C2.98341 17.2121 3.04421 17.2191 3.09731 17.2246C3.20589 17.2358 3.33935 17.2465 3.48629 17.2566C3.78326 17.277 4.18044 17.2984 4.63983 17.319C5.56058 17.3602 6.75957 17.3993 7.9632 17.4205C9.16291 17.4416 10.3869 17.4454 11.3501 17.4141C11.8275 17.3986 12.2709 17.3736 12.6258 17.333C12.7997 17.3131 12.9903 17.2853 13.1685 17.2424C13.2571 17.221 13.3744 17.1884 13.4993 17.1375C13.6011 17.096 13.8315 16.9941 14.049 16.7816C14.4999 16.3411 14.6557 15.7532 14.7261 15.4334C14.8118 15.0439 14.8567 14.6041 14.8845 14.1748C14.9244 13.5571 14.9359 12.8142 14.9473 12.0714C14.9516 11.7936 14.9559 11.5159 14.9616 11.2448C14.9879 10.0126 14.8846 8.70628 14.78 7.71438C14.7271 7.2136 14.6729 6.78317 14.6323 6.4719C14.6219 6.39174 14.613 6.32449 14.6053 6.26582C14.5972 6.20486 14.5904 6.15316 14.5843 6.10584C14.58 6.07291 14.5773 6.05014 14.5756 6.03568C14.5519 5.5846 14.3652 5.23276 14.2447 5.03861C14.099 4.80375 13.9213 4.59745 13.7578 4.42876C13.4282 4.08863 13.0188 3.76144 12.628 3.48548C12.232 3.20582 11.807 2.94485 11.4216 2.7467C11.2299 2.64817 11.0264 2.55398 10.8269 2.48072C10.6668 2.42198 10.3592 2.31836 10.0113 2.31836C9.67735 2.31836 7.96615 2.3828 6.35518 2.45778C5.53893 2.49577 4.72694 2.53747 4.10067 2.57683C3.78915 2.59641 3.51313 2.61605 3.30197 2.63511C3.19822 2.64448 3.09512 2.65502 3.00525 2.66713C2.96146 2.67302 2.90417 2.68148 2.84361 2.69343C2.84272 2.69361 2.84153 2.69383 2.84006 2.69412C2.80867 2.70014 2.64795 2.73101 2.47373 2.81023C1.70429 3.16014 1.5784 3.90758 1.55688 4.03668C1.51853 4.26675 1.52727 4.484 1.53469 4.60953C1.54838 4.84118 1.58689 5.1408 1.62374 5.42762C1.62922 5.47022 1.63466 5.51254 1.63997 5.55432C1.72918 6.25538 1.841 7.2038 1.84104 8.37747Z" stroke="black" stroke-width="3" stroke-linecap="round" stroke-linejoin="round"/>
<path d="M10.2549 3.90442L11.0619 2.64002C10.5117 2.28883 9.79752 2.33378 9.29568 2.75119C8.79383 3.16861 8.61954 3.86264 8.86463 4.46763L10.2549 3.90442ZM10.2549 3.90442C11.0619 2.64002 11.062 2.64005 11.062 2.64008L11.0622 2.64019L11.0627 2.64052L11.0645 2.64169L11.0713 2.64603L11.0969 2.66241L11.1922 2.72361C11.2739 2.77615 11.3901 2.8511 11.529 2.94133C11.8061 3.12135 12.1765 3.36408 12.5445 3.61173C12.9076 3.85607 13.2875 4.11804 13.575 4.33294C13.7114 4.4349 13.866 4.55504 13.9925 4.6715C14.0426 4.7176 14.164 4.83089 14.2733 4.98532C14.3179 5.04834 14.4546 5.24557 14.5224 5.53473C14.604 5.88284 14.6035 6.55311 14.0238 7.04074C13.6865 7.32446 13.2415 7.4455 12.807 7.37169L13.0582 5.89287C12.807 7.37169 12.8069 7.37168 12.8069 7.37167L12.8067 7.37164L12.8062 7.37155L12.8047 7.37129L12.7996 7.37043L12.7816 7.36733L12.7165 7.35597C12.661 7.34622 12.5823 7.33219 12.4876 7.31478C12.2991 7.28015 12.0424 7.23129 11.7765 7.17541C11.5159 7.12063 11.223 7.05427 10.9706 6.98358C10.8468 6.94892 10.7044 6.90539 10.5691 6.85286C10.5016 6.82666 10.4134 6.7896 10.3198 6.74C10.2446 6.70015 10.0734 6.60493 9.90595 6.43747C9.74869 6.28021 9.64318 6.10995 9.60056 6.04022C9.54163 5.94382 9.48702 5.84279 9.44028 5.75208C9.34601 5.56913 9.25018 5.3624 9.16869 5.18011C9.08568 4.99441 9.01013 4.81734 8.95576 4.68781C8.92842 4.62268 8.90606 4.56868 8.89037 4.53053L8.87195 4.4856L8.86683 4.47304L8.86536 4.46941L8.8649 4.46829L8.86474 4.4679L8.86468 4.46775C8.86466 4.46769 8.86463 4.46763 10.2549 3.90442Z" stroke="black" stroke-width="3" stroke-linecap="round" stroke-linejoin="round"/>
<path d="M6.1543 12.3847C6.1543 12.3847 6.28555 11.2697 6.29976 10.5344C6.31603 9.6925 6.1543 8.38574 6.1543 8.38574L10.5838 10.8159L6.1543 12.3847Z" stroke="black" stroke-width="3" stroke-linecap="round" stroke-linejoin="round"/>
</svg>
