<svg width="16" height="16" viewBox="0 0 16 16" fill="none" xmlns="http://www.w3.org/2000/svg">
<path d="M1.62527 4.90194C1.64414 5.78059 1.74505 10.5156 1.7513 10.8084C1.75754 11.1013 2.014 11.2424 2.77465 11.275C3.5353 11.3076 9.371 11.0782 9.68751 11.0715M1.62527 4.90194C1.62284 4.78804 1.82057 4.55593 2.63092 4.53864C3.64386 4.51702 8.0256 4.41636 8.78417 4.35134C9.54274 4.28632 10.374 4.65927 10.3823 5.04979C10.3906 5.44031 10.4875 9.98 10.5 10.5658C10.5125 11.1515 10.004 11.0647 9.68751 11.0715M1.62527 4.90194L1.75842 4.90178C1.69716 6.48224 2.09673 9.85163 2.27331 10.304C2.46988 10.8076 2.86502 11.0793 3.58625 11.0784C4.24031 11.0777 7.71143 11.1366 9.68751 11.0715" stroke="black" stroke-width="3" stroke-linecap="round" stroke-linejoin="round"/>
<path d="M14.1928 5.06324C13.9689 4.36561 10.4795 6.43072 10.4795 6.43072V9.10206C11.4488 9.51548 14.4167 10.5058 14.4167 10.2151C14.4167 9.65844 14.4167 5.76087 14.1928 5.06324Z" stroke="black" stroke-width="3" stroke-linecap="round" stroke-linejoin="round"/>
</svg>
