<svg width="20" height="16" viewBox="0 0 20 16" fill="none" xmlns="http://www.w3.org/2000/svg">
<path d="M2.89524 6.21703L6.03804 5.53766C6.03804 5.53766 8.19065 2.30897 8.79594 2.32667C9.32232 2.93109 10.6867 5.93151 10.3322 8.37758C9.8625 11.6186 9.55247 12.9687 8.79594 13.6734C7.45342 13.6671 6.03804 11.2955 6.03804 11.2955L2.89524 10.5242M2.89524 6.21703C2.25563 6.31841 2.22326 10.0056 2.89524 10.5242M2.89524 6.21703C2.66703 6.85747 2.89524 7.92953 2.89524 8.99235C2.89524 9.8426 2.89524 10.036 2.89524 10.5242" stroke="black" stroke-width="3" stroke-miterlimit="10" stroke-linecap="round" stroke-linejoin="round"/>
<path d="M17.707 5.34105C17.3252 5.97434 16.4683 7.3451 16.0943 7.76186C15.6269 8.28281 14.55 9.70555 14.23 9.92965" stroke="black" stroke-width="3" stroke-miterlimit="10" stroke-linecap="round" stroke-linejoin="round"/>
<path d="M15.6116 8.00554C15.8484 8.43216 16.7325 9.52664 17.145 10.0205L15.9461 7.70064L14.3571 5.85341C14.4509 6.18121 15.3156 7.47227 15.6116 8.00554Z" stroke="black" stroke-width="3" stroke-miterlimit="10" stroke-linecap="round" stroke-linejoin="round"/>
</svg>
