<svg width="18" height="16" viewBox="0 0 18 16" fill="none" xmlns="http://www.w3.org/2000/svg">
<path d="M2.11099 6.43255L3.98864 6.0661C3.98864 6.0661 5.89179 2.99683 6.32396 3.01239C6.69978 3.54375 7.70264 5.5741 7.70264 7.77766C7.70264 10.6467 6.8641 12.3682 6.32396 12.9877C5.36542 12.9822 4.35487 10.6467 4.35487 10.6467L2.11099 10.2192M2.11099 6.43255C1.65432 6.52167 1.63121 9.76317 2.11099 10.2192M2.11099 6.43255C1.94805 6.99558 2.11099 7.43099 2.11099 8.36535C2.11099 9.11284 2.11099 9.78992 2.11099 10.2192" stroke="black" stroke-width="3" stroke-miterlimit="10" stroke-linecap="round" stroke-linejoin="round"/>
<path d="M11.6682 5.45972C11.6682 5.45972 12.2714 6.30648 12.2714 7.91936C12.2714 9.29031 11.6682 10.5403 11.6682 10.5403" stroke="black" stroke-width="3" stroke-miterlimit="10" stroke-linecap="round" stroke-linejoin="round"/>
<path d="M13.8093 2.79846C14.286 2.79846 15.6386 4.53232 15.6386 7.83487C15.6386 10.642 14.691 13.2015 13.8093 13.2015" stroke="black" stroke-width="3" stroke-miterlimit="10" stroke-linecap="round" stroke-linejoin="round"/>
</svg>
