<svg width="16" height="16" viewBox="0 0 16 16" fill="none" xmlns="http://www.w3.org/2000/svg">
<path d="M2.55923 6.43255L5.04969 5.74759C5.04969 5.74759 7.34003 2.99683 7.7722 3.01239C8.14802 3.54376 9.23087 4.60445 9.23087 8.36535C9.23087 11.2344 8.31235 12.3682 7.7722 12.9877C6.81367 12.9822 5.50695 10.7774 5.50695 10.7774L2.55923 10.2192M2.55923 6.43255C2.10256 6.52168 2.07945 9.76318 2.55923 10.2192M2.55923 6.43255C2.39629 6.99558 2.55923 7.93807 2.55923 8.87243C2.55923 9.61992 2.55923 9.78993 2.55923 10.2192" stroke="black" stroke-width="3" stroke-miterlimit="10" stroke-linecap="round" stroke-linejoin="round"/>
<path d="M12.6338 5.93353C12.6338 5.93353 13.0273 6.62237 13.0273 7.93442C13.0273 9.04967 12.6338 10.0665 12.6338 10.0665" stroke="black" stroke-width="3" stroke-miterlimit="10" stroke-linecap="round" stroke-linejoin="round"/>
</svg>
