<svg width="20" height="21" viewBox="0 0 20 21" fill="none" xmlns="http://www.w3.org/2000/svg">
<path d="M10.4741 11.4003C10.4638 10.4489 10.8318 9.1453 10.5818 8.46217L10.2734 8.34491C10.2734 8.34491 10.4604 10.1332 10.4741 11.4003Z" stroke="black" stroke-width="3" stroke-miterlimit="10" stroke-linecap="round" stroke-linejoin="round"/>
<path d="M8.59262 14.3481C8.39874 15.2685 9.05646 16.0237 9.83432 16.2569C10.6122 16.4901 11.3476 16.2507 11.9141 15.0627C12.3672 14.1123 11.2009 13.5345 10.4274 13.3411C9.65393 13.1477 8.76769 13.5169 8.59262 14.3481Z" fill="black"/>
<path d="M16.9417 17.5747C17.589 17.29 17.9495 16.5918 17.807 15.8992C17.4863 14.3414 16.274 11.2884 15.1007 8.67013C14.5014 7.33272 13.8856 6.04955 13.3562 5.05332C13.0929 4.55775 12.8396 4.11168 12.6122 3.75836C12.4991 3.58267 12.3791 3.40916 12.2563 3.25614C12.1566 3.13192 11.9665 2.90661 11.7015 2.73476C11.1932 2.40529 10.5367 2.41378 10.0372 2.75629C9.67826 3.00242 9.31746 3.36739 8.99592 3.72735C8.6547 4.10933 8.28106 4.57362 7.89408 5.08734C7.11907 6.11617 6.25135 7.39554 5.42671 8.72495C4.60238 10.0539 3.80699 11.4555 3.18316 12.7298C2.58108 13.9597 2.06563 15.215 1.91392 16.2013C1.80475 16.911 2.21387 17.5985 2.88972 17.8411C4.83598 18.5397 7.71932 18.7303 10.2914 18.6504C11.6059 18.6095 12.8983 18.4961 14.0281 18.3222C15.1299 18.1527 16.1762 17.9114 16.9417 17.5747Z" stroke="black" stroke-width="3" stroke-miterlimit="10" stroke-linecap="round" stroke-linejoin="round"/>
</svg>
