<svg width="20" height="20" viewBox="0 0 20 20" fill="none" xmlns="http://www.w3.org/2000/svg">
<path d="M8.67942 9.08023C8.54316 9.95621 4.95638 11.3883 4.95638 11.3883C4.95638 11.3883 4.25973 10.8711 4.69773 9.28463C3.08202 9.39169 2.84634 8.80609 2.41941 8.11138C1.60698 6.78936 1.63442 4.01035 3.02293 2.99788M8.67942 9.08023C9.76333 8.90603 10.3288 8.87491 10.9762 7.80149C11.7505 6.51753 11.7673 4.178 10.4293 3.17911C8.8792 2.02194 4.58609 1.85804 3.02293 2.99788M8.67942 9.08023C9.20663 9.08023 10.4587 9.0999 11.1507 8.11138C11.8427 7.12287 12.6829 3.17911 9.65146 2.42743C6.62002 1.67575 3.67278 2.37389 3.02293 2.99788M5.52483 5.69738C5.29243 4.84028 6.21056 5.9546 5.72237 5.78206M7.67304 5.9129C7.44064 5.05579 8.35877 6.17011 7.87057 5.99757M12.6177 12.2801C12.3852 11.423 13.3034 12.5374 12.8152 12.3648M14.1803 12.2801C13.9479 11.423 14.8661 12.5374 14.3779 12.3648M11.9197 15.5909C12.044 16.4669 15.3148 17.899 15.3148 17.899C15.3148 17.899 15.9501 17.3818 15.5507 15.7953C17.0241 15.9024 17.239 15.3168 17.6283 14.6221C18.3692 13.3001 18.3442 10.521 17.078 9.50857M11.9197 15.5909C10.9313 15.4167 10.4156 15.3856 9.82528 14.3122C9.11916 13.0282 9.10383 10.6887 10.324 9.6898C11.7375 8.53263 15.6525 8.36873 17.078 9.50857M11.9197 15.5909C11.439 15.5909 10.2971 15.6106 9.66612 14.6221C9.03511 13.6336 8.26888 9.6898 11.0333 8.93812C13.7977 8.18644 16.4854 8.88458 17.078 9.50857" stroke="black" stroke-width="3" stroke-linecap="round" stroke-linejoin="round"/>
</svg>
