<svg width="19" height="19" viewBox="0 0 19 19" fill="none" xmlns="http://www.w3.org/2000/svg">
<path d="M9.3972 1.63792C5.28109 1.71012 2.22852 4.54254 2.22852 8.65845C2.22852 11.2581 3.40401 12.8684 3.40401 12.8684L3.09514 16.1683L6.10364 15.3521M9.3972 1.63792C13.5133 1.56572 16.5236 4.47028 16.7402 8.65845C16.9568 12.8466 13.4212 16.432 10.3161 16.432C7.93309 16.432 6.10364 15.3521 6.10364 15.3521M9.3972 1.63792C11.7919 1.59353 16.6916 2.17092 17.3341 8.65849C17.6041 15.3018 12.3668 16.9719 10.3161 16.9719C8.67558 16.9719 6.69579 15.9088 6.10364 15.3521M8.36403 7.05164C8.31484 6.7667 7.69385 6.12472 7.3448 6.14017C6.99575 6.15562 6.71065 6.73009 6.58145 7.17559C6.34223 8.00049 9.46703 12.3328 11.3613 12.0652C11.5408 11.9439 11.8423 11.7326 11.9926 11.4C12.1429 11.0673 11.2275 10.6416 10.9889 10.6821C10.7503 10.7225 10.6817 10.9756 10.3048 10.8829C9.92778 10.7902 8.00102 8.5038 7.97309 8.13304C7.94517 7.76227 8.41321 7.33658 8.36403 7.05164Z" stroke="black" stroke-width="3" stroke-linecap="round" stroke-linejoin="round"/>
</svg>
