<svg width="16" height="16" viewBox="0 0 16 16" fill="none" xmlns="http://www.w3.org/2000/svg">
<path d="M7.23642 13.2733C7.21671 13.166 7.23642 12.9544 7.65816 12.8691C8.0799 12.7839 8.15658 12.997 8.0799 13.3806" stroke="black" stroke-width="3" stroke-miterlimit="10" stroke-linecap="round" stroke-linejoin="round"/>
<path d="M4.15841 10.4017C4.15841 10.4017 5.59999 8.19186 8.00038 7.97063C9.56726 7.82621 11.6402 8.95928 11.8657 10.9931C11.4138 10.0892 10.086 8.33785 8.00038 8.33785C5.91472 8.33785 4.15841 10.4017 4.15841 10.4017Z" stroke="black" stroke-width="3" stroke-miterlimit="10" stroke-linecap="round" stroke-linejoin="round"/>
<path d="M1.70521 6.98069C2.29964 5.96503 3.45225 3.98098 7.63368 3.64873M7.63368 3.64873C12.13 3.29147 14.1127 6.29907 14.2949 7.41731C13.358 6.69946 12.978 5.67291 11.5627 4.89163C10.0275 4.0442 9.75346 3.73969 7.63368 3.64873Z" stroke="black" stroke-width="3" stroke-miterlimit="10" stroke-linecap="round" stroke-linejoin="round"/>
</svg>
