<svg width="16" height="16" viewBox="0 0 16 16" fill="none" xmlns="http://www.w3.org/2000/svg">
<path d="M11.7996 3.32677C11.7996 3.19701 8.76111 7.02487 8.02384 7.80342C7.1668 8.70846 5.23918 10.0418 3.24097 13.0391C6.79743 10.9052 9.2549 6.54737 11.7996 3.32677Z" stroke="black" stroke-width="3" stroke-miterlimit="10" stroke-linecap="round" stroke-linejoin="round"/>
<path d="M9.18922 10.238C8.33284 9.54668 3.44987 4.78321 3.35051 4.68227C3.25115 4.58133 3.16574 3.76171 3.35051 3.76607C3.53528 3.77043 7.4314 7.38186 7.63237 7.76247C7.88357 8.23823 8.2231 8.72322 9.62912 10.0547C10.4077 10.7919 11.7187 12.0343 12.5542 13.1146C12.5542 13.1146 10.0456 10.9293 9.18922 10.238Z" stroke="black" stroke-width="3" stroke-miterlimit="10" stroke-linecap="round" stroke-linejoin="round"/>
</svg>
